<svg xmlns:mydata="http://www.w3.org/2000/svg" mydata:contrastcolor="ffffff" mydata:template="BlackAndHighlightColorHex1" mydata:presentation="2.5" mydata:layouttype="undefined" mydata:specialfontid="undefined" mydata:id1="772" mydata:id2="120" mydata:companyname="Yala Tour" mydata:companytagline="Discover the Majestic Beasts of Sri Lanka" version="1.1" xmlns="http://www.w3.org/2000/svg" xmlns:xlink="http://www.w3.org/1999/xlink" viewBox="0 45 550 380"><g fill="#a9ba9d" fill-rule="none" stroke="none" stroke-width="1" stroke-linecap="butt" stroke-linejoin="miter" stroke-miterlimit="10" stroke-dasharray="" stroke-dashoffset="0" font-family="none" font-weight="none" font-size="none" text-anchor="none" style="mix-blend-mode: normal"><g data-paper-data="{&quot;isGlobalGroup&quot;:true,&quot;bounds&quot;:{&quot;x&quot;:124.9418829749834,&quot;y&quot;:115,&quot;width&quot;:300.1162340500332,&quot;height&quot;:240}}"><g data-paper-data="{&quot;isSecondaryText&quot;:true}" fill-rule="nonzero"><path d="M143.25445,298.24099c0.45794,0 0.88649,0.082 1.28565,0.24599c0.39915,0.16399 0.74725,0.38987 1.0443,0.67763c0.29704,0.28776 0.53066,0.62658 0.70084,1.01645c0.17018,0.38987 0.25527,0.81068 0.25527,1.26244c0,0.45176 -0.08509,0.87257 -0.25527,1.26244c-0.17018,0.38987 -0.40379,0.73023 -0.70084,1.02109c-0.29704,0.29086 -0.64514,0.51983 -1.0443,0.68692c-0.39915,0.16709 -0.8277,0.25063 -1.28565,0.25063h-1.71729v-6.42359zM142.46543,303.75488h0.79831c0.3218,0 0.62503,-0.05724 0.9097,-0.17173c0.28467,-0.11449 0.5322,-0.27384 0.74261,-0.47806c0.21041,-0.20422 0.37595,-0.44711 0.49662,-0.72869c0.12067,-0.28157 0.18101,-0.58945 0.18101,-0.92362c0,-0.34036 -0.06034,-0.65133 -0.18101,-0.93291c-0.12067,-0.28157 -0.28621,-0.52292 -0.49662,-0.72405c-0.21041,-0.20112 -0.45794,-0.35583 -0.74261,-0.46413c-0.28467,-0.1083 -0.5879,-0.16245 -0.9097,-0.16245h-0.79831z" data-paper-data="{&quot;glyphName&quot;:&quot;D&quot;,&quot;glyphIndex&quot;:0,&quot;firstGlyphOfWord&quot;:true,&quot;word&quot;:1}"></path><path d="M149.65329,298.24099h0.91898v6.42359h-0.91898z" data-paper-data="{&quot;glyphName&quot;:&quot;I&quot;,&quot;glyphIndex&quot;:1,&quot;word&quot;:1}"></path><path d="M155.95002,298.17601c0.4827,0 0.90196,0.08354 1.2578,0.25063c0.35583,0.16709 0.63896,0.3744 0.84936,0.62194l-0.67763,0.62194c-0.37131,-0.40225 -0.85091,-0.60337 -1.43881,-0.60337c-0.1609,0 -0.31406,0.01702 -0.45949,0.05105c-0.14543,0.03404 -0.27384,0.08354 -0.38523,0.14852c-0.11139,0.06498 -0.19958,0.14233 -0.26456,0.23207c-0.06498,0.08973 -0.09747,0.19029 -0.09747,0.30169c0,0.14852 0.03868,0.27384 0.11603,0.37595c0.07736,0.10211 0.18256,0.19029 0.31561,0.26456c0.13305,0.07426 0.28621,0.13924 0.45949,0.19494c0.17328,0.0557 0.35583,0.11139 0.54768,0.16709c0.27848,0.08664 0.55077,0.18101 0.81687,0.28312c0.2661,0.10211 0.50281,0.22897 0.71012,0.38059c0.20731,0.15162 0.37285,0.33882 0.49662,0.5616c0.12377,0.22278 0.18565,0.50126 0.18565,0.83544c0,0.35893 -0.07426,0.65752 -0.22278,0.89578c-0.14852,0.23825 -0.33882,0.4301 -0.57088,0.57552c-0.23207,0.14543 -0.49043,0.24908 -0.7751,0.31097c-0.28467,0.06188 -0.56315,0.09283 -0.83544,0.09283c-0.58171,0 -1.09226,-0.0789 -1.53164,-0.23671c-0.43938,-0.1578 -0.78902,-0.39761 -1.04894,-0.7194l0.66835,-0.62194c0.21041,0.21659 0.47496,0.38832 0.79367,0.51519c0.3187,0.12686 0.68227,0.19029 1.09071,0.19029c0.46413,0 0.83544,-0.08664 1.11392,-0.25991c0.27848,-0.17328 0.41772,-0.40844 0.41772,-0.70548c0,-0.17946 -0.04332,-0.33418 -0.12996,-0.46413c-0.08664,-0.12996 -0.19648,-0.2398 -0.32953,-0.32953c-0.13305,-0.08973 -0.28157,-0.16554 -0.44557,-0.22742c-0.16399,-0.06188 -0.32335,-0.11139 -0.47806,-0.14852c-0.24135,-0.06188 -0.49507,-0.13769 -0.76118,-0.22742c-0.2661,-0.08973 -0.51055,-0.20886 -0.73333,-0.35738c-0.22278,-0.14852 -0.40534,-0.33108 -0.54768,-0.54768c-0.14233,-0.21659 -0.2135,-0.4827 -0.2135,-0.79831c0,-0.24135 0.04951,-0.46104 0.14852,-0.65907c0.09901,-0.19803 0.2398,-0.36821 0.42236,-0.51055c0.18256,-0.14233 0.40379,-0.25373 0.66371,-0.33418c0.25991,-0.08045 0.55077,-0.12067 0.87257,-0.12067z" data-paper-data="{&quot;glyphName&quot;:&quot;S&quot;,&quot;glyphIndex&quot;:2,&quot;word&quot;:1}"></path><path d="M163.93618,299.0393c-0.56315,0 -1.00717,0.19958 -1.33206,0.59873c-0.32489,0.39915 -0.48734,1.00717 -0.48734,1.82404c0,0.8045 0.16554,1.40941 0.49662,1.81476c0.33108,0.40534 0.77201,0.60801 1.32278,0.60801c0.2661,0 0.52756,-0.05415 0.78438,-0.16245c0.25682,-0.1083 0.48424,-0.2924 0.68227,-0.55232l0.67763,0.52911c-0.2661,0.35893 -0.57707,0.63122 -0.93291,0.81687c-0.35583,0.18565 -0.75035,0.27848 -1.18354,0.27848c-0.40225,0 -0.77201,-0.07117 -1.10928,-0.2135c-0.33727,-0.14233 -0.62967,-0.35274 -0.87721,-0.63122c-0.24754,-0.27848 -0.44093,-0.62503 -0.58017,-1.03966c-0.13924,-0.41462 -0.20886,-0.89732 -0.20886,-1.44809c0,-0.54458 0.06962,-1.02573 0.20886,-1.44345c0.13924,-0.41772 0.33263,-0.76891 0.58017,-1.05358c0.24754,-0.28467 0.53994,-0.49817 0.87721,-0.6405c0.33727,-0.14233 0.70703,-0.2135 1.10928,-0.2135c0.50126,0 0.92826,0.10211 1.281,0.30633c0.35274,0.20422 0.64669,0.49198 0.88185,0.86329l-0.67763,0.53839c-0.21041,-0.25991 -0.44557,-0.45485 -0.70548,-0.58481c-0.25991,-0.12996 -0.52911,-0.19494 -0.80759,-0.19494z" data-paper-data="{&quot;glyphName&quot;:&quot;C&quot;,&quot;glyphIndex&quot;:3,&quot;word&quot;:1}"></path><path d="M171.72741,298.11103c0.39606,0 0.76118,0.07117 1.09535,0.2135c0.33418,0.14233 0.62194,0.35583 0.86329,0.6405c0.24135,0.28467 0.42855,0.63586 0.5616,1.05358c0.13305,0.41772 0.19958,0.89887 0.19958,1.44345c0,0.55077 -0.06653,1.03347 -0.19958,1.44809c-0.13305,0.41462 -0.32025,0.76118 -0.5616,1.03966c-0.24135,0.27848 -0.52911,0.48889 -0.86329,0.63122c-0.33418,0.14233 -0.69929,0.2135 -1.09535,0.2135c-0.39606,0 -0.75963,-0.07117 -1.09071,-0.2135c-0.33108,-0.14233 -0.6173,-0.35274 -0.85864,-0.63122c-0.24135,-0.27848 -0.42855,-0.62503 -0.5616,-1.03966c-0.13305,-0.41462 -0.19958,-0.89732 -0.19958,-1.44809c0,-0.54458 0.06653,-1.02573 0.19958,-1.44345c0.13305,-0.41772 0.32025,-0.76891 0.5616,-1.05358c0.24135,-0.28467 0.52756,-0.49817 0.85864,-0.6405c0.33108,-0.14233 0.69465,-0.2135 1.09071,-0.2135zM171.72741,299.0393c-0.55696,0 -0.99479,0.19958 -1.31349,0.59873c-0.3187,0.39915 -0.47806,1.00717 -0.47806,1.82404c0,0.81687 0.15935,1.42489 0.47806,1.82404c0.3187,0.39915 0.75654,0.59873 1.31349,0.59873c0.55077,0 0.9886,-0.20267 1.31349,-0.60801c0.32489,-0.40534 0.48734,-1.01026 0.48734,-1.81476c0,-0.81687 -0.15935,-1.42489 -0.47806,-1.82404c-0.3187,-0.39915 -0.75963,-0.59873 -1.32278,-0.59873z" data-paper-data="{&quot;glyphName&quot;:&quot;O&quot;,&quot;glyphIndex&quot;:4,&quot;word&quot;:1}"></path><path d="M179.36084,304.66458l-2.29281,-6.42359h1.03966l1.66159,4.96621l1.67088,-4.96621h1.02109l-2.3021,6.42359z" data-paper-data="{&quot;glyphName&quot;:&quot;V&quot;,&quot;glyphIndex&quot;:5,&quot;word&quot;:1}"></path><path d="M185.26769,298.24099h3.53669v0.92826h-2.61771v1.75442h1.62446v0.91898h-1.62446v1.92151h2.69197v0.90042h-3.61095z" data-paper-data="{&quot;glyphName&quot;:&quot;E&quot;,&quot;glyphIndex&quot;:6,&quot;word&quot;:1}"></path><path d="M194.16356,302.13042h-1.3367v2.53416h-0.91898v-6.42359h2.46918c0.31561,0 0.60182,0.04022 0.85864,0.12067c0.25682,0.08045 0.47651,0.20112 0.65907,0.36202c0.18256,0.1609 0.32335,0.36048 0.42236,0.59873c0.09901,0.23825 0.14852,0.51209 0.14852,0.82151c0,0.53839 -0.1315,0.95921 -0.39451,1.26244c-0.26301,0.30323 -0.58945,0.50126 -0.97932,0.59409l1.48522,2.66412h-1.09535zM192.82686,301.25785h1.57805c0.35274,0 0.63741,-0.08509 0.854,-0.25527c0.21659,-0.17018 0.32489,-0.44093 0.32489,-0.81223c0,-0.18565 -0.0294,-0.34346 -0.08819,-0.47341c-0.05879,-0.12996 -0.14079,-0.23671 -0.24599,-0.32025c-0.1052,-0.08354 -0.22897,-0.14543 -0.37131,-0.18565c-0.14233,-0.04022 -0.30014,-0.06034 -0.47341,-0.06034h-1.57805z" data-paper-data="{&quot;glyphName&quot;:&quot;R&quot;,&quot;glyphIndex&quot;:7,&quot;lastGlyphOfWord&quot;:true,&quot;word&quot;:1}"></path><path d="M206.59921,304.66458h-0.91898v-5.49532h-1.84725v-0.92826h4.58563v0.92826h-1.8194z" data-paper-data="{&quot;glyphName&quot;:&quot;T&quot;,&quot;glyphIndex&quot;:8,&quot;firstGlyphOfWord&quot;:true,&quot;word&quot;:2}"></path><path d="M214.91955,301.84265h-2.73838v2.82192h-0.91898v-6.42359h0.91898v2.68268h2.73838v-2.68268h0.92826v6.42359h-0.92826z" data-paper-data="{&quot;glyphName&quot;:&quot;H&quot;,&quot;glyphIndex&quot;:9,&quot;word&quot;:2}"></path><path d="M219.17409,298.24099h3.53669v0.92826h-2.61771v1.75442h1.62446v0.91898h-1.62446v1.92151h2.69197v0.90042h-3.61095z" data-paper-data="{&quot;glyphName&quot;:&quot;E&quot;,&quot;glyphIndex&quot;:10,&quot;lastGlyphOfWord&quot;:true,&quot;word&quot;:2}"></path><path d="M236.72448,298.24099v6.42359h-0.92826v-4.37212l-1.86581,4.37212h-0.44557l-1.86581,-4.37212v4.37212h-0.91898v-6.42359h1.03037l1.9772,4.64132l1.9772,-4.64132z" data-paper-data="{&quot;glyphName&quot;:&quot;M&quot;,&quot;glyphIndex&quot;:11,&quot;firstGlyphOfWord&quot;:true,&quot;word&quot;:3}"></path><path d="M241.83302,298.24099h0.79831l2.3021,6.42359h-1.03037l-0.427,-1.24387h-2.49703l-0.41772,1.24387h-1.02109zM241.23894,302.53885h1.9772l-0.99324,-2.93332z" data-paper-data="{&quot;glyphName&quot;:&quot;A&quot;,&quot;glyphIndex&quot;:12,&quot;word&quot;:3}"></path><path d="M249.09514,304.72956c-0.19803,0 -0.39297,-0.02475 -0.58481,-0.07426c-0.19184,-0.04951 -0.37131,-0.12377 -0.53839,-0.22278c-0.16709,-0.09901 -0.3187,-0.21969 -0.45485,-0.36202c-0.13615,-0.14233 -0.24444,-0.30323 -0.32489,-0.4827l0.68692,-0.56624c0.12377,0.24135 0.29395,0.43474 0.51055,0.58017c0.21659,0.14543 0.45794,0.21814 0.72405,0.21814c0.18565,0 0.35893,-0.03868 0.51983,-0.11603c0.1609,-0.07736 0.30323,-0.18411 0.427,-0.32025c0.12377,-0.13615 0.22124,-0.29395 0.2924,-0.47341c0.07117,-0.17946 0.10675,-0.36821 0.10675,-0.56624v-4.10293h0.92826v4.10293c0,0.34036 -0.06034,0.65597 -0.18101,0.94683c-0.12067,0.29086 -0.28467,0.54303 -0.49198,0.75654c-0.20731,0.2135 -0.45021,0.38059 -0.72869,0.50126c-0.27848,0.12067 -0.57552,0.18101 -0.89113,0.18101z" data-paper-data="{&quot;glyphName&quot;:&quot;J&quot;,&quot;glyphIndex&quot;:13,&quot;word&quot;:3}"></path><path d="M254.63069,298.24099h3.53669v0.92826h-2.61771v1.75442h1.62446v0.91898h-1.62446v1.92151h2.69197v0.90042h-3.61095z" data-paper-data="{&quot;glyphName&quot;:&quot;E&quot;,&quot;glyphIndex&quot;:14,&quot;word&quot;:3}"></path><path d="M263.28521,298.17601c0.4827,0 0.90196,0.08354 1.2578,0.25063c0.35583,0.16709 0.63896,0.3744 0.84936,0.62194l-0.67763,0.62194c-0.37131,-0.40225 -0.85091,-0.60337 -1.43881,-0.60337c-0.1609,0 -0.31406,0.01702 -0.45949,0.05105c-0.14543,0.03404 -0.27384,0.08354 -0.38523,0.14852c-0.11139,0.06498 -0.19958,0.14233 -0.26456,0.23207c-0.06498,0.08973 -0.09747,0.19029 -0.09747,0.30169c0,0.14852 0.03868,0.27384 0.11603,0.37595c0.07736,0.10211 0.18256,0.19029 0.31561,0.26456c0.13305,0.07426 0.28621,0.13924 0.45949,0.19494c0.17328,0.0557 0.35583,0.11139 0.54768,0.16709c0.27848,0.08664 0.55077,0.18101 0.81687,0.28312c0.2661,0.10211 0.50281,0.22897 0.71012,0.38059c0.20731,0.15162 0.37285,0.33882 0.49662,0.5616c0.12377,0.22278 0.18565,0.50126 0.18565,0.83544c0,0.35893 -0.07426,0.65752 -0.22278,0.89578c-0.14852,0.23825 -0.33882,0.4301 -0.57088,0.57552c-0.23207,0.14543 -0.49043,0.24908 -0.7751,0.31097c-0.28467,0.06188 -0.56315,0.09283 -0.83544,0.09283c-0.58171,0 -1.09226,-0.0789 -1.53164,-0.23671c-0.43938,-0.1578 -0.78902,-0.39761 -1.04894,-0.7194l0.66835,-0.62194c0.21041,0.21659 0.47496,0.38832 0.79367,0.51519c0.3187,0.12686 0.68227,0.19029 1.09071,0.19029c0.46413,0 0.83544,-0.08664 1.11392,-0.25991c0.27848,-0.17328 0.41772,-0.40844 0.41772,-0.70548c0,-0.17946 -0.04332,-0.33418 -0.12996,-0.46413c-0.08664,-0.12996 -0.19648,-0.2398 -0.32953,-0.32953c-0.13305,-0.08973 -0.28157,-0.16554 -0.44557,-0.22742c-0.16399,-0.06188 -0.32335,-0.11139 -0.47806,-0.14852c-0.24135,-0.06188 -0.49507,-0.13769 -0.76118,-0.22742c-0.2661,-0.08973 -0.51055,-0.20886 -0.73333,-0.35738c-0.22278,-0.14852 -0.40534,-0.33108 -0.54768,-0.54768c-0.14233,-0.21659 -0.2135,-0.4827 -0.2135,-0.79831c0,-0.24135 0.04951,-0.46104 0.14852,-0.65907c0.09901,-0.19803 0.2398,-0.36821 0.42236,-0.51055c0.18256,-0.14233 0.40379,-0.25373 0.66371,-0.33418c0.25991,-0.08045 0.55077,-0.12067 0.87257,-0.12067z" data-paper-data="{&quot;glyphName&quot;:&quot;S&quot;,&quot;glyphIndex&quot;:15,&quot;word&quot;:3}"></path><path d="M270.9929,304.66458h-0.91898v-5.49532h-1.84725v-0.92826h4.58563v0.92826h-1.8194z" data-paper-data="{&quot;glyphName&quot;:&quot;T&quot;,&quot;glyphIndex&quot;:16,&quot;word&quot;:3}"></path><path d="M275.69301,298.24099h0.91898v6.42359h-0.91898z" data-paper-data="{&quot;glyphName&quot;:&quot;I&quot;,&quot;glyphIndex&quot;:17,&quot;word&quot;:3}"></path><path d="M282.53741,299.0393c-0.56315,0 -1.00717,0.19958 -1.33206,0.59873c-0.32489,0.39915 -0.48734,1.00717 -0.48734,1.82404c0,0.8045 0.16554,1.40941 0.49662,1.81476c0.33108,0.40534 0.77201,0.60801 1.32278,0.60801c0.2661,0 0.52756,-0.05415 0.78438,-0.16245c0.25682,-0.1083 0.48424,-0.2924 0.68227,-0.55232l0.67763,0.52911c-0.2661,0.35893 -0.57707,0.63122 -0.93291,0.81687c-0.35583,0.18565 -0.75035,0.27848 -1.18354,0.27848c-0.40225,0 -0.77201,-0.07117 -1.10928,-0.2135c-0.33727,-0.14233 -0.62967,-0.35274 -0.87721,-0.63122c-0.24754,-0.27848 -0.44093,-0.62503 -0.58017,-1.03966c-0.13924,-0.41462 -0.20886,-0.89732 -0.20886,-1.44809c0,-0.54458 0.06962,-1.02573 0.20886,-1.44345c0.13924,-0.41772 0.33263,-0.76891 0.58017,-1.05358c0.24754,-0.28467 0.53994,-0.49817 0.87721,-0.6405c0.33727,-0.14233 0.70703,-0.2135 1.10928,-0.2135c0.50126,0 0.92826,0.10211 1.281,0.30633c0.35274,0.20422 0.64669,0.49198 0.88185,0.86329l-0.67763,0.53839c-0.21041,-0.25991 -0.44557,-0.45485 -0.70548,-0.58481c-0.25991,-0.12996 -0.52911,-0.19494 -0.80759,-0.19494z" data-paper-data="{&quot;glyphName&quot;:&quot;C&quot;,&quot;glyphIndex&quot;:18,&quot;lastGlyphOfWord&quot;:true,&quot;word&quot;:3}"></path><path d="M295.16799,298.24099c0.25991,0 0.49507,0.04022 0.70548,0.12067c0.21041,0.08045 0.39142,0.19494 0.54303,0.34346c0.15162,0.14852 0.2692,0.32644 0.35274,0.53375c0.08354,0.20731 0.12532,0.43474 0.12532,0.68227c0,0.17946 -0.01857,0.33882 -0.0557,0.47806c-0.03713,0.13924 -0.08664,0.26146 -0.14852,0.36666c-0.06188,0.1052 -0.13615,0.19803 -0.22278,0.27848c-0.08664,0.08045 -0.17637,0.15162 -0.2692,0.2135c0.12996,0.03094 0.26456,0.08973 0.40379,0.17637c0.13924,0.08664 0.26765,0.19958 0.38523,0.33882c0.11758,0.13924 0.2135,0.30169 0.28776,0.48734c0.07426,0.18565 0.11139,0.39297 0.11139,0.62194c0,0.59409 -0.18875,1.03966 -0.56624,1.3367c-0.37749,0.29704 -0.88804,0.44557 -1.53164,0.44557h-2.59914v-6.42359zM295.18656,300.97009c0.11139,0 0.21659,-0.0263 0.31561,-0.0789c0.09901,-0.0526 0.1872,-0.12377 0.26456,-0.2135c0.07736,-0.08973 0.13924,-0.19029 0.18565,-0.30169c0.04641,-0.11139 0.06962,-0.22278 0.06962,-0.33418c0,-0.25991 -0.07736,-0.47341 -0.23207,-0.6405c-0.15471,-0.16709 -0.35583,-0.25063 -0.60337,-0.25063h-1.58733v1.8194zM293.59923,303.77344h1.79155c0.33418,0 0.60337,-0.08045 0.80759,-0.24135c0.20422,-0.1609 0.30633,-0.39915 0.30633,-0.71476c0,-0.15471 -0.03558,-0.2955 -0.10675,-0.42236c-0.07117,-0.12686 -0.16554,-0.23516 -0.28312,-0.32489c-0.11758,-0.08973 -0.24754,-0.1578 -0.38987,-0.20422c-0.14233,-0.04641 -0.28776,-0.06962 -0.43628,-0.06962h-1.68944z" data-paper-data="{&quot;glyphName&quot;:&quot;B&quot;,&quot;glyphIndex&quot;:19,&quot;firstGlyphOfWord&quot;:true,&quot;word&quot;:4}"></path><path d="M300.37865,298.24099h3.53669v0.92826h-2.61771v1.75442h1.62446v0.91898h-1.62446v1.92151h2.69197v0.90042h-3.61095z" data-paper-data="{&quot;glyphName&quot;:&quot;E&quot;,&quot;glyphIndex&quot;:20,&quot;word&quot;:4}"></path><path d="M308.79182,298.24099h0.79831l2.3021,6.42359h-1.03037l-0.427,-1.24387h-2.49703l-0.41772,1.24387h-1.02109zM308.19773,302.53885h1.9772l-0.99324,-2.93332z" data-paper-data="{&quot;glyphName&quot;:&quot;A&quot;,&quot;glyphIndex&quot;:21,&quot;word&quot;:4}"></path><path d="M316.71301,298.17601c0.4827,0 0.90196,0.08354 1.2578,0.25063c0.35583,0.16709 0.63896,0.3744 0.84936,0.62194l-0.67763,0.62194c-0.37131,-0.40225 -0.85091,-0.60337 -1.43881,-0.60337c-0.1609,0 -0.31406,0.01702 -0.45949,0.05105c-0.14543,0.03404 -0.27384,0.08354 -0.38523,0.14852c-0.11139,0.06498 -0.19958,0.14233 -0.26456,0.23207c-0.06498,0.08973 -0.09747,0.19029 -0.09747,0.30169c0,0.14852 0.03868,0.27384 0.11603,0.37595c0.07736,0.10211 0.18256,0.19029 0.31561,0.26456c0.13305,0.07426 0.28621,0.13924 0.45949,0.19494c0.17328,0.0557 0.35583,0.11139 0.54768,0.16709c0.27848,0.08664 0.55077,0.18101 0.81687,0.28312c0.2661,0.10211 0.50281,0.22897 0.71012,0.38059c0.20731,0.15162 0.37285,0.33882 0.49662,0.5616c0.12377,0.22278 0.18565,0.50126 0.18565,0.83544c0,0.35893 -0.07426,0.65752 -0.22278,0.89578c-0.14852,0.23825 -0.33882,0.4301 -0.57088,0.57552c-0.23207,0.14543 -0.49043,0.24908 -0.7751,0.31097c-0.28467,0.06188 -0.56315,0.09283 -0.83544,0.09283c-0.58171,0 -1.09226,-0.0789 -1.53164,-0.23671c-0.43938,-0.1578 -0.78902,-0.39761 -1.04894,-0.7194l0.66835,-0.62194c0.21041,0.21659 0.47496,0.38832 0.79367,0.51519c0.3187,0.12686 0.68227,0.19029 1.09071,0.19029c0.46413,0 0.83544,-0.08664 1.11392,-0.25991c0.27848,-0.17328 0.41772,-0.40844 0.41772,-0.70548c0,-0.17946 -0.04332,-0.33418 -0.12996,-0.46413c-0.08664,-0.12996 -0.19648,-0.2398 -0.32953,-0.32953c-0.13305,-0.08973 -0.28157,-0.16554 -0.44557,-0.22742c-0.16399,-0.06188 -0.32335,-0.11139 -0.47806,-0.14852c-0.24135,-0.06188 -0.49507,-0.13769 -0.76118,-0.22742c-0.2661,-0.08973 -0.51055,-0.20886 -0.73333,-0.35738c-0.22278,-0.14852 -0.40534,-0.33108 -0.54768,-0.54768c-0.14233,-0.21659 -0.2135,-0.4827 -0.2135,-0.79831c0,-0.24135 0.04951,-0.46104 0.14852,-0.65907c0.09901,-0.19803 0.2398,-0.36821 0.42236,-0.51055c0.18256,-0.14233 0.40379,-0.25373 0.66371,-0.33418c0.25991,-0.08045 0.55077,-0.12067 0.87257,-0.12067z" data-paper-data="{&quot;glyphName&quot;:&quot;S&quot;,&quot;glyphIndex&quot;:22,&quot;word&quot;:4}"></path><path d="M324.4207,304.66458h-0.91898v-5.49532h-1.84725v-0.92826h4.58563v0.92826h-1.8194z" data-paper-data="{&quot;glyphName&quot;:&quot;T&quot;,&quot;glyphIndex&quot;:23,&quot;word&quot;:4}"></path><path d="M331.09801,298.17601c0.4827,0 0.90196,0.08354 1.2578,0.25063c0.35583,0.16709 0.63896,0.3744 0.84936,0.62194l-0.67763,0.62194c-0.37131,-0.40225 -0.85091,-0.60337 -1.43881,-0.60337c-0.1609,0 -0.31406,0.01702 -0.45949,0.05105c-0.14543,0.03404 -0.27384,0.08354 -0.38523,0.14852c-0.11139,0.06498 -0.19958,0.14233 -0.26456,0.23207c-0.06498,0.08973 -0.09747,0.19029 -0.09747,0.30169c0,0.14852 0.03868,0.27384 0.11603,0.37595c0.07736,0.10211 0.18256,0.19029 0.31561,0.26456c0.13305,0.07426 0.28621,0.13924 0.45949,0.19494c0.17328,0.0557 0.35583,0.11139 0.54768,0.16709c0.27848,0.08664 0.55077,0.18101 0.81687,0.28312c0.2661,0.10211 0.50281,0.22897 0.71012,0.38059c0.20731,0.15162 0.37285,0.33882 0.49662,0.5616c0.12377,0.22278 0.18565,0.50126 0.18565,0.83544c0,0.35893 -0.07426,0.65752 -0.22278,0.89578c-0.14852,0.23825 -0.33882,0.4301 -0.57088,0.57552c-0.23207,0.14543 -0.49043,0.24908 -0.7751,0.31097c-0.28467,0.06188 -0.56315,0.09283 -0.83544,0.09283c-0.58171,0 -1.09226,-0.0789 -1.53164,-0.23671c-0.43938,-0.1578 -0.78902,-0.39761 -1.04894,-0.7194l0.66835,-0.62194c0.21041,0.21659 0.47496,0.38832 0.79367,0.51519c0.3187,0.12686 0.68227,0.19029 1.09071,0.19029c0.46413,0 0.83544,-0.08664 1.11392,-0.25991c0.27848,-0.17328 0.41772,-0.40844 0.41772,-0.70548c0,-0.17946 -0.04332,-0.33418 -0.12996,-0.46413c-0.08664,-0.12996 -0.19648,-0.2398 -0.32953,-0.32953c-0.13305,-0.08973 -0.28157,-0.16554 -0.44557,-0.22742c-0.16399,-0.06188 -0.32335,-0.11139 -0.47806,-0.14852c-0.24135,-0.06188 -0.49507,-0.13769 -0.76118,-0.22742c-0.2661,-0.08973 -0.51055,-0.20886 -0.73333,-0.35738c-0.22278,-0.14852 -0.40534,-0.33108 -0.54768,-0.54768c-0.14233,-0.21659 -0.2135,-0.4827 -0.2135,-0.79831c0,-0.24135 0.04951,-0.46104 0.14852,-0.65907c0.09901,-0.19803 0.2398,-0.36821 0.42236,-0.51055c0.18256,-0.14233 0.40379,-0.25373 0.66371,-0.33418c0.25991,-0.08045 0.55077,-0.12067 0.87257,-0.12067z" data-paper-data="{&quot;glyphName&quot;:&quot;S&quot;,&quot;glyphIndex&quot;:24,&quot;lastGlyphOfWord&quot;:true,&quot;word&quot;:4}"></path><path d="M343.93281,298.11103c0.39606,0 0.76118,0.07117 1.09535,0.2135c0.33418,0.14233 0.62194,0.35583 0.86329,0.6405c0.24135,0.28467 0.42855,0.63586 0.5616,1.05358c0.13305,0.41772 0.19958,0.89887 0.19958,1.44345c0,0.55077 -0.06653,1.03347 -0.19958,1.44809c-0.13305,0.41462 -0.32025,0.76118 -0.5616,1.03966c-0.24135,0.27848 -0.52911,0.48889 -0.86329,0.63122c-0.33418,0.14233 -0.69929,0.2135 -1.09535,0.2135c-0.39606,0 -0.75963,-0.07117 -1.09071,-0.2135c-0.33108,-0.14233 -0.6173,-0.35274 -0.85864,-0.63122c-0.24135,-0.27848 -0.42855,-0.62503 -0.5616,-1.03966c-0.13305,-0.41462 -0.19958,-0.89732 -0.19958,-1.44809c0,-0.54458 0.06653,-1.02573 0.19958,-1.44345c0.13305,-0.41772 0.32025,-0.76891 0.5616,-1.05358c0.24135,-0.28467 0.52756,-0.49817 0.85864,-0.6405c0.33108,-0.14233 0.69465,-0.2135 1.09071,-0.2135zM343.93281,299.0393c-0.55696,0 -0.99479,0.19958 -1.31349,0.59873c-0.3187,0.39915 -0.47806,1.00717 -0.47806,1.82404c0,0.81687 0.15935,1.42489 0.47806,1.82404c0.3187,0.39915 0.75654,0.59873 1.31349,0.59873c0.55077,0 0.9886,-0.20267 1.31349,-0.60801c0.32489,-0.40534 0.48734,-1.01026 0.48734,-1.81476c0,-0.81687 -0.15935,-1.42489 -0.47806,-1.82404c-0.3187,-0.39915 -0.75963,-0.59873 -1.32278,-0.59873z" data-paper-data="{&quot;glyphName&quot;:&quot;O&quot;,&quot;glyphIndex&quot;:25,&quot;firstGlyphOfWord&quot;:true,&quot;word&quot;:5}"></path><path d="M350.71223,301.02578h1.67088v0.91898h-1.67088v2.71981h-0.91898v-6.42359h3.53669v0.92826h-2.61771z" data-paper-data="{&quot;glyphName&quot;:&quot;F&quot;,&quot;glyphIndex&quot;:26,&quot;lastGlyphOfWord&quot;:true,&quot;word&quot;:5}"></path><path d="M363.07362,298.17601c0.4827,0 0.90196,0.08354 1.2578,0.25063c0.35583,0.16709 0.63896,0.3744 0.84936,0.62194l-0.67763,0.62194c-0.37131,-0.40225 -0.85091,-0.60337 -1.43881,-0.60337c-0.1609,0 -0.31406,0.01702 -0.45949,0.05105c-0.14543,0.03404 -0.27384,0.08354 -0.38523,0.14852c-0.11139,0.06498 -0.19958,0.14233 -0.26456,0.23207c-0.06498,0.08973 -0.09747,0.19029 -0.09747,0.30169c0,0.14852 0.03868,0.27384 0.11603,0.37595c0.07736,0.10211 0.18256,0.19029 0.31561,0.26456c0.13305,0.07426 0.28621,0.13924 0.45949,0.19494c0.17328,0.0557 0.35583,0.11139 0.54768,0.16709c0.27848,0.08664 0.55077,0.18101 0.81687,0.28312c0.2661,0.10211 0.50281,0.22897 0.71012,0.38059c0.20731,0.15162 0.37285,0.33882 0.49662,0.5616c0.12377,0.22278 0.18565,0.50126 0.18565,0.83544c0,0.35893 -0.07426,0.65752 -0.22278,0.89578c-0.14852,0.23825 -0.33882,0.4301 -0.57088,0.57552c-0.23207,0.14543 -0.49043,0.24908 -0.7751,0.31097c-0.28467,0.06188 -0.56315,0.09283 -0.83544,0.09283c-0.58171,0 -1.09226,-0.0789 -1.53164,-0.23671c-0.43938,-0.1578 -0.78902,-0.39761 -1.04894,-0.7194l0.66835,-0.62194c0.21041,0.21659 0.47496,0.38832 0.79367,0.51519c0.3187,0.12686 0.68227,0.19029 1.09071,0.19029c0.46413,0 0.83544,-0.08664 1.11392,-0.25991c0.27848,-0.17328 0.41772,-0.40844 0.41772,-0.70548c0,-0.17946 -0.04332,-0.33418 -0.12996,-0.46413c-0.08664,-0.12996 -0.19648,-0.2398 -0.32953,-0.32953c-0.13305,-0.08973 -0.28157,-0.16554 -0.44557,-0.22742c-0.16399,-0.06188 -0.32335,-0.11139 -0.47806,-0.14852c-0.24135,-0.06188 -0.49507,-0.13769 -0.76118,-0.22742c-0.2661,-0.08973 -0.51055,-0.20886 -0.73333,-0.35738c-0.22278,-0.14852 -0.40534,-0.33108 -0.54768,-0.54768c-0.14233,-0.21659 -0.2135,-0.4827 -0.2135,-0.79831c0,-0.24135 0.04951,-0.46104 0.14852,-0.65907c0.09901,-0.19803 0.2398,-0.36821 0.42236,-0.51055c0.18256,-0.14233 0.40379,-0.25373 0.66371,-0.33418c0.25991,-0.08045 0.55077,-0.12067 0.87257,-0.12067z" data-paper-data="{&quot;glyphName&quot;:&quot;S&quot;,&quot;glyphIndex&quot;:27,&quot;firstGlyphOfWord&quot;:true,&quot;word&quot;:6}"></path><path d="M370.75346,302.13042h-1.3367v2.53416h-0.91898v-6.42359h2.46918c0.31561,0 0.60182,0.04022 0.85864,0.12067c0.25682,0.08045 0.47651,0.20112 0.65907,0.36202c0.18256,0.1609 0.32335,0.36048 0.42236,0.59873c0.09901,0.23825 0.14852,0.51209 0.14852,0.82151c0,0.53839 -0.1315,0.95921 -0.39451,1.26244c-0.26301,0.30323 -0.58945,0.50126 -0.97932,0.59409l1.48522,2.66412h-1.09535zM369.41676,301.25785h1.57805c0.35274,0 0.63741,-0.08509 0.854,-0.25527c0.21659,-0.17018 0.32489,-0.44093 0.32489,-0.81223c0,-0.18565 -0.0294,-0.34346 -0.08819,-0.47341c-0.05879,-0.12996 -0.14079,-0.23671 -0.24599,-0.32025c-0.1052,-0.08354 -0.22897,-0.14543 -0.37131,-0.18565c-0.14233,-0.04022 -0.30014,-0.06034 -0.47341,-0.06034h-1.57805z" data-paper-data="{&quot;glyphName&quot;:&quot;R&quot;,&quot;glyphIndex&quot;:28,&quot;word&quot;:6}"></path><path d="M376.05694,298.24099h0.91898v6.42359h-0.91898z" data-paper-data="{&quot;glyphName&quot;:&quot;I&quot;,&quot;glyphIndex&quot;:29,&quot;lastGlyphOfWord&quot;:true,&quot;word&quot;:6}"></path><path d="M385.2251,298.24099h0.91898v5.52317h3.01686v0.90042h-3.93584z" data-paper-data="{&quot;glyphName&quot;:&quot;L&quot;,&quot;glyphIndex&quot;:30,&quot;firstGlyphOfWord&quot;:true,&quot;word&quot;:7}"></path><path d="M393.77751,298.24099h0.79831l2.3021,6.42359h-1.03037l-0.427,-1.24387h-2.49703l-0.41772,1.24387h-1.02109zM393.18342,302.53885h1.9772l-0.99324,-2.93332z" data-paper-data="{&quot;glyphName&quot;:&quot;A&quot;,&quot;glyphIndex&quot;:31,&quot;word&quot;:7}"></path><path d="M403.49024,302.97514v-4.73415h0.91898v6.42359h-0.96539l-2.84049,-4.72487v4.72487h-0.91898v-6.42359h0.96539z" data-paper-data="{&quot;glyphName&quot;:&quot;N&quot;,&quot;glyphIndex&quot;:32,&quot;word&quot;:7}"></path><path d="M409.72199,301.59202l-1.0675,1.38311v1.68944h-0.91898v-6.42359h0.91898v3.36032l2.46918,-3.36032h1.1789l-2.01433,2.61771l2.09788,3.80588h-1.09535z" data-paper-data="{&quot;glyphName&quot;:&quot;K&quot;,&quot;glyphIndex&quot;:33,&quot;word&quot;:7}"></path><path d="M416.9377,298.24099h0.79831l2.3021,6.42359h-1.03037l-0.427,-1.24387h-2.49703l-0.41772,1.24387h-1.02109zM416.34361,302.53885h1.9772l-0.99324,-2.93332z" data-paper-data="{&quot;glyphName&quot;:&quot;A&quot;,&quot;glyphIndex&quot;:34,&quot;lastGlyphOfWord&quot;:true,&quot;word&quot;:7}"></path></g><g data-paper-data="{&quot;isPrimaryText&quot;:true}" fill-rule="nonzero"><path d="M146.55537,295.07021v-17.98992l11.55277,-16.49787h-7.0766l-7.37502,10.57228l-11.63803,-16.58313h-7.0766l15.81578,22.50872v8.69655z" data-paper-data="{&quot;glyphName&quot;:&quot;Y&quot;,&quot;glyphIndex&quot;:0,&quot;firstGlyphOfWord&quot;:true,&quot;word&quot;:1}"></path><path d="M188.16239,289.01673l-17.69151,-28.43431l-17.73414,28.43431h13.64165l3.62356,-5.7977h-6.82082l7.28976,-11.68066l10.87069,17.47836z" data-paper-data="{&quot;glyphName&quot;:&quot;A&quot;,&quot;glyphIndex&quot;:1,&quot;word&quot;:1}"></path><path d="M223.07648,295.07021v-11.80855h-23.14817v-22.67924h-5.7977v28.43431h25.19442z" data-paper-data="{&quot;glyphName&quot;:&quot;L&quot;,&quot;glyphIndex&quot;:2,&quot;word&quot;:1}"></path><path d="M263.61775,289.01673l-17.69151,-28.43431l-17.73414,28.43431h13.64165l3.62356,-5.7977h-6.82082l7.28976,-11.68066l10.87069,17.47836z" data-paper-data="{&quot;glyphName&quot;:&quot;A&quot;,&quot;glyphIndex&quot;:3,&quot;lastGlyphOfWord&quot;:true,&quot;word&quot;:1}"></path><path d="M308.16625,295.07021v-28.69009h7.97184l3.62356,-5.7977h-28.94587l3.58093,5.7977h7.97184v19.35409z" data-paper-data="{&quot;glyphName&quot;:&quot;T&quot;,&quot;glyphIndex&quot;:4,&quot;firstGlyphOfWord&quot;:true,&quot;word&quot;:2}"></path><path d="M343.84769,289.01673c4.77458,0 8.69655,-3.87934 8.69655,-8.65392v-11.08384c0,-4.81721 -3.92197,-8.69655 -8.69655,-8.69655h-11.55277c-4.81721,0 -8.69655,3.87934 -8.69655,8.69655v11.08384c0,4.77458 3.87934,8.65392 8.69655,8.65392zM343.84769,283.26166h-11.55277c-1.61995,0 -2.89885,-1.32153 -2.89885,-2.89885v-11.08384c0,-1.61995 1.2789,-2.89885 2.89885,-2.89885h11.55277c1.57732,0 2.89885,1.2789 2.89885,2.89885v11.08384c0,1.57732 -1.32153,2.89885 -2.89885,2.89885zM339.03048,276.73924c0.51156,0 0.98049,-0.4263 0.98049,-0.98049v-1.91836c0,-0.51156 -0.46893,-0.93786 -0.98049,-0.93786h-1.91836c-0.55419,0 -0.98049,0.4263 -0.98049,0.93786v1.91836c0,0.55419 0.4263,0.98049 0.98049,0.98049z" data-paper-data="{&quot;glyphName&quot;:&quot;O&quot;,&quot;glyphIndex&quot;:5,&quot;word&quot;:2}"></path><path d="M379.61438,289.01673c4.77458,0 8.69655,-3.87934 8.69655,-8.65392v-19.78039h-5.7977v19.78039c0,1.57732 -1.32153,2.89885 -2.89885,2.89885h-11.55277c-1.61995,0 -2.89885,-1.32153 -2.89885,-2.89885v-19.78039h-5.7977v19.78039c0,4.77458 3.87934,8.65392 8.69655,8.65392z" data-paper-data="{&quot;glyphName&quot;:&quot;U&quot;,&quot;glyphIndex&quot;:6,&quot;word&quot;:2}"></path><path d="M425.05812,295.07021l-10.82806,-17.35047h1.36416c4.73195,0 8.61129,-3.83671 8.61129,-8.56866c0,-4.68932 -3.87934,-8.52603 -8.61129,-8.52603h-20.46247l5.7977,9.29337v-3.5383h14.66477c1.53469,0 2.77096,1.2789 2.77096,2.77096c0,1.53469 -1.23627,2.77096 -2.77096,2.77096h-20.46247v17.09469h5.7977v-11.29699h6.43715l10.87069,17.35047z" data-paper-data="{&quot;glyphName&quot;:&quot;R&quot;,&quot;glyphIndex&quot;:7,&quot;lastGlyphOfWord&quot;:true,&quot;word&quot;:2}"></path></g><g data-paper-data="{&quot;fillRule&quot;:&quot;evenodd&quot;,&quot;fillRuleOriginal&quot;:&quot;evenodd&quot;,&quot;isIcon&quot;:true,&quot;iconStyle&quot;:&quot;standalone&quot;,&quot;selectedEffects&quot;:{&quot;container&quot;:&quot;&quot;,&quot;transformation&quot;:&quot;&quot;,&quot;pattern&quot;:&quot;&quot;},&quot;bounds&quot;:{&quot;x&quot;:193.5830288407998,&quot;y&quot;:165.2052505402341,&quot;width&quot;:162.83394231840035,&quot;height&quot;:72.4274089804751},&quot;iconType&quot;:&quot;icon&quot;,&quot;rawIconId&quot;:&quot;1b3e1542-a17d-49e1-8475-ce987a89b55c&quot;,&quot;isSvgStockIcon&quot;:true,&quot;combineTerms&quot;:&quot;animal,leopard&quot;,&quot;combineTermsExtended&quot;:{&quot;icon&quot;:[&quot;animal&quot;,&quot;leopard&quot;]},&quot;isDetailed&quot;:true,&quot;suitableAsStandaloneIcon&quot;:true}" fill-rule="evenodd"><path d="M212.504,174.77825c1.94682,-0.11514 3.76474,0.01952 5.39144,1.12072c-0.28606,-0.53048 -0.84642,-0.81494 -1.36872,-1.08028c-0.83128,-0.42211 -1.56633,-0.79542 -0.94681,-2.03287c0.64542,-1.28964 2.50299,-2.6504 3.86415,-3.08347c1.89622,-0.60279 6.09303,-0.91693 8.36355,0.1506c0.40438,0.25398 0.78366,0.54641 1.13765,0.86892c0.01176,0.01593 0.0255,0.03047 0.03705,0.04661l0.01932,0.00458c0.19243,0.17869 0.37928,0.36375 0.55359,0.56275c-0.07609,-0.15299 -0.14203,-0.31693 -0.21175,-0.47868l0.19821,0.04861c-0.10717,-0.12092 -0.22071,-0.23407 -0.33725,-0.34382c-0.10578,-0.20279 -0.23287,-0.38685 -0.41673,-0.51793l-0.59203,-0.25159c-0.59224,-0.48486 -1.22928,-0.8512 -1.89662,-1.13586c0.65578,-0.26813 1.29183,-0.63944 2.08147,-1.08207c1.48108,-0.83028 2.9749,-1.01673 4.72431,-0.86315c3.35439,0.29482 6.93008,1.76553 9.60179,3.76933c1.99303,1.49482 3.77929,2.96215 4.69044,5.26335c0.92192,2.32789 1.13506,4.58347 1.02391,7.14961l0.19442,0.32112c0.15897,-3.67092 0.08307,-6.93208 -1.96136,-10.08387c-1.98725,-3.06395 -5.10677,-4.23267 -8.29164,-5.75199c-0.20458,-0.09761 -0.41494,-0.1998 -0.63028,-0.30439c-2.14223,-1.04064 -4.76972,-2.31713 -7.08586,-1.71375c-1.91156,0.49801 -3.44622,1.99781 -5.19861,2.98028c-0.35876,-0.11474 -0.72371,-0.21215 -1.09423,-0.29422c-1.48108,-0.32769 -2.48367,-0.21593 -3.9261,0.12949c-3.27371,0.78387 -6.22192,2.44642 -9.20379,4.02909c-1.81335,0.96235 -3.54004,1.69601 -5.08766,2.96933c0.1492,-0.10777 0.31912,-0.18626 0.49721,-0.25259c1.07508,-0.19223 2.37413,-0.16414 3.62305,-0.13725h0.00016c0.79293,0.01713 1.56544,0.03386 2.24771,-0.00657zM229.75839,167.78023c0.56932,-0.16952 1.10618,-0.35199 1.71395,-0.41195c1.66076,-0.16414 2.87351,0.18247 4.23606,1.10717c-0.13466,0.05199 -0.29343,0.10677 -0.46633,0.16653c-1.11793,0.38566 -2.82331,0.9743 -2.39383,2.30996c0.05637,0.1753 0.1251,0.35418 0.19482,0.53526c0.29781,0.77331 0.61056,1.58606 0.0259,2.33327c-0.29701,-0.49223 -0.37271,-0.98247 -0.80319,-1.39921c-0.36055,-0.349 -0.88506,-0.52709 -1.19721,-0.90219l-0.47032,-0.36773c-0.33546,-1.31952 -1.47928,-1.98785 -2.66893,-2.42092c0.31235,-0.67988 1.20299,-0.76375 1.82908,-0.9502zM240.63808,170.59896c-0.55916,-0.41694 -1.48685,-1.53127 -2.17231,-1.53705l-0.75618,-0.17151c-0.04821,1.33008 0.5253,2.24143 1.33307,3.24821c0.98446,1.22709 1.70538,2.77589 2.4245,4.18088c0.76335,-1.10199 1.0249,-3.04981 0.48406,-4.32889c-0.26016,-0.61574 -0.78387,-0.99702 -1.31315,-1.39164zM248.00602,173.36151c-0.24283,-2.23845 6.01614,-2.04343 8.76375,-1.95777c0.43845,0.01374 0.78745,0.0245 1.00638,0.02231c1.98267,-0.02032 3.94582,0.21115 5.88865,0.53905c-0.0731,0.01992 -0.14641,0.03865 -0.21873,0.06096c1.69283,0.34881 3.39721,0.62431 5.10797,0.88367c0.26992,0.05378 0.53944,0.10677 0.80857,0.15857c3.4745,0.66932 6.50598,1.57112 10.0508,1.78865c4.78825,1.20438 9.21195,2.76236 13.802,4.56534c3.6749,1.44363 7.4779,2.66833 10.90399,4.66594c2.91893,1.70219 5.67729,3.78566 8.07212,6.18227c1.29781,1.29901 2.29223,2.87171 3.45299,4.28147c0.49223,0.59761 1.13267,1.24781 1.65399,1.9492c0.27988,0.67789 0.63685,1.59881 0.96036,2.32829c1.19403,3.41793 1.84124,7.29144 2.8263,10.54363c1.29801,4.28427 3.28765,8.86375 5.8012,12.75359c4.41076,6.8257 16.82551,13.26754 23.10699,5.15937c1.92271,-2.48207 3.13566,-6.59861 1.41275,-9.37809c-1.44841,-2.33626 -6.01853,-5.12331 -8.70877,-4.12709l-0.84363,0.24103c1.88427,-0.50917 4.57331,0.71474 6.17948,1.69083c1.69243,1.02869 2.76196,2.88088 2.95119,4.81494c0.4255,4.34701 -2.97231,8.18168 -7.16196,8.96355c-10.7779,2.01096 -17.73766,-9.33646 -20.8534,-17.84563c-1.04283,-2.84861 -1.91614,-5.45857 -2.73805,-8.28128c-0.41454,-1.42351 -1.09642,-2.84363 -1.82789,-4.40419c-0.72729,-3.16056 -2.60817,-6.1514 -4.54761,-8.7759c-1.49144,-2.01833 -3.41693,-3.73666 -5.37331,-5.36016c-0.05199,-0.04362 -0.10418,-0.08665 -0.15638,-0.12988c-0.70378,-0.58187 -1.40996,-1.15239 -2.1002,-1.72032c-2.03427,-1.67431 -4.35976,-2.97211 -6.80678,-4.01534c-1.36255,-0.58107 -2.71714,-1.23168 -4.11753,-1.71454c-1.13665,-0.39184 -3.18566,-1.20558 -4.28566,-1.46156l-1.90876,-0.17172c-0.97888,-0.19064 -1.96892,-0.34123 -2.97171,-0.45c-8.03626,-1.43366 -15.9516,-3.21793 -24.0787,-4.61594c-3.57092,-0.61414 -7.19741,-1.08845 -10.86694,-1.0753c-1.09343,0.00398 -2.42092,-0.07769 -3.77311,-0.16095c-1.78367,-0.10976 -3.60996,-0.22211 -4.99761,-0.14403c1.92431,0.03905 4.79502,2.61913 5.58726,4.19701zM236.27533,169.60274c-0.67052,0.25797 -1.53167,0.19382 -1.8986,0.87889c-0.31195,0.58267 0.06534,1.58586 0.30817,2.18685c0.23346,0.57709 0.50976,1.1249 1.06116,1.43307c0.58227,0.3255 1.28207,0.24402 1.8498,0.61654l1.09084,0.46395c-0.23306,-1.22949 -0.77968,-2.48486 -1.51554,-3.48347c-0.52968,-0.71912 -0.59801,-1.32749 -0.89581,-2.09582zM228.26775,171.08242c-0.35916,-0.21713 -0.67411,-0.42769 -1.08586,-0.50458l-0.66395,-0.33008c-0.13864,-0.03327 -0.2751,-0.06634 -0.40996,-0.09921c-1.64841,-0.4004 -3.03307,-0.73686 -4.76514,-0.26275c0.33107,0.87172 0.99841,0.87231 1.74542,1.24781c0.77949,0.39203 1.16235,0.96076 1.59004,1.64562c-0.13247,-1.70538 2.39243,-2.09004 3.58945,-1.69681zM223.77054,172.76649l-1.31494,-0.96136c-0.42749,-0.84701 -2.38706,-1.42112 -3.19163,-1.13685c-0.92948,0.32869 -2.35937,0.96912 -2.65538,1.98407c0.64123,-0.28865 2.049,0.05976 2.52909,0.50479c0.75677,-0.99681 3.79204,-0.8002 4.63287,-0.39064zM246.05103,175.48382c-0.34443,-0.75717 -1.1751,-2.69681 -2.11534,-2.85179l-0.66932,-0.58466c-0.11613,-0.36992 -0.68127,-0.72112 -1.0516,-0.81235c0.61972,0.69223 0.82549,1.84482 0.82909,2.74343c0.00279,0.67052 -0.11215,1.23387 -0.29124,1.86912c-0.02689,0.09522 -0.07112,0.20438 -0.11792,0.32012c-0.13207,0.32629 -0.28526,0.70438 -0.12829,0.96933c0.12928,0.21833 0.94004,0.41534 1.19462,0.55359c0.56634,0.30697 1.11355,0.69164 1.54581,1.1759c1.16115,1.3008 1.52988,2.69442 2.1755,4.24283c0.55657,-1.34263 0.13326,-3.16355 -0.25578,-4.52212c-0.30618,-1.06953 -0.65379,-2.08845 -1.11553,-3.10339zM232.28688,177.05713l0.051,-1.17829c-0.46992,-1.35378 -2.25259,-3.45319 -3.7267,-3.77371c-0.90757,-0.19721 -1.88546,0.73207 -2.60757,1.41832c-0.12669,0.12052 -0.24562,0.23346 -0.35478,0.33147c1.05,0.84024 2.31594,1.6996 3.04203,2.85359c0.96056,1.5261 1.52231,3.33705 1.73645,5.12112c1.08565,-0.8496 2.29781,-3.38307 1.85956,-4.77252zM260.60961,173.2151l0.38885,0.64183c-3.82869,-0.16574 -9.64981,1.60498 -9.34981,6.64622c-0.39741,-2.39462 -1.25857,-4.54562 -2.22032,-6.73307c3.31155,-1.67391 7.59264,-1.36295 11.18128,-0.55498zM216.4038,173.63482c-0.19422,0.56494 0.50717,0.89362 1.07889,1.16155c0.20857,0.09761 0.3998,0.18725 0.52411,0.27729c0.00099,-0.2753 0.14701,-0.4749 0.41335,-0.57928l-0.20617,-0.46115c-0.06514,-0.70976 -1.52749,-1.22132 -1.81016,-0.39841zM202.06276,179.22506c0.26813,-0.61654 0.59302,-1.22371 0.75857,-1.88904c0.39323,-1.58207 -1.01833,-2.76873 -2.39084,-3.39821c1.30976,0.45737 2.44542,1.1249 3.29482,2.1749c0.7998,-0.28984 1.4753,-0.6753 2.33705,-0.80897c0.68285,-0.10597 2.06403,-0.00717 3.2145,0.0751c0.59443,0.04263 1.12725,0.08068 1.47036,0.08387c0.96594,-0.28347 3.24443,-0.0004 4.24283,0.18367c0.57749,0.10637 1.12132,0.28785 1.70777,0.351c0.26952,0.00936 0.51594,-0.00777 0.6996,-0.07729l0.45139,0.01952c0.64701,-0.35438 1.23546,-0.94423 1.88008,-1.31773c0.79323,-0.45976 1.59322,-0.73646 2.43865,-0.97271c-0.90856,0.45896 -1.66116,0.79542 -2.43028,1.46793c-0.69482,0.60737 -1.27709,1.21594 -1.86175,1.91056c-0.58307,0.69263 -1.21235,1.33984 -1.76076,2.04343c-0.73466,0.94283 -0.38705,1.36374 0.35797,2.11514c-0.71813,-0.39721 -1.42968,-1.10398 -1.19522,-2.0243c0.17111,-0.67251 1.36355,-1.20996 1.42709,-1.8008c0.06335,-0.58486 -1.16494,-1.04123 -2.31573,-1.38128c-1.73346,-0.2267 -3.81554,-0.2504 -5.27371,1.051c-0.63307,0.56514 -1.97092,2.60578 -2.58746,3.59422c0.47609,-0.86873 0.89581,-2.01355 1.18327,-2.86654c0.28068,-0.83247 0.41235,-1.22749 0.7249,-1.48586l-0.03247,-0.00398c-1.48496,-0.18486 -3.37126,-0.41932 -4.3998,0.5253c-0.60657,0.55737 -0.78227,1.29123 -1.04622,2.01255c0.2241,-0.27789 0.48048,-0.53028 0.66733,-0.72609c0.61534,-0.64482 1.48386,-1.33765 2.41992,-1.06793c1.20737,0.34781 0.71275,1.36275 0.18944,2.15598c-0.53187,0.80638 -1.08825,1.69502 -1.34602,2.65399c-0.14561,0.54143 -0.23327,1.1731 -0.20099,1.74323c0.02809,0.5004 0.27609,0.94343 0.33366,1.42769l-0.39741,0.03905c-1.06395,-0.00318 -2.24064,-0.83925 -2.61932,-1.80917c-0.42151,-1.08028 0.50219,-2.72869 1.82331,-2.45478c-0.32271,0.32789 -0.88566,0.94263 -0.26414,1.27988c0.70458,0.38287 0.8751,-0.55996 0.89522,-1.03645l0.00146,-0.03386c0.02202,-0.50976 0.06775,-1.56873 -0.42974,-1.83566c-0.43885,-0.23566 -1.4006,0.34183 -1.55917,0.749c-0.0007,-0.01593 0.00016,-0.03207 0.00102,-0.04801c0.00036,-0.00697 0.00074,-0.01395 0.00098,-0.02092c-0.27649,0.48247 -0.61474,0.98128 -0.90737,1.3257c0.25637,-0.58685 0.2247,-1.29721 0.49721,-1.92311zM263.73809,173.67585c-0.82311,1.14343 -2.21056,1.6494 -3.11853,2.68506c0.23247,0.72411 1.15597,1.07151 1.76395,1.41016c0.91713,0.51056 1.86335,1.21215 2.75598,1.64223c-0.04263,-0.86673 0.55618,-1.74602 1.14661,-2.61295c0.4233,-0.62151 0.84243,-1.23685 1.01793,-1.83705l0.65976,-0.80458c-0.77052,-0.06355 -1.52769,-0.26713 -2.30538,-0.33147c-0.19343,-0.01593 -0.40916,-0.01435 -0.63048,-0.01275c-0.45199,0.00339 -0.92809,0.00677 -1.28984,-0.13864zM272.32356,174.96988c0.2504,0.03606 0.58805,0.14561 0.9498,0.26295c0.71434,0.23167 1.52251,0.49362 1.93745,0.28108c-0.02211,-0.11634 -0.06075,-0.10597 -0.10697,-0.09363c-0.03426,0.00936 -0.07271,0.01952 -0.11135,-0.01992l-0.70518,-0.5514c-0.79681,-0.84382 -2.77072,-0.89143 -4.25259,-0.92729c-0.36295,-0.00877 -0.69621,-0.01673 -0.9755,-0.03566c-0.03546,0.2257 -0.02092,0.69143 0.03745,0.93068c1.0496,-0.04801 2.15717,-0.0008 3.2269,0.15319zM198.64383,175.11689c0.81255,-0.54582 1.96355,0.1002 2.46634,0.80498c0.84741,1.18825 0.66275,2.78885 0.2747,4.05239c-0.16275,0.53068 -0.32928,0.54403 -0.84661,0.49761c0.34243,0.4994 1.12868,0.32988 1.12988,-0.29661l-0.05558,-0.45478c0.38546,-0.54522 0.53048,-1.00359 0.59184,-1.67848c0.00596,-0.06514 0.01265,-0.13326 0.01958,-0.20358c0.05275,-0.53606 0.11827,-1.20219 -0.03353,-1.67291c-0.20219,-0.62669 -0.99183,-1.07231 -1.48347,-1.46056c-0.41175,-0.3251 -0.93964,-0.71115 -1.48128,-0.78008c-1.87171,-0.23825 -1.41036,2.37689 -1.12371,3.36912c-0.00072,-0.02271 -0.0015,-0.04581 -0.00227,-0.06933c-0.02207,-0.66713 -0.05637,-1.70438 0.5441,-2.10777zM220.58648,184.08184c0.42908,0.23725 0.7765,0.70139 0.59104,1.14024c-0.2994,0.70856 -1.33905,0.71115 -1.96992,0.68725c-0.24821,-0.00936 -0.58446,-0.06315 -0.96116,-0.12331c-1.1731,-0.18765 -2.73944,-0.43825 -3.27132,0.39243l-0.06872,-0.15398c0.55418,-0.74084 2.27689,-0.64223 3.12988,-0.82709c0.91554,-0.1988 1.71474,-0.34403 2.0986,-1.26953c0.04482,0.00538 0.09024,0.01494 0.13606,0.02689c-0.9498,-0.81016 -1.90937,-1.58686 -2.79243,-2.5002c-0.34662,-0.35857 -0.92769,-0.87251 -0.95717,-1.38964c-0.03307,-0.58287 0.37471,-1.08466 0.73646,-1.53028c0.07649,-0.09402 0.1508,-0.18566 0.21852,-0.2749c0.40916,-0.53964 0.76335,-1.0998 1.22888,-1.59741c0.48785,-0.52131 1.11952,-0.88885 1.63326,-1.37889c0.48805,-0.46534 0.94124,-0.84761 1.59841,-1.06135c0.47012,-0.15279 1.24342,-0.39382 1.73227,-0.17012c0.45099,0.20617 0.86195,0.97888 1.01215,1.42888c0.19901,0.59761 0.20956,1.07012 0.00219,1.66952c-0.27112,0.78287 -0.9239,1.53466 -1.53307,2.09542c-0.11394,-0.51235 0.07609,-0.98944 0.26494,-1.46335c0.101,-0.25339 0.20139,-0.50557 0.25498,-0.76175c0.12291,-0.58944 0.17191,-1.51932 -0.49282,-1.84164c-1.47629,-0.71534 -3.25638,1.35856 -4.02032,2.35996c-0.80418,1.05358 -1.53904,2.55837 -0.76195,3.81275c0.63028,1.01713 1.46913,1.80458 2.19124,2.73008zM251.26358,182.31151c0.23645,-1.51136 -0.27908,-5.28865 -1.61872,-6.03008l-0.68705,-0.96693c-0.17311,-0.26713 -0.39661,-0.49462 -0.66235,-0.64323c0.67032,1.79761 1.19044,3.11833 1.30478,5.04562c0.00976,0.16354 0.02112,0.33287 0.03267,0.50658c0.10498,1.56454 0.23386,3.48487 -0.58705,4.78626c1.26753,1.3016 2.09403,-1.90498 2.21773,-2.69821zM236.52354,175.43542l1.83207,0.98208c0.03705,0.26414 0.08128,0.50976 0.12391,0.74562c0.14662,0.81474 0.27271,1.51494 0.01435,2.47152c-0.21733,0.80339 -0.60358,2.18745 -1.4241,2.42092c-0.40897,0.11653 -0.90099,0.08068 -1.39283,0.04502c-0.40836,-0.02988 -0.81653,-0.05936 -1.17669,-0.00199c-0.02052,0.00318 -0.04204,0.00677 -0.06454,0.01036c-0.54881,0.08884 -1.67072,0.27032 -2.05757,-0.18367c0.46873,-0.54641 1.18467,-0.94462 1.70697,-1.45916c0.70378,-0.69322 0.97231,-1.61036 1.08386,-2.5755c0.10797,-0.93466 -0.13307,-1.65598 -0.38546,-2.41136c-0.08068,-0.24164 -0.16255,-0.48685 -0.23466,-0.74343c0.60518,0.27928 1.30617,0.5249 1.9747,0.6996zM259.06877,175.12744c-2.58088,0.35079 -4.01494,1.50379 -4.78864,4.14163c-0.29921,1.01992 -0.91016,3.4741 0.70816,3.49283c0.23984,0.00279 0.80379,-0.26494 1.28028,-0.49143c0.25817,-0.12251 0.49063,-0.23287 0.63148,-0.28127c0.88008,-0.30199 1.71076,-0.64642 2.43108,-1.25219c-1.18944,-1.92869 -0.72411,-3.83905 0.57391,-5.67749zM270.33989,179.59259c-1.37868,0.60757 -2.76554,1.21872 -4.31654,1.13227c0.42132,-1.85916 1.83506,-3.3259 2.10518,-5.18925c0.07829,-0.0008 0.15737,-0.0016 0.23765,-0.00239c1.69801,-0.01773 3.81315,-0.04004 5.34283,0.64502l0.38885,0.64163c-0.31534,0.49681 -0.57211,1.09761 -0.71494,1.7245c-1.0496,0.16972 -2.04402,0.60817 -3.04303,1.04821zM228.8307,181.42088c-0.1494,-1.27271 -0.54163,-3.23108 -1.41634,-4.08845l-0.7986,-0.79841c-0.1745,-0.42071 -0.58845,-0.76036 -0.99382,-0.93686c0.7743,1.11912 0.89542,2.35737 0.66395,3.69682c-0.26176,1.51554 -0.33625,3.11435 -1.49502,4.22968c1.1259,0.34323 2.35876,0.39363 3.48706,0.8506c0.09721,-0.53227 0.48087,-0.94103 0.61414,-1.43805c0.10757,-0.40099 0.04602,-0.79721 -0.01374,-1.18128c-0.01753,-0.11255 -0.03466,-0.2239 -0.04761,-0.33406zM200.34961,177.66869c0.56215,1.24622 -1.24641,1.03925 -0.66574,0.15897c-1.39004,0.80179 0.37072,1.9261 1.1251,2.28585c0.10221,-0.11135 0.09042,-0.20837 0.08265,-0.27231l-0.00018,-0.00139l0.18147,-0.2749c0.3737,-0.97849 0.01235,-2.51933 -0.64502,-3.30518c-0.96275,-1.1504 -2.47849,0.15379 -1.63287,1.15159c-0.20299,-1.06275 1.33407,-0.23127 1.55458,0.25737zM281.15623,179.72705c0.38546,-0.85419 1.76475,-0.77869 2.45219,-1.24542l-0.18566,-0.52888c-2.41773,-1.16614 -4.52888,-1.81713 -7.18327,-2.06594c-0.44402,1.23645 -1.34143,2.29443 -1.71753,3.52908c1.82091,1.35777 4.15219,2.31255 6.08048,3.53127c0.58088,-0.44243 0.51992,-1.14124 0.45896,-1.83905c-0.04283,-0.49063 -0.08566,-0.98088 0.09482,-1.38108zM222.30301,181.09518c0.21932,-0.51674 0.19482,-1.1755 -0.06673,-1.68765c-0.29422,-0.57589 -1.06215,-0.97171 -0.97769,-0.00279c0.06693,-0.79601 1.13566,-0.07928 0.64741,0.55518c-0.46554,0.60498 -1.37171,-0.04283 -1.43566,-0.62888c-0.13168,-1.20279 1.88427,-3.18128 2.67829,-1.71275c0.07291,-0.75797 -0.20419,-1.42629 -1.01454,-1.43705c-0.90319,-0.01215 -1.65657,0.76674 -2.08825,1.49223c-0.81534,1.36972 -1.32969,3.54881 0.17869,4.75598l0.31394,0.57888c0.21175,0.28865 0.46435,0.61673 0.76215,0.80319c-0.02689,-0.10597 -0.05797,-0.20757 -0.08825,-0.30597c-0.13048,-0.4253 -0.24343,-0.79283 0.08924,-1.21455c0.31872,-0.40438 0.78247,-0.67988 1.0014,-1.19582zM215.76834,177.37546c0.19781,-1.12012 -1.45299,-1.10936 -2.23148,-1.10438c-0.01892,0.0002 -0.03725,0.0002 -0.05518,0.0004c-1.93785,0.01096 -4.51733,1.43646 -5.51992,3.14004c-0.33646,0.57191 -0.49681,1.251 -0.67789,1.88267c-0.14662,0.51056 -0.41175,0.95837 -0.6257,1.45239c-0.21414,0.49522 -0.4008,1.0241 -0.47729,1.56195c-0.10159,0.71514 0.01713,0.81434 0.54363,0.47411c0.8512,-0.54961 1.75398,-0.88666 2.81275,-0.89402c0.29247,-0.00219 0.61822,0.04642 0.95297,0.09641c0.80162,0.11932 1.6536,0.24642 2.21835,-0.29821l-0.03685,-0.45379c0.50996,-0.69124 -0.15179,-1.96395 -0.62431,-2.51714c-0.64861,-0.76016 -2.08964,-0.68008 -2.06534,0.5257c0.04084,-0.46016 0.75956,-0.36135 0.95239,0.00717c0.21793,0.41654 -0.17888,1.07889 -0.5494,1.26474c-1.60618,0.80518 -1.88805,-1.73944 -1.18805,-2.65438c0.74542,-0.97411 2.46893,-1.65638 3.68606,-1.47789c0.7002,0.10239 1.09761,0.39622 1.38088,1.03586c0.23645,0.53446 0.23745,1.1753 0.86574,1.38427c-0.15678,-0.3022 -0.43626,-0.59044 -0.51912,-0.92968c-0.1241,-0.50976 0.05359,-0.92948 0.31474,-1.33188c0.23685,-0.36434 0.76394,-0.71773 0.84303,-1.16434zM224.46138,178.17645l-0.1249,0.48068c-0.41335,0.60657 -0.82271,1.2741 -0.98625,1.97111c-0.17928,0.76434 -0.15956,1.59183 -0.53805,2.29921c0.31116,-0.5745 0.8006,-1.15917 1.16335,-1.7516c0.44263,-0.72231 1.03107,-2.18367 0.48586,-2.9994zM245.69605,183.56829c-0.6759,-1.60877 -1.62988,-3.64801 -3.25558,-4.47411l-1.31554,-0.89024c0.59701,1.31215 -0.12769,2.71912 -0.81833,4.05977c-0.39502,0.76693 -0.77888,1.51215 -0.89781,2.20578c1.98785,-0.79462 4.14861,-0.76972 6.28725,-0.9012zM264.713,184.22506c-0.22849,-1.34463 -2.22908,-6.18686 -4.0255,-5.59064l-0.41135,-0.12191c0.4255,0.95518 1.06156,1.80319 1.22949,2.86355c0.16315,1.02808 -0.1498,2.05817 -0.45877,3.0749c-0.23446,0.77211 -0.46654,1.53645 -0.48646,2.28665c0.9504,0.12211 3.18705,0.14084 3.96952,-0.46633c0.53147,-0.41255 0.41514,-0.94681 0.2755,-1.58745c-0.03207,-0.14741 -0.06554,-0.3004 -0.09243,-0.45877zM290.63712,179.72346l-1.54143,-0.48327c-0.76354,-0.43188 -2.45658,-1.05797 -3.10677,-0.15797c1.01613,0.43267 1.9763,0.73725 2.81953,1.49721c1.17928,1.06275 2.82729,3.43785 4.41395,3.9484c0.1259,0.04044 0.22132,0.07769 0.29622,0.10677c0.12171,0.04741 0.18964,0.07371 0.24821,0.06016c0.09442,-0.02191 0.16474,-0.14761 0.39562,-0.45717c0.36554,-0.48984 0.63824,-2.09243 0.35717,-2.60299c-0.50996,-0.9263 -2.83108,-1.9759 -3.88247,-1.91116zM267.311,187.24598c0.89124,-0.36634 2.91893,-0.64064 3.49104,-1.50737c0.35717,-0.54163 -0.75298,-2.11972 -1.3506,-2.58327c-0.86155,-0.66833 -2.28406,-0.15578 -3.22888,-0.71155c-1.1016,-0.64761 -1.51614,-2.1008 -2.45239,-2.84243l-0.11295,0.20339c0.84622,0.94482 1.1763,2.24124 1.73028,3.40777c0.61195,1.28944 1.61375,2.51534 1.92351,4.03347zM202.21276,197.38304c-0.80717,-1.07012 -0.80678,-2.42889 -0.29303,-3.63048c0.44542,-1.04223 0.88845,-2.00917 1.10239,-3.11773c0.21056,-1.09263 0.0751,-2.3741 -0.38048,-3.36933c-0.20239,-0.44203 -0.68047,-0.93327 -1.15479,-1.13646c-0.43785,-0.18785 -1.52908,-0.2494 -1.89243,0.12311c0.02962,-0.501 0.19978,-1.0006 0.37026,-1.50099c0.25954,-0.76215 0.51984,-1.5263 0.28612,-2.30079l-0.32909,-0.24064c-0.69661,-0.28167 -1.07351,-1.83467 -0.43486,-2.3514c0.04456,0.11415 0.03835,0.23188 0.03203,0.35119c-0.0037,0.07012 -0.00745,0.14084 -0.00095,0.21175c0.05917,0.6488 0.19363,1.06614 0.68047,1.49821c0.37829,0.33566 1.09243,0.49084 1.2,1.03187c0.05703,0.28745 -0.06127,0.5773 -0.1786,0.86454c-0.12329,0.3018 -0.24552,0.6012 -0.16223,0.89263c0.06534,0.22908 0.36534,0.68765 0.94124,0.88885c0.58446,0.20438 1.10777,0.77709 1.41116,1.32371c0.33625,0.60617 0.34542,1.15717 0.47908,1.8004c0.1498,0.71933 0.09841,1.42949 -0.00916,2.16753c-0.10478,0.71972 -1.19403,1.89821 -1.44721,2.96135c-0.00713,0.02988 -0.0155,0.06355 -0.02466,0.1002c-0.17759,0.71295 -0.6599,2.64901 1.49876,3.28008c0.56753,0.16594 2.69881,-0.30637 3.1253,-2.55937c0.07109,-0.3751 -0.06942,-0.92889 -0.20068,-1.44622c-0.09012,-0.35518 -0.17588,-0.69322 -0.18578,-0.94442c-0.01494,-0.38765 -0.01454,-0.84004 0.01593,-1.22431c0.01713,-0.21932 0.18048,-0.64004 0.35538,-0.95239c0.00241,-0.01355 0.00486,-0.0271 0.00731,-0.04064c0.02038,-0.11235 0.04037,-0.22271 0.03433,-0.34641l0.05538,-0.41215c0.04642,-1.30936 0.67889,-2.37012 1.65558,-3.19841c0.48048,-0.40757 1.04144,-0.42071 1.63566,-0.57072c0.46673,-0.11773 0.91136,-0.1237 1.37311,-0.13008c0.19363,-0.00259 0.39024,-0.00518 0.59283,-0.01614c0.13187,-0.00737 0.31195,-0.03267 0.45637,-0.07072v-0.0247c0.41255,-0.1257 0.39243,-0.68944 0.3749,-1.17968c-0.00936,-0.26155 -0.01793,-0.50219 0.04024,-0.64422c0.96872,0.19303 0.88605,2.24462 -0.05518,2.5741c-0.38725,0.24024 -1.01135,0.15897 -1.41056,0.10677l-0.00219,-0.0002c-1.14322,-0.1492 -2.45618,-0.15897 -2.99662,1.04044c-0.26235,0.58227 -0.56733,1.08267 -0.88167,1.61872c-0.18466,0.31554 -0.46435,0.67271 -0.6767,1.00339c-0.24581,0.66873 -0.50439,1.72869 -0.30518,2.38546c0.07028,0.23227 0.16661,0.45817 0.26275,0.68346c0.1848,0.43346 0.36897,0.86514 0.36634,1.33805c-0.00617,1.22391 -0.68188,2.4488 -1.61335,3.2502c-0.94522,0.81354 -2.9249,0.96355 -3.71753,-0.08745zM279.64946,183.30973l-3.27251,-1.39183c-1.2486,-1.60717 -1.92789,-2.15638 -3.78207,-1.59343c-1.15698,0.35119 -2.71554,0.84184 -3.61076,1.56574c1.47928,0.28366 3.16434,1.63845 4.14781,2.68625c1.2496,-0.46633 2.61793,-0.99104 3.98387,-1.06992c0.21713,-0.01235 0.48725,0.00697 0.77271,0.02749c0.66295,0.04761 1.40817,0.10119 1.76096,-0.2243zM282.67217,183.63104c0.16295,-0.93825 0.38347,-2.6488 1.27111,-3.26215c1.20438,-0.83207 2.45996,0.58287 3.36534,1.60338c0.18147,0.20458 0.349,0.39342 0.4992,0.54502l1.01255,0.66873c-1.01275,1.23805 -2.54841,2.70319 -3.78406,3.67909c0.08366,-1.48247 -1.06514,-2.64522 -2.36414,-3.23407zM206.52771,180.62486c-0.15139,0.24283 -0.25996,0.42311 -0.30319,0.50119c0.10298,-0.15139 0.20419,-0.32072 0.30319,-0.50119zM214.06356,181.46032c-0.0263,0.49642 -0.0502,0.94801 0.21414,1.49044c0.05339,0.10976 0.10936,0.21593 0.16434,0.32051c0.29164,0.55418 0.55857,1.06135 0.29303,1.78665c0.45618,-0.58885 1.1986,-0.51973 1.95538,-0.44941c0.70279,0.06534 1.41793,0.13187 1.92729,-0.32649l-0.20617,-0.46096c0.10079,-1.17211 -1.08327,-1.52271 -2.25159,-1.86853c-0.90837,-0.26893 -1.80717,-0.53506 -2.08466,-1.18227c0.01176,0.24621 -0.0002,0.47231 -0.01176,0.69004zM259.77515,182.8655l0.0271,-0.6237c0.01016,-0.19661 0.01136,-0.34482 -0.10797,-0.51474c-1.36355,0.91494 -3.49562,0.92112 -4.75399,2.15339c-0.84861,0.83147 0.04223,1.65498 0.87211,2.42211c0.05458,0.0504 0.10876,0.1006 0.16215,0.1504c0.91833,0.85697 1.75319,1.649 2.79721,2.37351c-0.00538,-0.3004 -0.03087,-0.6002 -0.05658,-0.90219c-0.04621,-0.54323 -0.09323,-1.09363 -0.0243,-1.66853c0.14502,-1.21116 0.80817,-2.251 1.08426,-3.39024zM254.89785,186.60693c0.78964,1.71892 0.88825,3.33387 0.01654,5.07291c-0.96933,-0.88885 -1.93626,-1.48347 -2.98566,-2.28008c0.97271,-2.05418 1.99383,-4.91653 0.47451,-7.06216l0.80458,0.65976c0.04701,1.28466 1.16434,2.46614 1.69004,3.60956zM233.7084,186.82208c1.01196,0.38586 2.01793,0.75439 2.68008,1.66255c0.1004,-0.852 0.12968,-1.40877 0.60518,-2.13267c0.3502,-0.53307 0.81913,-0.96793 0.93247,-1.62091l0.03148,-0.72749c-2.24721,-1.86793 -3.01514,-0.02988 -3.72211,1.66196c-0.17231,0.41295 -0.34123,0.81713 -0.52709,1.15658zM303.96162,191.92945c-1.5016,-2.70299 -4.52511,-4.98168 -7.44363,-6.04523c0.61494,-1.01534 1.40956,-1.94323 2.34761,-2.62211c2.4004,1.0737 4.53586,2.21036 6.76056,3.72889l-0.27769,1.38745c-0.53765,1.12451 -0.72829,2.3996 -1.38686,3.551zM232.97174,183.68343l-0.51992,-0.02251c-1.56773,-1.29343 -1.94841,1.52172 -2.13765,2.92112c-0.02828,0.20916 -0.05219,0.38666 -0.0753,0.51414c1.01574,-0.3737 3.64781,-2.02171 2.73287,-3.41275zM215.74863,197.02686c0.5245,-0.15458 1.08227,-0.28765 1.60378,-0.49562c1.27769,-0.50956 2.46833,-1.31852 3.55976,-2.13606c0.6767,-0.50698 1.23227,-1.06992 1.39602,-1.95478c0.14641,-0.78904 0.13705,-1.6737 0.10637,-2.47291c-0.03785,-0.98088 -0.11076,-1.99183 -0.20179,-2.97769c-0.03068,-0.33366 -0.03785,-0.68745 -0.04502,-1.04622c-0.01454,-0.71673 -0.02929,-1.45339 -0.23386,-2.08865c-0.18207,0.48048 -0.14283,1.01613 -0.10458,1.54124c0.00837,0.11255 0.01654,0.2245 0.02251,0.33546c0.03944,0.73725 -0.04143,1.48307 -0.12191,2.2243c-0.03087,0.28426 -0.06175,0.56793 -0.08566,0.8502c-0.12151,1.43147 -0.26833,2.67092 -1.17948,3.78924c-0.2753,0.33765 -3.05857,2.64124 -3.7506,2.9757c-0.04761,0.02311 -0.09602,0.04642 -0.14462,0.07012c-0.64004,0.31135 -1.36673,0.66494 -2.06096,0.60777c-0.60498,-0.0498 -1.44044,-0.16076 -1.89781,-0.59681c0.35219,0.47231 0.76554,0.91853 1.05379,1.44382c0.36016,0.65638 0.24283,1.34661 -0.03825,2.02152c-0.15219,-0.03207 -0.30458,-0.06115 -0.45737,-0.08646c-0.00598,-0.09243 -0.02411,-0.18346 -0.05757,-0.27152l-0.64801,-1.57331c0.01155,0.31315 -0.04024,1.03347 -0.14382,1.74163c-0.91554,-0.07032 -1.83486,-0.00418 -2.74382,0.2494c-0.09044,0.0251 -0.10219,0.18127 0.00717,0.17869c0.17121,-0.00398 0.3407,-0.00857 0.50874,-0.01295h0.0004c0.74045,-0.01932 1.45301,-0.03805 2.16277,-0.01553c-0.08207,0.45817 -0.18626,0.8749 -0.30916,1.12809c-1.06773,-0.27789 -2.18885,-0.43666 -3.35339,-0.47291c-0.09382,-0.00299 -0.10797,0.13387 -0.01374,0.14561c1.10239,0.13805 2.18207,0.28307 3.24004,0.51973c-0.00179,0.00179 -0.00358,0.00418 -0.00518,0.00578c-0.38745,0.36116 -0.91713,0.64104 -1.43187,0.85817c-0.78665,-0.2749 -1.63326,-0.4237 -2.53287,-0.42092c-0.05518,0.0002 -0.06494,0.08446 -0.00817,0.08686c0.83327,0.03426 1.61096,0.17869 2.33646,0.41833c-0.06952,0.02749 -0.13864,0.05418 -0.20638,0.07928c-1.37868,0.51275 -2.33845,0.63864 -3.6257,0.18207c-0.41534,-0.14741 -1.09004,-0.72789 -1.57271,-1.06474c0.0267,-0.17908 0.02436,-0.36314 0.02203,-0.54841c-0.0038,-0.3014 -0.00767,-0.60617 0.11323,-0.89781c0.19134,-0.46155 0.76703,-0.51235 1.26831,-0.55657c0.16259,-0.01414 0.31735,-0.02789 0.44862,-0.05458c0.33067,-0.39403 0.60777,-0.87969 0.70179,-1.39103c-0.90339,0.47868 -1.79442,1.13307 -2.87092,1.15299c-1.08108,0.01972 -2.48406,-0.10578 -3.16613,-1.06873c-0.66833,-0.94423 -0.20638,-2.62849 0.30557,-3.54821c0.65318,-1.17411 1.13148,-2.39144 0.96375,-3.79363l-0.26474,0.02649c-1.13307,0.21654 -2.52669,-1.0512 -2.72968,-2.25578c0.0484,0.76514 0.29542,1.44403 0.93526,1.94243c0.38984,0.30338 0.90936,0.41733 1.24841,0.80757c0.36554,0.42172 0.32949,0.96933 0.22171,1.4751l-0.00944,-0.01574c-0.34307,-0.5749 -0.98388,-1.64881 -1.29634,-0.85577c-0.1715,0.43546 0.43817,1.42112 0.76113,1.94323c0.03452,0.05597 0.06578,0.10637 0.09245,0.1504c-0.32231,0.66096 -0.69303,1.30857 -0.77191,2.05478c-0.13685,1.29821 -0.16036,2.53964 0.98865,3.32152c0.58207,0.39562 1.03347,0.88466 1.56952,1.34701c0.34462,0.29741 0.72569,0.50637 1.05339,0.78885c-0.64941,1.05638 -1.49064,1.21952 -2.24801,0.51813c-0.15578,-0.14462 -0.29402,-0.31394 -0.41833,-0.49681c0.48646,-0.10558 0.98028,-0.18745 1.47072,-0.25478c0.07888,-0.01076 0.07271,-0.13247 -0.00558,-0.13864c-0.54064,-0.04303 -1.09682,-0.00657 -1.64702,0.0994c-0.10976,-0.19283 -0.20717,-0.39243 -0.29462,-0.58964c0.27689,0.03964 0.55637,0.08686 0.84004,0.13825c0.05,0.00896 0.05877,-0.06235 0.01852,-0.08128c-0.30677,-0.14522 -0.63247,-0.25139 -0.96992,-0.3241c-0.05359,-0.14502 -0.10478,-0.31315 -0.15339,-0.49303c0.19024,0.05996 0.38107,0.11713 0.57331,0.16873c0.03924,0.01056 0.05737,-0.04044 0.02151,-0.05837c-0.20797,-0.10399 -0.42351,-0.1998 -0.64203,-0.29164c-0.14084,-0.56375 -0.25378,-1.20159 -0.31933,-1.60658c-0.11992,0.30697 -0.14342,0.86673 -0.10597,1.43705c-1.0237,-0.38008 -2.12729,-0.61574 -3.19323,-0.63227c-1.48008,-0.02311 -2.69223,0.72012 -3.69801,1.74482c-0.00697,0.00697 0.00259,0.01873 0.01016,0.01195c1.11793,-1.04661 2.40538,-1.62849 3.94642,-1.6004c1.03008,0.01873 1.98805,0.35956 2.95079,0.67889c0.01713,0.19024 0.04064,0.37789 0.06952,0.55498c-2.40797,-0.25518 -5.23725,1.0759 -6.4004,3.01873c-0.00617,0.01036 0.00857,0.02092 0.01534,0.01096c0.8496,-1.3 2.23008,-2.07928 3.68845,-2.52271c0.94183,-0.28625 1.83804,-0.31415 2.74921,-0.22609c0.05199,0.24562 0.11415,0.45598 0.18267,0.59681c0.03346,0.06893 0.06912,0.13964 0.10538,0.21076c-1.83825,0.53048 -3.51335,1.83028 -4.1775,3.57052c-0.00578,0.01514 0.01673,0.02311 0.02331,0.00857c0.8492,-1.88107 2.49303,-2.78566 4.31494,-3.2763c0.29641,0.53168 0.67251,1.06156 1.15259,1.35558c0.66056,0.40438 1.13028,0.53088 1.87709,0.39024c0.26932,-0.0508 0.55618,-0.16673 0.8247,-0.19024c0.28412,-0.0253 0.4693,0.08207 0.67938,0.20398c0.05622,0.03267 0.11422,0.06634 0.1764,0.09881c0.98944,0.51674 2.60379,0.23426 3.58446,-0.10837c0.56415,-0.19701 1.18128,-0.44661 1.73605,-0.78028c0.08227,0.03865 0.16195,0.08187 0.24263,0.12331c-0.60179,0.50557 -3.19044,1.86634 -4.36773,1.87211c-0.65358,0.00358 -1.23008,-0.07669 -1.79482,-0.37052c-0.28725,-0.1498 -0.46793,-0.38546 -0.72889,-0.56853c-0.19297,-0.13526 -0.28656,-0.11733 -0.41957,-0.09183c-0.07241,0.01395 -0.15649,0.03008 -0.27466,0.0249c0.33745,0.36773 0.63666,0.77072 1.1008,0.96036c0.52211,0.21315 1.09104,0.20837 1.65399,0.28945c1.28247,0.18386 2.76196,0.26215 3.90179,-0.44423c0.58446,-0.36196 1.1488,-0.77888 1.65498,-1.25458c1.21773,0.79263 2.23924,1.90697 3.07251,3.25697c0.00518,0.00837 0.01892,0.00239 0.01395,-0.00657c-0.75916,-1.35877 -1.76932,-2.51912 -2.98865,-3.34263c0.36733,-0.35657 0.70219,-0.74482 0.98366,-1.17231c0.04402,-0.06693 0.08427,-0.13147 0.12171,-0.19462c0.44581,0.14622 0.88785,0.31554 1.3257,0.51753c2.13426,0.98427 3.85996,2.68148 5.24463,4.54901c0.01315,0.01793 0.03825,-0.00418 0.02609,-0.02211c-1.68227,-2.45558 -3.91056,-4.20418 -6.51654,-5.18606c0.21295,-0.39203 0.32152,-0.74203 0.47968,-1.24443c0.01574,-0.0498 0.04402,-0.11415 0.07749,-0.18446c0.3494,0.05378 0.70259,0.12391 1.06275,0.21654c1.89702,0.48785 3.65299,1.42291 5.33307,2.40438c0.00339,0.00199 0.00697,-0.00299 0.00358,-0.00498c-1.86235,-1.11574 -4.02271,-2.32231 -6.26255,-2.8767c0.44701,-0.78924 1.41036,-2.09801 1.70857,-2.18566zM225.93967,189.73483c1.40797,0.18645 2.83008,-3.08447 2.37231,-4.27431l-0.95359,0.3753c-0.49204,-0.18526 -1.0508,-0.16055 -1.54602,-0.37769c-0.53446,-0.23386 -0.95837,-0.68247 -1.50817,-0.88725c-0.15498,1.2249 -0.06673,4.93845 1.63546,5.16394zM251.57613,184.59339c-0.1765,0.56354 -0.55299,1.21455 -0.94462,1.89163c-0.62888,1.08705 -1.29642,2.24124 -1.23725,3.20837c1.90239,-0.76853 1.56693,-1.60658 2.10956,-3.43666zM248.23191,187.26072l-0.59224,-0.75458c-1.21235,-1.31076 -5.24442,-2.98586 -6.41176,-0.82172c1.9506,1.00378 5,1.75797 6.39143,3.69562c0.52271,-0.47689 1.3257,-1.54183 0.61255,-2.11932zM202.36894,185.33044c0.1201,0.10797 0.24299,0.21454 0.36608,0.32131c0.88349,0.76674 1.77833,1.54323 1.73755,2.86494l-0.00303,0.07032c0.00129,-0.02371 0.00231,-0.04701 0.00303,-0.07032l0.02127,-0.49383c0.1765,-0.68087 0.29681,-1.59223 -0.08884,-2.19303c-0.33466,-0.52171 -1.51395,-0.93884 -2.03606,-0.4994zM291.19628,185.32944c-1.54383,-0.02032 -3.77272,2.32171 -4.52629,3.60638c1.28745,0.65438 2.7749,0.29044 4.18686,-0.05518c0.64682,-0.15836 1.27749,-0.31275 1.86613,-0.36375c1.84522,-0.15976 3.95,0.50976 5.43148,1.4737c-0.24263,-0.28964 -0.46892,-0.65299 -0.71434,-0.91873l-1.2486,-1.11016c-0.03606,-0.90478 -3.87231,-2.61734 -4.99522,-2.63228zM280.33671,190.08084c0.77211,0.54801 2.24761,-0.51414 3.26275,-1.24502c0.25538,-0.18386 0.48167,-0.34662 0.66016,-0.45757l-0.69362,-0.55498c-0.49581,-0.90259 -1.20338,-1.82271 -2.0739,-2.34422c-0.96793,0.64482 -2.37431,3.73586 -1.15538,4.60179zM276.62894,189.48821l1.5261,-0.69362c-0.20638,-1.0745 -0.77251,-2.28366 -0.8502,-3.31216c-1.69422,0.10956 -3.76893,0.88566 -5.33705,1.50876c0.89323,0.79263 3.09861,1.73745 3.15897,3.03426c0.48705,-0.09303 0.98606,-0.32968 1.50219,-0.53725zM213.24066,187.43542c0.38605,-0.01813 0.80219,-0.08765 1.01135,-0.42948c0.21395,-0.34921 0.26514,-1.63884 -0.4492,-1.47589c0.02012,0.4747 -0.33964,0.91574 -0.79761,0.9998c-0.39482,-0.11375 -0.92032,-0.06115 -1.31673,-0.02052c-0.36116,-0.14184 -0.85498,-0.19602 -1.08964,-0.21932c-0.26295,-0.0259 -0.67988,0.0998 -0.88805,0.25279c-0.15358,0.11255 -0.28227,0.44462 -0.42132,0.60419c-0.37032,0.4249 -0.71036,0.82291 -0.36992,1.36893c0.32331,0.51893 0.8241,0.69143 1.39961,0.73905c0.92311,0.07649 2.75339,-0.46912 2.30279,-1.73904c0.03307,0.0002 0.06574,0.00099 0.09821,0.00179c0.19422,0.00418 0.3749,0.00797 0.52051,-0.08227zM205.87193,186.15773c-0.36016,0.58645 -0.16913,2.31215 0.44104,2.67291c0.1014,-0.67689 0.66414,-1.39562 1.04163,-1.92769c0.4249,-0.599 1.26554,-0.90856 1.59362,-1.23088l-0.78486,-0.14721c-0.65059,-0.0259 -1.92669,0.03884 -2.29144,0.63287zM223.91317,193.3667c0.95597,-0.31335 1.97331,-0.52689 2.85797,-1.02471c1.34901,-0.75956 2.90738,-2.48287 2.51375,-4.18745l-0.40558,0.66036c-0.80319,0.99502 -1.73088,1.88944 -3.19084,1.89502c-1.61434,0.00578 -2.59781,-3.23845 -2.79602,-4.61853c-0.06175,1.39164 0.18367,2.38685 0.49303,3.64144c0.02849,0.11613 0.05777,0.23446 0.08725,0.35538c0.17291,0.70976 0.31195,1.33725 0.07908,2.03825c-0.24542,0.73785 -0.74442,1.16434 -1.17649,1.82371c0.28884,-0.28506 1.08008,-0.43306 1.53785,-0.58347zM220.06098,187.50992c-0.6261,0.20956 -1.34761,0.28506 -2.01395,0.74681c-0.76753,0.53227 -1.30877,1.13267 -2.24841,1.38048c-0.03805,-0.13685 -0.08686,-0.28546 -0.13805,-0.44143c-0.27988,-0.85398 -0.63068,-1.9237 0.30677,-2.44084c0.91176,-0.50319 2.56614,-0.31215 3.43865,0.21773zM200.30897,187.05594c0.00857,0.599 0.15976,1.11315 0.60996,1.49761c0.34482,0.29482 1.18606,0.59721 1.36952,-0.05996c0.12789,-0.45757 -0.16713,-0.88287 -0.52888,-1.15797c0.06136,0.27251 -0.02151,0.78168 -0.38247,0.58347c-0.09303,-0.23407 -0.10359,-0.46773 -0.12629,-0.71514l0.38685,0.04661c-0.04064,-0.0263 -0.08167,-0.05139 -0.12271,-0.07371c-0.47247,-0.25658 -0.84474,-0.22191 -1.29313,-0.18008c-0.10458,0.00976 -0.21329,0.01992 -0.32839,0.02689c-0.16116,0.00976 -0.84542,-0.00637 -0.88048,-0.18028c-0.04607,-0.22908 0.48544,-0.23028 0.70323,-0.23068c0.02048,-0.0002 0.03817,-0.0002 0.05235,-0.0004l0.03711,-0.00059c0.59542,-0.00976 1.25573,-0.02052 1.79257,0.20139c0.96781,0.3996 0.93108,1.1488 0.89243,1.93645c-0.01763,0.35937 -0.03564,0.7267 0.04103,1.07251l-0.1506,-0.00657c-0.11012,-0.08267 -0.32757,-0.07251 -0.55211,-0.06215c-0.19464,0.00916 -0.3946,0.01833 -0.53454,-0.03227c-0.3261,-0.11792 -0.63148,-0.42809 -0.86972,-0.67809c-0.50359,-0.52888 -0.67052,-1.26434 -0.7761,-1.94064c0.11858,0.00139 0.2344,-0.01096 0.34982,-0.02331c0.10337,-0.01115 0.20633,-0.02211 0.31054,-0.02311zM230.12274,195.28084c0.23486,0.77112 2.07769,1.77689 2.79382,1.94502c-1.12689,-1.54402 -0.8002,-3.4512 -0.48646,-5.28327c0.12271,-0.71733 0.24362,-1.42291 0.27451,-2.09084l-0.03924,-0.69621c0.03167,-0.87709 -0.09641,-1.81176 -0.67868,-2.52012c0.3002,1.74323 0.11773,4.09123 -0.5761,5.79881c-0.09721,0.23924 -0.29542,0.53585 -0.50936,0.85617c-0.44203,0.66136 -0.9514,1.42371 -0.77848,1.99044zM211.60998,188.37805c-0.39741,0.29622 -1.09582,0.42071 -1.51155,0.10518c-0.36235,-0.2747 -0.72231,-1.24084 -0.25319,-1.51892c0.11323,-0.06733 0.3597,-0.06454 0.57129,-0.06215c0.1053,0.0012 0.20178,0.00239 0.26894,-0.00538c0.08247,-0.00956 0.16195,-0.02211 0.24064,-0.03446c0.20339,-0.03187 0.40099,-0.06295 0.62928,-0.04103c0.15718,0.01514 0.28725,0.02331 0.41694,0.06255c0.26395,0.33446 0.00239,1.22291 -0.36235,1.49422zM213.05719,189.3661c-0.44383,0.30119 -1.15159,0.351 -1.63546,0.53964c-1.06972,0.41654 -1.99204,1.49382 -1.81574,2.74641c0.04243,0.30199 0.11733,0.60916 0.34582,0.82988c-0.88446,-0.7751 -1.21295,-2.33128 -0.28406,-3.1239c0.79123,-0.6753 2.06773,-0.73725 2.88665,-1.39063c0.36076,-0.28785 0.62988,-0.66852 0.50259,-1.13905l0.23048,-0.10319c0.03446,0.01654 0.06394,0.03586 0.09303,0.05538c0.01016,0 0.02092,0 0.03187,0.0002c0.05816,0.00059 0.12769,0.0012 0.21235,-0.01176c0.28606,-0.04303 1.07391,-0.34303 0.97231,-0.70299l0.15737,-0.14403c0.12131,0.60339 -0.52192,1.30219 -1.13626,1.58924c-0.07829,0.34363 -0.32072,0.69164 -0.56095,0.85478zM210.41695,186.99797c-0.03486,0.15 -0.00458,0.65 0.31195,0.65697c0.34403,0.00777 0.2735,-0.60857 0.18048,-0.71096zM205.07511,187.65235c-0.13028,0.30916 -0.03745,0.70478 -0.15379,1.01394c-0.05201,0.13825 -0.10542,0.22868 -0.15118,0.30618c-0.07442,0.1261 -0.12858,0.21773 -0.12353,0.4247c0.01036,0.44423 0.30279,1.48307 0.44343,1.8253c0.00817,-0.80956 0.32191,-1.41554 0.53267,-2.14562c0.14263,-0.49343 -0.03397,-0.91075 -0.21745,-1.34442c-0.09484,-0.2241 -0.19152,-0.45259 -0.24689,-0.69821zM241.96737,204.26651c-1.90558,-2.28227 -3.4737,-4.58925 -3.79363,-7.652c-0.21593,-2.06773 0.66414,-4.58466 2.25518,-5.94722c1.2504,-1.07071 2.66115,-1.65996 4.3259,-1.32132c0.91355,0.18626 2.0994,0.9743 2.5496,1.80797c-0.37311,-1.28984 -1.8012,-3.00459 -3.20657,-3.03068l-0.95239,-0.45777c-1.18327,-0.9755 -4.52769,-0.39701 -5.6002,0.64123c-1.18247,1.14442 -1.08068,2.84343 -0.98725,4.401c0.01016,0.16952 0.02012,0.33745 0.02849,0.50279c0.12391,2.46574 0.49821,4.94044 1.68885,7.14164c0.86514,1.599 2.2267,3.01175 3.69203,3.91435zM230.4809,187.842c-0.00139,-0.11295 -0.01176,-0.22032 -0.03865,-0.31573zM228.46019,197.00515c1.36972,0.98944 2.48108,2.29203 3.48785,3.69223c1.10837,1.54223 2.42908,2.91653 3.74741,4.27052c0.93705,0.96255 3.0524,3.33267 4.43128,3.502l0.00438,-0.10378c-0.4749,-0.31295 -0.93387,-0.65757 -1.40538,-1.0996c-2.42868,-2.27849 -4.43227,-4.95638 -6.58546,-7.44642c-1.14103,-1.31932 -2.32311,-2.61873 -3.65737,-3.7514c-0.72411,-0.61454 -1.35359,-0.91435 -2.03367,-1.00438c0.01534,-0.00817 0.03108,-0.01514 0.04621,-0.02331c1.31952,-0.70957 2.38128,-1.79761 3.24363,-3.02291c0.37589,-0.53427 1.90678,-3.93586 0.75916,-4.03686l-0.01693,-0.13885c0.00358,0.30837 -0.07091,0.66454 -0.13586,0.9747c-0.01534,0.0731 -0.03008,0.14382 -0.04322,0.21056c-0.21175,1.07928 -0.5255,2.31893 -1.2508,3.2018c-0.72131,0.87889 -2.08287,1.40498 -3.11435,1.78924c-1.1502,0.42849 -2.39602,0.87391 -3.59781,0.97869c-1.2018,0.10438 -2.15976,0.15219 -3.16933,1.00079c0.67271,-0.13526 1.37271,-0.06255 2.08147,0.01136c0.5259,0.05458 1.05657,0.10976 1.58486,0.08108c0.85837,-0.04681 1.68965,-0.22988 2.4749,-0.51832c1.0998,0.31634 2.10916,0.68188 3.149,1.43287zM306.87497,187.96192c0.04343,1.11733 -0.5747,2.47311 -1.09522,3.61455c-0.151,0.33147 -0.29383,0.64462 -0.40996,0.92889c0.72091,0.39442 1.74462,0.81235 2.59741,0.70737c0.0271,-0.55637 -0.01016,-1.24044 -0.04781,-1.93526c-0.05917,-1.09283 -0.11992,-2.21155 0.06554,-2.8994zM271.44566,190.74359c-0.36215,-0.24044 -0.7747,-0.35279 -1.199,-0.42291l-1.5263,-0.97112c-2.23606,-1.61832 -3.34323,-1.65458 -5.80917,-0.94383c0.33187,1.44163 1.45,2.70797 1.67431,4.26255c1.38546,-1.79283 4.69164,-2.03945 6.86016,-1.92471zM208.49682,194.75116c0.05119,-0.27889 0.08327,-0.75737 0.2247,-1.00558c0.099,-0.17431 0.2006,-0.22868 0.31096,-0.22371c0.00857,0.00059 0.01693,0.0016 0.0253,0.00279c0.03167,0.00398 0.06394,0.01136 0.09721,0.02291c0.24084,0.09223 0.40717,0.4012 0.5747,0.60897c0.26275,0.32669 0.56314,0.59422 0.90398,0.8504c0.29582,0.22231 0.64064,0.40897 0.90717,0.68008c0.24721,0.25139 0.36912,0.61135 0.59342,0.84701c-0.00398,-0.11594 -0.05996,-0.18706 -0.12072,-0.27171l-0.24402,-0.46275c-0.13107,-0.33944 -0.53844,-0.68068 -0.77709,-0.98526c-0.24164,-0.30817 -0.54183,-0.58247 -0.84064,-0.81833c-0.43924,-0.34662 -0.73048,-0.73068 -1.00299,-1.18088l-0.01996,-0.04522c-0.34552,-0.78048 -0.72283,-1.63307 -0.24558,-2.36375c0.57072,-0.87311 1.89702,-0.25658 2.5269,-1.10358l-0.41873,0.09482c-0.89223,0.39861 -2.3502,0.04462 -2.39622,-1.18526c-0.13326,0.51793 -0.61654,1.14383 -0.89143,1.61016c-0.37311,0.63287 -0.44502,1.36634 -0.44044,2.11853c0.00398,0.63506 0.43306,1.05339 0.61574,1.61793c0.18706,0.57789 0.15498,1.28546 0.06155,1.88685c-0.05597,0.36235 -0.12809,0.74582 -0.40498,1.00378c0.66852,-0.39821 0.83287,-1.0014 0.96116,-1.69821zM262.64666,192.64858c0.08625,-0.82669 -0.57888,-1.94064 -1.03247,-2.7006c-0.03785,-0.06315 -0.07411,-0.1241 -0.10837,-0.18207l-1.5263,-1.5263c-0.25,0.96215 -0.25199,2.04024 -0.25398,3.13406c-0.00239,1.29721 -0.00498,2.61614 -0.42132,3.78884c1.31833,-0.43327 3.1998,-1.1512 3.34243,-2.51394zM218.60679,189.76451c0.84422,0.16733 0.78168,-1.04821 0.74303,-1.49403l-0.39502,-0.01713c-0.39004,0.20956 -1.26813,1.32868 -0.34801,1.51116zM200.83069,190.62347c0.35299,0.08566 0.92112,0.37211 1.01434,0.7486c-0.03247,-0.25757 -0.11295,-0.56613 -0.33008,-0.68964l-0.32888,-0.24024c-0.87849,-0.56196 -1.36395,-1.22809 -1.87012,-2.10279c-0.03426,1.0998 -0.00578,1.86235 0.52709,2.87331c0.09637,0.18287 0.20402,0.36873 0.31339,0.55737c0.41873,0.72271 0.86259,1.48885 0.79498,2.30378c0.46032,-0.81793 -0.00793,-1.70419 -0.41398,-2.47291c-0.06488,-0.12271 -0.12817,-0.24263 -0.18582,-0.35857c-0.24283,-0.48884 -0.17589,-0.77809 0.47908,-0.61892zM312.83195,191.98543c-0.60577,-0.71474 -1.37689,-1.98008 -2.21096,-2.39323l-1.24881,-1.14462c1.54741,1.68327 2.05698,3.9512 3.45718,5.68626c1.25379,-0.67769 0.76733,-1.2496 0.09084,-2.04442c-0.02908,-0.03426 -0.05856,-0.06893 -0.08825,-0.10399zM214.09624,190.7675c0.60817,-0.1257 1.03387,-0.06514 1.09522,-0.75498c0.02112,-0.23506 -0.08526,-0.50956 -0.18267,-0.76036c-0.08347,-0.21574 -0.16036,-0.41374 -0.14323,-0.55399l-0.36314,0.54961c-0.27828,0.63685 -1.13745,0.70219 -1.75299,1.04044c-0.8004,0.44024 -1.05598,1.19183 -1.03845,2.04383c0.37052,-1.10817 1.33486,-1.34682 2.38526,-1.56454zM275.10244,191.70814l-0.27749,-0.69362c-0.04821,-0.06634 -0.09741,-0.13586 -0.1482,-0.20717c-0.49701,-0.7008 -1.12092,-1.57988 -2.02311,-1.46474c0.61514,0.6247 0.38725,1.58586 0.1998,2.37629c-0.03207,0.13486 -0.06275,0.26474 -0.08804,0.38705c0.69741,-0.28287 1.49941,-0.48008 2.33705,-0.39781zM216.87771,194.44319c0.44343,-0.25179 0.69383,-0.81753 1.1257,-1.13108c0.44283,-0.32131 0.90438,-0.58725 1.3488,-0.9008c1.01076,-0.71315 0.88586,-1.79901 0.60916,-2.86654c-0.14263,0.10319 -0.30996,0.28506 -0.48984,0.48068c-0.57808,0.62869 -1.28706,1.39961 -1.73068,0.15379l-0.08844,-0.56932c-0.6504,0.80937 -1.74661,0.9239 -2.11156,2.05677c-0.25777,0.8 0.6767,2.28048 1.33685,2.7765zM237.71657,201.59559c0.67948,1.13247 2.06295,2.20099 2.24841,3.50299c-0.31116,-1.54124 -2.34084,-2.71534 -3.2504,-3.88746c-1.53765,-1.98167 -2.38706,-4.13864 -3.2496,-6.46574l-0.05777,-1.8773c0.12968,-1.38327 0.86932,-2.78925 1.68187,-3.24941c-0.49522,2.59144 0.06355,6.04582 0.93048,8.46355c0.44104,1.23048 1.02012,2.38487 1.69701,3.51335zM257.45124,195.32268c0.35638,-1.73864 0.65657,-3.83546 -0.38526,-5.41833l-0.41633,0.27769c0.36215,0.93127 -0.27152,2.04423 -0.94024,2.7749c-0.15339,0.16753 -0.2994,0.31096 -0.43148,0.44084c-0.6504,0.63904 -0.96514,0.94821 -0.18845,2.19522c0.95877,1.53924 1.98586,1.56435 2.36175,-0.27032zM305.76481,193.78901l-2.08107,-0.69343c-0.45219,-1.33606 -2.40817,-2.05538 -3.4502,-2.87132c0.58168,2.58805 0.69263,4.57988 0.41574,7.1506c1.27251,-0.02828 5.4492,-2.54483 5.11554,-3.58586zM245.66976,191.10753l0.98546,1.29263c0.08366,0.11096 0.16375,0.08526 0.21195,0.21733c-0.39562,1.04422 -1.04363,1.87211 -1.79821,2.74702c-1.24781,-0.93705 -3.09244,-1.35856 -4.15139,-2.51235c0.72251,-1.8263 2.98147,-3.24502 4.75219,-1.74462zM254.82693,207.94101c-0.39801,1.70996 -1.4249,3.59263 -1.90398,5.14502c-0.53745,1.74064 -1.08407,3.51972 -1.73864,5.26216c-1.38506,3.69084 -3.23885,6.83486 -5.28048,10.03068c-0.03227,0.0506 -0.06235,0.10359 -0.09223,0.15678c-0.02849,0.25339 -0.04581,0.50936 -0.0496,0.76893c-0.06235,-0.12888 -0.10578,-0.26614 -0.14104,-0.40638c-0.0484,0.09641 -0.09701,0.19223 -0.14761,0.28446c0.01633,-0.21334 0.04681,-0.42849 0.08466,-0.64442c-0.10817,-1.0504 0.34881,-2.30518 0.72769,-3.34562c0.12191,-0.33466 0.23566,-0.64701 0.31992,-0.92331c0.51355,-1.68168 0.8261,-3.26335 1.25578,-4.94523c0.86474,-3.38467 2.51036,-6.39084 4.25538,-9.39543c0.86593,-1.49123 1.86693,-3.41255 1.60518,-5.14084c-0.24024,-1.58646 -1.699,-2.70677 -2.29303,-4.16136c-0.35638,-0.87291 -0.12729,-1.76852 0.10657,-2.68167c0.17908,-0.6996 0.36076,-1.40956 0.28347,-2.12729c-0.18626,-1.72968 -0.14841,-3.86554 -1.22749,-5.33028c0.77371,0.40139 1.24224,1.16912 1.52071,2.09443c1.1012,1.10458 1.49801,3.76136 2.55299,5.03228c1.35917,1.63825 3.26096,3.01096 4.97809,4.24403c3.34462,2.402 7.88466,5.04442 11.93048,2.76494c1.8773,-1.05797 3.6508,-4.02849 2.73227,-6.16475c-1.00458,-2.33705 -5.12391,-4.602 -6.8761,-1.69323c-0.7755,1.28725 -0.03905,4.13108 1.69662,4.11235c-2.26992,0.05478 -4.0243,-1.73367 -3.60239,-4.049c0.39542,-2.16873 2.06554,-3.0008 4.06594,-3.2996c1.1251,-0.16813 2.16992,-0.20936 3.17231,-0.2488c2.12669,-0.08387 4.06255,-0.15996 6.16992,-1.42629l0.41593,0.01833c-0.18925,0.8506 -1.62968,2.59064 -2.07909,3.90219c-0.46813,1.36673 -0.55119,2.49602 -0.4743,3.91076c0.14004,2.58426 1.20259,3.83805 2.21334,6.03168c-2.10379,1.36933 -5.69602,2.34641 -8.15498,2.73008c-2.36833,0.36892 -4.99701,0.15179 -7.06096,-1.13964c-1.92968,-1.20797 -3.08924,-3.22212 -5.0508,-4.41992c-2.18805,-1.33566 -4.19423,-1.66255 -5.35279,-4.11634c-0.29143,-0.61733 -0.62212,-1.37251 -0.90877,-2.1747c-0.01813,0.65339 -0.05458,1.25638 -0.0759,1.74701l-0.14263,1.69482c0.85299,1.64641 2.04283,3.02111 2.84722,4.59722c0.70219,1.37569 0.31275,2.26454 -0.28167,3.30598zM269.12654,200.87727c0.02271,-0.00059 0.04562,-0.0012 0.06833,-0.00219c-0.02291,0.0012 -0.04562,0.00199 -0.06833,0.00219zM282.48372,199.73702c2.16833,-1.48904 2.91714,-2.85478 4.0267,-5.26116c0.70279,-1.5243 2.65817,-2.75339 4.11713,-3.49582c-0.48446,-0.63506 -2.16255,-0.54841 -2.76056,-0.10438l-1.24881,-0.13864c-0.83187,-0.35219 -3.90339,3.2763 -4.44303,4.15837c-0.93785,1.53267 -0.81972,3.35757 0.30856,4.84164zM300.39748,218.89201l0.01813,-0.41574c-0.61016,-2.34482 -2.12012,-4.27809 -2.88287,-6.55598c-5.86235,0.4739 -11.25618,-0.13506 -14.55121,-5.61076c-1.54203,-2.56255 -3.06534,-5.44363 -3.1259,-8.51335c-0.04164,-2.09343 0.88446,-3.61574 1.85817,-5.21594c0.32829,-0.53964 0.66215,-1.08825 0.96594,-1.67052c-0.82431,0.87391 -2.00458,1.34581 -2.78068,2.14363c-4.36694,4.48665 -0.10637,12.9273 3.43845,16.92869c2.16375,2.44263 6.40479,3.80877 9.55758,4.42948c1.67172,0.32888 3.13844,0.06136 4.5253,1.06534c1.23626,0.89562 1.71096,2.59064 2.97709,3.41514zM249.61558,191.38284l-0.70976,-0.44741c0.67789,1.05697 0.76195,2.57988 0.56354,3.87809c-0.22251,1.45678 -1.9257,2.26474 -2.11135,3.43207c0.63964,0.62809 2.35319,0.70179 3.1753,0.45c0.03367,-0.08585 0.06713,-0.17032 0.1004,-0.25378c0.37291,-0.93924 0.69402,-1.74821 0.49063,-2.82749c-0.28785,-1.52809 -0.83128,-2.83526 -1.50876,-4.23148zM297.85644,191.98543l-1.24881,-0.69383c-1.91972,-0.61056 -3.76952,0.31375 -5.39363,1.28008c0.22211,0.74582 0.70498,1.46036 0.83904,2.28546c1.62988,-2.13327 5.29582,-2.3502 7.56535,-1.7755c-0.45797,-0.56455 -1.05358,-1.03864 -1.76195,-1.09621zM213.39982,195.13523c0.50637,0.04303 1.78626,-0.06315 1.9996,-0.59462c-0.7231,-0.51295 -1.83168,-1.64303 -1.06813,-2.64362l0.0247,-0.56415c-0.46395,0.1508 -1.11016,0.60339 -1.5771,0.87988c-0.67072,0.39801 -0.86514,0.71733 -0.84064,1.49941c0.0267,0.86713 0.56354,1.34682 1.46156,1.42311zM349.10787,210.06572c-1.96873,-0.98924 -4.50757,-1.95678 -6.74184,-1.44502c-1.77311,0.40577 -4.36036,3.13785 -2.1516,4.77431l0.68725,0.16892c0.04084,-1.16195 0.50418,-2.14761 1.63307,-2.60657c3.93666,-1.6 11.35678,2.88446 12.21057,6.81694c0.88526,4.07669 0.08745,9.73925 -3.29363,12.63308c-2.82071,2.41454 -7.04383,3.69981 -10.88407,3.59622c-1.42669,-0.16673 -2.83944,-0.45956 -4.14044,-0.95c-3.36096,-1.26654 -4.89522,-2.54622 -7.21494,-4.3008c-4.81435,-3.64144 -7.44861,-9.45419 -10.12729,-14.88407c-2.17032,-4.39901 -2.93048,-8.75817 -4.71495,-12.98048c-1.4496,-3.43048 -2.84223,-6.8765 -5.00359,-9.52132l1.10797,2.47889l0.25637,1.25379c-0.02131,0.99263 0.07948,2.01813 0.26653,3.05697c-0.03108,-0.0498 -0.06016,-0.10219 -0.09263,-0.1506c0.09462,0.66195 0.2004,1.33108 0.31634,2.00418c-0.23188,1.58347 -0.67868,3.10856 -1.17769,4.3014c-0.13008,0.31116 -0.45717,0.86295 -0.85478,1.53346c-1.10179,1.85877 -2.74403,4.62908 -2.22749,5.71056l-0.99024,0.49522c1.94801,1.17709 2.89781,1.74064 3.82331,3.91475c0.83506,1.96116 1.77769,3.91514 2.55438,5.94442c0.80797,2.11076 1.48167,4.26434 1.38128,6.58626c-0.12052,2.78645 -1.66733,3.68725 -3.14622,5.79064c0.07072,-0.05538 0.14761,-0.24562 0.23068,-0.26474c1.26156,-0.29243 4.04064,-3.22252 4.43427,-4.4502c0.40916,-1.2765 -0.7004,-4.76255 -1.18606,-6.28865c-0.02151,-0.06773 -0.04183,-0.13168 -0.06075,-0.19123c-0.73585,-2.32311 -1.53506,-4.64522 -2.41195,-6.90977c-0.4492,-1.15956 -0.04861,-3.25538 -0.68008,-4.33447c-0.6004,-1.0255 -1.48984,-0.8759 -2.46235,-0.65896c-0.24522,-1.99821 0.69303,-3.68088 1.64422,-5.38706c0.62749,-1.1255 1.26076,-2.26096 1.56374,-3.50419c0.9016,4.32331 2.28686,8.73367 4.36136,12.68805c1.29383,2.46753 2.94582,4.54144 4.49483,6.75996c1.44104,2.06415 2.93665,4.16713 4.66952,5.99642c2.99841,3.16495 7.57869,6.36853 11.87291,7.3267c4.32968,0.96653 10.06833,0.91972 13.84025,-2.04661c3.95279,-3.10856 5.29303,-6.96972 5.50936,-11.84403c0.23546,-5.30677 -2.63127,-8.76893 -7.29562,-11.11236zM248.58092,193.62925l-0.4747,-1.06215c-0.07112,-0.13944 -0.18088,-0.27809 -0.3004,-0.39302c-0.08366,0.67271 -0.09084,1.69382 -0.52888,2.23486c-0.14721,0.18167 -0.33028,0.31394 -0.4994,0.43605c-0.41514,0.2998 -0.74662,0.53905 -0.25856,1.3012c1.12868,1.76235 2.47749,-1.62948 2.06195,-2.51693zM202.80559,194.28403c-1.46594,1.83008 2.82749,3.84124 3.51833,1.05617l0.13107,-0.61913c-0.84901,0.90418 -2.98128,0.72889 -3.6494,-0.43705zM243.88948,196.13423c-0.23725,-0.12909 -0.54124,-0.35538 -0.87749,-0.60577c-0.83785,-0.62351 -1.87669,-1.39681 -2.58546,-1.18964c-0.76653,0.2241 -0.85737,1.80418 -0.76434,2.5496c0.26633,2.13307 2.03028,3.11634 3.36275,4.48327c-0.40139,-0.9735 0.1002,-1.93626 0.58526,-2.86713c0.30777,-0.59104 0.60897,-1.16912 0.66833,-1.72889zM264.55802,194.89917c-0.1496,-0.19701 -0.48167,-0.30936 -0.69362,-0.57151c-0.94442,0.74562 -1.66394,2.12948 -2.16474,3.21095c0.5247,0.48466 1.22769,0.65379 1.85857,0.81534c-0.03047,-0.98187 0.47849,-2.00498 0.86116,-2.62231zM289.94807,194.34439l-1.38726,1.38726c-0.9498,1.02589 -1.39582,2.3502 -2.06653,3.58367c1.24841,0.45697 2.46355,1.66554 3.57889,2.36713c-0.31155,-1.29104 -0.22769,-2.72789 -0.14422,-4.16176c0.06315,-1.08188 0.1261,-2.16175 0.01912,-3.1763zM314.86482,198.2444c0.29243,0.08068 0.63367,-0.03446 0.96415,-0.14582c0.21414,-0.07231 0.4237,-0.14283 0.61235,-0.15757c-0.21633,-0.78347 -0.33665,-1.66793 -0.48924,-2.4747c-0.70917,-0.20857 -1.69323,-0.34681 -2.34821,-0.01235l-0.9016,-0.48546c0.30717,0.89761 0.93506,1.57609 1.43964,2.35857c0.28466,0.44203 0.34263,0.81255 0.72291,0.91733zM292.30743,197.81272c-0.09502,1.24064 0.5506,2.01255 1.21952,2.81235c0.34781,0.41574 0.70179,0.83885 0.96136,1.33944c0.60259,-1.27231 0.64123,-2.66972 1.25617,-3.8737c0.44901,-0.87889 1.48128,-2.13566 1.97351,-2.63685l-0.69383,-0.41614c-2.07351,0.00518 -4.52032,0.20518 -4.71674,2.7749zM308.40107,196.56411l-0.97131,-1.38726c0,2.59343 -0.61016,4.76076 -2.06674,6.9022c0.64422,0.1998 1.29462,0.45976 1.78924,0.9498c1.96793,-1.60856 1.79801,-4.46235 1.24881,-6.46474zM260.90223,199.48443c-0.44602,-0.66275 -1.05279,-1.39124 -1.75518,-1.81016l-0.13864,-0.97131c-0.15538,-0.40239 -0.44423,-0.749 -0.80438,-0.95697c-0.0502,1.20319 -0.80498,2.02709 -0.97849,3.15259c0.15438,0.07072 0.299,0.13845 0.43605,0.20239c1.27012,0.59382 1.8769,0.87729 3.24064,0.38347zM234.97055,208.07288c-0.75817,-0.18247 -1.37012,-0.46235 -2.10937,-0.72789c-1.66255,-0.59662 -3.03746,-1.49044 -4.03845,-3.01554c-1.59602,-2.43307 -2.11036,-5.80001 -4.51713,-7.61076c-0.25339,-0.19083 -0.53506,-0.36932 -0.79363,-0.53745c0.13486,0.03446 0.26434,0.0747 0.39123,0.11753c-0.04442,-0.03426 -0.08705,-0.06992 -0.13187,-0.10359c0.55777,0.02131 1.13845,0.19263 1.64303,0.40617c1.10717,0.46873 2.12331,1.39383 3.08745,2.11095c1.24881,0.92889 2.08128,1.91733 2.83885,3.29941c0.68287,1.24582 1.3506,2.71554 2.40857,3.71694c0.56813,0.53765 1.29084,1.04582 1.97132,1.41832c0.69602,0.38048 1.73167,0.65299 2.29363,1.19662l-0.35996,-0.09363c0.13147,0.04004 0.26275,0.08207 0.39302,0.12968l-0.31653,0.09044c-0.7749,-0.29821 -1.91793,-0.19442 -2.76016,-0.39721zM272.02614,199.60216c0.08446,-0.2498 0.19223,-0.4504 0.28905,-0.63068c0.20219,-0.3761 0.35657,-0.66374 0.15319,-1.12451c-0.26972,-0.61056 -1.60896,-1.13984 -2.22152,-1.28287l-0.41633,0.41614c-0.13625,0.17749 -0.2253,0.48307 -0.25658,0.66654c0.98765,0.34841 1.42989,1.59781 2.45219,1.95538zM238.57872,205.36651c-0.55857,-1.08864 -1.00438,-2.18944 -1.69224,-3.20279c-0.90757,-1.33705 -2.11135,-2.50319 -2.98586,-3.85837l-0.6237,-0.0271c-0.32291,-0.37191 -0.79064,-0.64941 -1.29064,-0.56095c0.50119,1.44801 1.36176,2.84144 2.39781,3.91574c1.16115,1.20378 2.62151,3.13128 4.19463,3.73347zM318.39231,204.5956c0.01355,0.15239 0.01593,0.31016 0.01833,0.46873c0.00538,0.34662 0.01076,0.69562 0.13287,0.99462c2.12052,-0.76016 -0.18068,-5.49323 -0.7757,-6.71694l-0.00139,-0.00299l-0.06952,-1.17948c-0.40897,0.21913 -0.92012,0.39064 -1.22092,0.7769c0.45697,1.16933 1.03446,2.32012 1.41375,3.5243c0.21374,0.67969 0.43944,1.4259 0.50259,2.13486zM315.19749,201.56053c0.40857,0.45299 0.75558,0.33506 0.71653,-0.27769c-0.03346,-0.52371 -0.7251,-1.20359 -0.99183,-1.59721l-0.69383,-0.76315c-0.01733,-0.00896 -0.03287,-0.02012 -0.04821,-0.03127c-0.0488,-0.03546 -0.09681,-0.07032 -0.20299,-0.02749c0.11972,0.46216 0.42709,0.87391 0.61693,1.29203c0.18346,0.40358 0.28844,1.05518 0.60339,1.40478zM206.26535,199.32925l0.1241,-0.25797c-0.41016,-0.01514 -0.86913,-0.02828 -1.13386,0.2996c-0.22867,0.28227 -0.20412,0.5486 -0.17812,0.83068c0.01275,0.13845 0.02586,0.28068 0.0096,0.43048c0.02713,-0.02411 0.0653,-0.05677 0.11139,-0.09641c0.34078,-0.29263 1.11462,-0.95737 1.0669,-1.20637zM303.39529,205.55435c-0.7755,-0.80897 -1.82152,-2.47789 -1.38347,-3.7251c0.1486,-0.4233 0.49423,-0.74462 0.8265,-1.05358c0.49063,-0.45618 0.95199,-0.88526 0.70677,-1.5755l-1.94243,0.83247c-3.92869,-2.63765 -3.99801,2.58925 -3.86354,5.11275c0.82052,-0.02749 1.66753,0.11335 2.50439,0.25239c1.09522,0.18207 2.17311,0.36135 3.1518,0.15657zM249.96578,204.01472c0.13088,-0.85558 -0.04223,-2.89303 -0.66952,-3.4269l-0.69362,-0.27769c-0.87071,-0.38167 -1.85916,-0.6008 -2.7504,-0.95677c-0.14542,0.59601 -0.51594,1.16335 -0.8492,1.63028c2.15857,0.29402 3.57988,1.56374 4.96275,3.03108zM212.78328,200.70216c-0.09243,-0.03008 -0.18566,-0.05877 -0.27868,-0.08725c0.24522,-0.35638 0.53545,-0.7998 0.63207,-1.23446c0.11813,0.01056 0.23665,0.02291 0.35518,0.03685c-0.21435,0.44323 -0.48008,0.8761 -0.70856,1.28486zM264.39846,202.22508c-0.248,-0.54542 -0.74582,-0.97331 -1.22789,-1.22112l-0.55498,-1.38745c-0.49642,0.84901 -1.43646,1.01773 -2.1747,1.55737c0.31315,0.17291 0.63447,0.40358 0.95817,0.63586c1.04382,0.749 2.11095,1.51474 2.9994,0.41534zM287.54428,201.28523c-0.1996,-0.04024 -0.40617,-0.24024 -0.50996,-0.28127l-1.38745,-1.10996c-0.72609,0.18247 -2.06335,0.72131 -2.50399,1.39103c-0.53147,0.80817 -0.13168,1.77889 0.25797,2.7243c0.04402,0.10717 0.08825,0.21414 0.13067,0.32032c0.61016,1.5251 1.71793,3.51256 3.21116,4.29761c-0.09961,-0.33267 -0.22052,-0.69064 -0.34662,-1.06375c-0.79761,-2.35897 -1.79841,-5.31912 1.14821,-6.27829zM211.44703,201.98005c-0.06912,-0.03685 -0.13904,-0.07211 -0.20936,-0.10697c0.43964,-0.28207 0.83187,-0.62132 1.11414,-1.03645c0.01136,-0.01673 0.02371,-0.03466 0.03566,-0.05179c0.09761,0.0253 0.19482,0.05239 0.29203,0.07968c-0.32191,0.46554 -0.85,0.69621 -1.23247,1.11553zM266.25423,203.25436c0.31853,2.2271 2.83586,1.28287 4.40857,0.5245l-0.27749,-0.83247c-0.28905,-0.10378 -0.62032,-0.24761 -0.96674,-0.39821c-1.58127,-0.68725 -3.48167,-1.51315 -3.16434,0.70618zM234.76258,204.54141c-0.68367,-0.61474 -1.20159,-1.36753 -1.84482,-1.97331l-0.45498,-0.71414c0.51375,1.8239 1.49223,4.04761 3.62191,4.38386c-0.3247,-0.69084 -0.72371,-1.15856 -1.32211,-1.69641zM251.54427,208.3436c2.59821,-0.98366 1.18207,-3.84184 0.11056,-5.25837l-0.83247,-0.97112c0.55916,1.02251 0.50399,3.53167 -0.36793,4.41614c0.79084,0.29063 1.08127,0.99622 1.08984,1.81335zM280.50344,207.16053c-0.34243,-0.15697 -0.74263,-0.10597 -1.11713,-0.05837c-0.06036,0.00777 -0.11992,0.01534 -0.17848,0.02191c-0.82629,0.09363 -1.65259,0.28765 -2.46215,0.47271c-1.83585,0.41932 -3.6512,0.91633 -5.46932,1.40578c-0.81693,0.21992 -1.63168,0.40419 -2.4504,0.55c-0.93865,0.01176 -1.91275,-0.06514 -2.79602,-0.13486c-0.49821,-0.03944 -0.96753,-0.07649 -1.38546,-0.09402c-1.99024,-0.08427 -3.36215,-0.50837 -4.67729,-1.97052c-1.65578,-1.84084 -3,-5.01335 -5.82052,-5.1504l0.90856,0.66435c1.26913,0.70399 1.76195,2.44482 1.60757,3.81933c-0.13645,1.21613 -1.02211,2.08765 -1.61853,3.08148c-0.17431,0.02809 -0.3482,0.05956 -0.52192,0.09781c-0.11335,0.0251 -0.09821,0.17212 0.00777,0.19422c1.6757,0.34622 3.38944,0.39024 5.09423,0.49423c1.6518,0.10079 3.30339,0.19243 4.95876,0.17311c2.20917,-0.0259 4.36216,-0.33745 6.48168,-0.94721c3.13347,-0.90139 6.25279,-1.83625 9.43188,-2.54323c0.03964,-0.00896 0.04243,-0.05996 0.00677,-0.0763zM248.18629,206.96989l-0.27769,-2.21992c-0.18127,-0.20617 -0.36912,-0.47092 -0.56674,-0.74921c-0.76813,-1.08267 -1.68107,-2.36892 -2.90498,-1.2004c-1.05438,1.00618 -1.09263,2.9008 -1.10956,4.26613c0.04462,-0.08865 0.09103,-0.18367 0.13944,-0.28267c0.4739,-0.96933 1.14124,-2.33466 2.21474,-2.17191c1.13865,0.17191 1.90379,1.86933 2.50478,2.35797zM317.75227,204.13902c-0.10956,-0.51832 -0.96255,-1.01494 -1.16534,-1.33167l-0.62431,-0.20797c-0.10777,-0.01514 -0.23148,-0.00299 -0.33646,0.01056c-0.06075,1.22211 0.61255,2.53805 1.17669,3.64064c0.02729,0.05319 0.05418,0.10597 0.08088,0.15817c0.44442,-0.3755 0.99203,-1.68426 0.86852,-2.26973zM293.1393,205.30496l0.27749,-1.66474c-1.69522,-1.44382 -3.15498,-0.93387 -4.84183,0.41614c1.16614,1.46335 1.79661,3.90737 3.03805,5.14702c1.42371,-0.92092 1.10379,-2.56335 1.5263,-3.89841zM307.70744,204.61093l-1.11016,-0.41614c-0.50399,-0.53805 -1.54642,-0.55478 -2.1984,-0.2492c0.90578,1.98148 1.48088,3.06713 1.6749,5.37471c0.75439,-1.25299 0.81375,-3.72151 1.63366,-4.70937zM241.99685,204.28523c-0.00976,-0.00598 -0.01952,-0.01255 -0.02929,-0.01873c0.02072,0.0249 0.04124,0.0498 0.06175,0.0747c0.00538,0.00717 0.01115,0.01414 0.01733,0.02072c-0.00578,-0.00697 -0.01155,-0.01395 -0.01733,-0.02072c-0.01275,-0.01733 -0.02371,-0.03606 -0.03247,-0.05597zM246.44068,206.97269l-0.38885,-0.64183c-0.10857,-0.28646 -0.22331,-0.55039 -0.44642,-0.76335c0.29721,1.05438 -0.42649,2.25757 -1.02669,3.25518c-0.15797,0.26235 -0.30717,0.51056 -0.42709,0.73804c2.48207,0.84243 2.39722,-0.66475 2.3,-2.39004c-0.00358,-0.06574 -0.00737,-0.13187 -0.01096,-0.19801zM240.43808,206.08763l0.28048,0.74143c0.21694,1.12331 0.32769,2.01654 0.27609,3.24064c-0.13885,3.2992 -1.49223,6.22271 -2.61016,9.23806c-0.54323,1.46534 -0.7486,3.01913 -0.90359,4.6761c-0.06096,0.65239 -0.20777,1.33127 -0.35638,2.01773c-0.2259,1.04462 -0.45578,2.10717 -0.39263,3.12112c-0.13805,-0.60876 -0.05179,-1.26534 0.03506,-1.92729c0.05578,-0.4247 0.11195,-0.85179 0.10916,-1.26953c-0.00179,-0.26574 -0.00418,-0.53008 -0.00657,-0.79342c-0.02948,-3.12271 -0.05737,-6.08546 1.24024,-9.04223c1.40378,-3.1994 2.29801,-6.45518 2.32829,-10.00259zM248.71697,210.13942c0.34223,-1.03566 0.38885,-1.98188 0.57928,-3.03088l-0.69362,0.83247c-0.45398,0.67171 -0.78147,1.42351 -1.09582,2.19901c0.32072,0.08406 0.88845,0.0735 1.21016,-0.00059zM296.46919,210.85855c0.09382,-0.01912 0.19861,-0.04183 0.31155,-0.06634c1.10458,-0.23924 3.01116,-0.65219 3.57311,0.34004l-0.27749,-1.10976c-0.18964,-0.21435 -0.37869,-0.44581 -0.56952,-0.67948c-1.07291,-1.31395 -2.19941,-2.69343 -3.76195,-1.43267c-0.43048,0.34721 -0.75916,0.80876 -1.07689,1.25518c-0.62669,0.88028 -1.21156,1.70139 -2.45219,1.47151c1.56494,0.36394 2.59801,0.55857 4.25339,0.22151zM320.88793,210.29978l-0.55478,-1.59582c-0.10558,-0.0751 -0.21654,-0.15996 -0.33247,-0.2484c-0.6265,-0.47868 -1.39084,-1.06275 -2.15459,-0.78187c-0.2,1.41753 0.4247,2.48168 1.0747,3.58865c0.38307,0.65219 0.7747,1.31932 1.01175,2.08247c0.74562,-0.63466 1.1012,-2.20199 0.95538,-3.04502zM305.48752,213.90695l-0.83247,-1.94243c-0.05917,-0.31573 -0.07988,-0.67012 -0.10119,-1.03287c-0.0488,-0.83187 -0.1,-1.70718 -0.62391,-2.25817c-0.6757,-0.71075 -2.1506,-0.66275 -3.04422,-0.81196c1.75259,1.96574 3.06654,5.16674 3.66196,7.69662c0.6749,-0.22749 1.01932,-0.93686 0.93984,-1.65119zM243.33012,207.94101h-1.2486c0.2498,1.28885 0.06434,2.30079 -0.13904,3.40897c-0.08267,0.45099 -0.16833,0.91793 -0.22868,1.4261c0.81733,-0.00498 1.68965,0.25438 2.45976,0.48327c0.04621,0.01374 0.09183,0.02749 0.13725,0.04084c-0.13606,-1.10239 -1.23426,-2.08944 -1.26514,-3.13924c-0.00896,-0.30597 0.23346,-0.67609 0.46294,-1.02629c0.38088,-0.58147 0.7259,-1.10777 -0.17848,-1.19363zM239.35222,209.51253l-1.37131,-0.40638c-0.60598,0.04801 -1.302,-0.13387 -1.97151,-0.30896c-0.36813,-0.09622 -0.72829,-0.19024 -1.06116,-0.24303c-0.35737,-0.05637 -0.71872,-0.16952 -1.07948,-0.28247c-0.53964,-0.16873 -1.07789,-0.33725 -1.601,-0.31573c-0.50856,1.79682 0.63706,3.19024 1.81853,4.6271c0.57629,0.7008 1.16096,1.41195 1.56633,2.18526c0.34104,0.65059 0.60657,1.22331 0.81833,1.67949c0.50498,1.08845 0.70259,1.51435 0.88167,0.75498c0.25518,-1.08247 0.61554,-2.18944 0.66395,-3.30419c0.01952,-0.4492 0.00657,-0.86016 -0.00518,-1.24024c-0.04164,-1.33028 -0.07131,-2.27829 1.34084,-3.14582zM239.53609,210.07588l-0.21992,0.26853c-1.14821,-0.74402 -1.06614,3.77272 -1.02669,4.46893c0.50319,-0.85558 1.11972,-3.76295 1.24662,-4.73745zM291.93253,210.57049c0.0986,0.02868 0.19223,0.0494 0.28347,0.06634c-0.09283,-0.02151 -0.18685,-0.04343 -0.28347,-0.06634zM315.31482,215.41093c0.19721,0.46614 0.36295,0.85837 0.49322,1.09303c1.15538,2.08287 2.46713,4.05339 3.69941,6.13905c0.86155,1.45797 1.9504,4.19722 1.58108,5.89403c-0.49322,2.26693 -3.72032,2.26554 -5.48964,2.82431c1.51614,-0.91155 2.49383,-1.40896 2.59661,-3.36594c0.10319,-1.95996 -0.61434,-4.6747 -1.38765,-6.44861c-1.26156,-2.89423 -2.82032,-6.62291 -5.0271,-8.96654l0.04223,-0.97032c1.46116,-1.00239 2.71733,1.96873 3.49183,3.801zM245.56398,214.02488c0.56076,0.04462 1.1243,-0.05 1.51235,-0.39522l0.41614,-1.38745c-0.66673,-0.01574 -1.1271,-0.57709 -1.64064,-0.81474c-0.01534,0.23546 -0.02112,0.46833 -0.0267,0.6988c-0.01593,0.64821 -0.03127,1.27849 -0.26115,1.8986zM321.65107,212.24201l-0.06933,0.69383c-0.13864,0.74143 -0.51634,1.37371 -0.75618,2.06733c1.01912,0.47889 1.67869,1.28187 2.47769,1.95259c-0.34741,-1.55239 -0.89084,-3.39422 -1.65219,-4.71375zM300.90883,213.21333c0.05737,0.27131 0.10418,0.63466 0.15558,1.03307c0.23008,1.78685 0.5502,4.27271 2.32431,2.26554c-0.33366,-0.78187 -1.31494,-2.90418 -1.64761,-3.02111zM241.13469,214.34799c-0.85956,1.42888 -0.23964,1.61375 0.64303,1.8769c0.35558,0.10618 0.75399,0.2249 1.11534,0.44283c0.0496,-0.25239 -0.01972,-0.42908 -0.11096,-0.66215l-0.00677,-0.01713l0.13864,-0.97131c-0.52888,-0.3494 -1.16713,-0.65419 -1.77929,-0.66913zM312.56342,215.71074v0.27749c0.01176,0.05139 0.02411,0.10637 0.03685,0.16434c0.19462,0.8761 0.53088,2.38984 1.64124,1.43904c-0.31354,-0.65757 -1.10299,-1.70937 -1.67808,-1.88088zM252.77892,216.15655c-0.31195,0.56295 -0.70658,1.39701 -0.80976,2.02709c-0.14741,0.8988 0.05239,1.15896 0.46574,1.69761c0.14443,0.18785 0.31474,0.40996 0.50538,0.70478c0.90797,1.40399 1.76454,2.96196 2.64941,4.41275l0.00697,0.01136c0.93924,1.53984 1.68904,2.76932 1.42629,4.64402c-0.21215,1.51275 -0.85558,2.92152 -1.42271,4.32669c1.23107,-0.67749 2.43705,-2.59681 2.9263,-3.84821l0.33147,-1.23546c-1.01335,-2.29542 -1.54901,-4.90399 -2.70837,-7.21096c-0.78168,-1.55598 -1.90617,-4.56694 -3.37072,-5.52969zM306.45883,216.95954c-0.18088,0.90179 -0.20259,1.92271 -0.54143,2.75379c0.58247,0.02908 1.18725,0.02889 1.76913,0c0.13765,-0.93964 -0.15538,-1.82968 -0.67291,-2.61514zM323.8694,221.44062c1.08386,-0.72889 0.80119,-1.72789 0.50119,-2.78864c-0.05239,-0.18466 -0.10498,-0.37092 -0.15119,-0.55817c-0.09781,0.11215 -0.26096,0.20717 -0.3482,0.32231l-0.48566,0.27749c-0.09841,-0.48068 -0.80199,-1.48147 -1.38726,-1.44223c-0.64104,0.04263 -0.28606,0.72988 -0.05179,1.18347c0.04084,0.07868 0.07789,0.1504 0.10538,0.21056c0.43565,0.9498 0.99283,2.14442 1.81753,2.79522zM301.74131,219.5956c0.54542,0.4743 1.21992,1.28187 1.41116,2.06653c1.46494,-0.26554 1.65478,-2.17908 1.651,-3.40219c-0.71434,0.14601 -1.37152,0.65 -2.09084,0.91932zM315.32039,220.82727c-0.00438,-0.6508 -0.48466,-1.16155 -0.95319,-1.50916l-0.69383,-0.41633c0.0002,0.06594 0.0002,0.13227 0,0.19861v0.00757c-0.0016,1.20777 -0.00318,2.41195 1.64702,1.71932zM251.23889,220.56671l-0.41614,1.10996c-0.01374,0.29462 -0.07649,0.55976 -0.13805,0.82032c-0.08427,0.35638 -0.16653,0.70438 -0.11872,1.10777c0.64004,-0.48466 1.46594,-0.76255 2.04183,-1.39761c-0.28287,-0.59841 -0.99203,-1.56115 -1.36893,-1.64044zM305.62616,221.95417c-0.14004,0.52908 -0.32869,1.16514 -0.67231,1.62968c0.28347,0.07968 0.58606,0.05677 0.90797,0.03227c0.22868,-0.01733 0.46693,-0.03546 0.71474,-0.01793c0.07849,-0.7243 -0.09382,-1.40578 -0.39522,-2.06036zM326.92319,225.56134l-0.48546,-0.97112c0.30956,-0.27171 0.4516,-1.11096 0.21435,-1.43765c-0.24721,-0.34064 -1.62888,-1.00359 -2.07709,-0.97988c-0.16892,1.0512 0.70896,1.83984 1.50518,2.55478c0.31813,0.28566 0.62311,0.55956 0.84303,0.83386zM353.35269,222.43644c-0.11096,0.23267 0.08905,0.77669 0.22929,1.15856c0.04183,0.11394 0.07849,0.21355 0.0998,0.28606c0.21454,0.7263 0.15319,1.14402 0.06335,1.75518c-0.01494,0.10079 -0.03047,0.20697 -0.04581,0.32051c0.08048,-0.2763 0.17669,-0.55279 0.27311,-0.83028c0.25817,-0.74383 0.51912,-1.49502 0.49164,-2.27032v-0.6245c-0.07729,0.0002 -0.16434,-0.00538 -0.25518,-0.01136c-0.33964,-0.02191 -0.73048,-0.04701 -0.85617,0.21614zM303.02477,222.78664c-0.58745,1.1757 -2.08406,1.59482 -3.30877,2.22072c-1.28685,0.65757 -2.45598,1.65219 -3.08028,2.99542c-0.6247,1.34442 -0.78128,2.80139 -0.6757,4.2759c0.15199,2.12351 0.96096,2.03865 2.33646,1.89403c0.22071,-0.02331 0.45598,-0.04801 0.70558,-0.06534c-3.56434,0.15836 -0.66076,-5.04781 0.41554,-6.13009c0.31773,-0.31952 0.78168,-0.64044 1.27809,-0.98387c1.25937,-0.87111 2.72829,-1.88725 2.55319,-3.39483zM251.51618,224.17409c-0.40279,0.23426 -0.65777,0.6247 -0.6759,1.08904c1.02271,0.15478 1.83964,-0.21295 1.50837,-1.08904zM327.83932,224.60457c-0.34443,0.24243 0.13088,1.15698 0.42092,1.71534c0.07769,0.1492 0.14203,0.27311 0.17391,0.35179c0.18725,0.46115 0.4759,1.19323 0.91713,1.45657c0.63307,0.37729 0.97091,-0.28387 0.90179,-0.97112l-0.83267,-1.38745l-0.00717,-0.01096c-0.16514,-0.24761 -1.0261,-1.53964 -1.5739,-1.15418zM352.84233,227.72229c-0.2494,-0.08227 -0.49004,-0.09064 -0.73705,-0.01016l-0.6245,0.76295c0.06514,0.27371 -0.50439,0.96175 -0.96275,1.51554c-0.20876,0.25219 -0.39462,0.47649 -0.48685,0.62132c0.90379,0.14382 3.1,-1.91156 2.81116,-2.88964zM331.79511,229.98565c0.31594,0.4237 0.852,0.58606 1.23287,0.91733l0.6245,0.20817c0,-0.18904 0.00817,-0.38765 0.01633,-0.59024c0.02211,-0.54223 0.04522,-1.11255 -0.08247,-1.6c-0.21892,-0.09801 -0.46255,-0.2492 -0.71693,-0.40697c-0.51056,-0.31693 -1.06434,-0.66056 -1.5496,-0.65438c0.17629,0.67411 0.0498,1.55578 0.4753,2.1261zM236.2335,228.61154l-0.26275,0.34004c0.08705,-0.10697 0.17431,-0.21852 0.26275,-0.34004zM232.79246,230.99102c-1.01056,0.39641 -2.19383,0.80379 -2.90618,1.69163c-0.65318,0.81375 -0.90498,1.94083 -0.83367,3.01275c0.09363,1.41076 0.61673,1.53327 1.7496,1.90179c0.03486,0.01275 0.07112,0.0247 0.10857,0.03546c-0.03685,-0.01215 -0.07291,-0.0239 -0.10857,-0.03546c-1.71953,-0.63207 -0.37669,-3.65718 0.3243,-4.62649c0.84203,-1.16375 2.38845,-2.30956 3.78287,-2.64582l1.06135,-1.37331c-0.89223,1.09801 -1.73068,1.47151 -3.17829,2.03945zM348.98356,229.37708l-0.69362,0.6245c-0.60538,0.1751 -1.20219,0.47769 -1.7496,0.81514c-0.49801,0.30677 -1.0751,0.24701 -1.50538,0.48745c0.58466,0.08566 1.0741,0.6237 1.65937,0.77848c0.80937,0.21414 1.13725,-0.10896 1.67191,-0.76315c0.30279,-0.37032 0.73347,-0.85916 0.97809,-1.23327c0.04103,-0.06275 0.09343,-0.10538 0.14104,-0.14422c0.11235,-0.09163 0.19941,-0.16255 0.05478,-0.42809c-0.14184,-0.26115 -0.35199,-0.32072 -0.55657,-0.13685zM336.77419,230.41752c-0.13805,-0.02012 -0.35617,-0.10677 -0.60358,-0.20498c-0.65896,-0.26195 -1.52769,-0.60697 -1.65618,-0.00139c0.57888,0.37869 1.19303,0.24562 1.70478,0.48386zM336.84351,232.77609l1.04064,0.27749c-0.08307,-0.45239 -0.05618,-1.06793 -0.41295,-1.31793c-0.34144,-0.23924 -1.02092,-0.23386 -1.63705,-0.22929c-0.35538,0.00279 -0.68964,0.00538 -0.9255,-0.03924c0.35079,1.00578 1.34183,0.97371 1.93486,1.30896zM339.8977,231.85876c-0.8506,0.49562 -1.2504,1.51494 -0.00379,1.68207c1.73407,0.23227 3.33068,-0.15857 4.85797,-0.83426l-1.59562,0.06933c-0.81972,-0.65558 -2.32191,-1.46315 -3.25857,-0.91713z" data-paper-data="{&quot;isPathIcon&quot;:true}"></path></g><path d="M190.14694,150.14683c11.07212,-11.07175 23.78669,-19.6438 38.14369,-25.71617c14.86428,-6.28711 30.43407,-9.43066 46.70937,-9.43066c16.2753,0 31.84509,3.14355 46.70937,9.43066c14.35654,6.07227 27.07111,14.64433 38.14369,25.71617c11.07165,11.07212 19.64364,23.78669 25.71596,38.14369c6.28739,14.86428 9.43108,30.43407 9.43108,46.70937c0,7.0423 -0.58859,13.95251 -1.76576,20.73063l-2.26113,-0.00349c1.19971,-6.77418 1.79957,-13.68323 1.79957,-20.72714c0,-15.97421 -3.08502,-31.25483 -9.25505,-45.84186c-5.95965,-14.09005 -14.37291,-26.56874 -25.23978,-37.43608c-10.86734,-10.8672 -23.34604,-19.28053 -37.43608,-25.23999c-14.58704,-6.1698 -29.86766,-9.2547 -45.84186,-9.2547c-15.97421,0 -31.25483,3.0849 -45.84186,9.2547c-14.09005,5.95955 -26.56874,14.37288 -37.43608,25.23999c-10.86687,10.86734 -19.28013,23.34604 -25.23978,37.43608c-6.17004,14.58704 -9.25505,29.86766 -9.25505,45.84186c0,7.01029 0.59414,13.887 1.78243,20.63013l-2.26365,-0.01304c-1.16407,-6.74174 -1.7461,-13.61411 -1.7461,-20.61709c0,-16.2753 3.14369,-31.84509 9.43108,-46.70937c6.07232,-14.35701 14.64431,-27.07157 25.71596,-38.14369zM359.85306,319.85296c-11.07212,11.07165 -23.78669,19.64364 -38.14369,25.71596c-14.86428,6.28739 -30.43407,9.43108 -46.70937,9.43108c-16.2753,0 -31.84509,-3.14369 -46.70937,-9.43108c-14.35701,-6.07232 -27.07157,-14.64431 -38.14369,-25.71596c-3.27055,-3.27069 -6.32296,-6.68465 -9.15722,-10.24187l2.85469,-0.01323c2.46444,2.99933 5.09032,5.89266 7.87765,8.67999c10.86734,10.86687 23.34604,19.28013 37.43608,25.23978c14.58704,6.17004 29.86766,9.25505 45.84186,9.25505c15.97421,0 31.25483,-3.08502 45.84186,-9.25505c14.09005,-5.95918 26.56874,-14.37244 37.43608,-25.23978c2.7888,-2.7888 5.41599,-5.68372 7.88157,-8.68475l2.87133,-0.00788c-2.84008,3.56659 -5.89934,6.98918 -9.17777,10.26775z" data-paper-data="{&quot;isLogoContainer&quot;:true}" fill-rule="nonzero"></path></g></g></svg>