<svg version="1.2" xmlns="http://www.w3.org/2000/svg" viewBox="0 0 380 380" width="1024" height="1024">
	<title>Untitled-1-svg</title>
	<style>
		.s0 { fill: #63666a } 
	</style>
	<g id="Layer">
		<g id="Layer">
			<g id="Layer">
				<path id="Layer" fill-rule="evenodd" class="s0" d="m58.3 253.2q0.6 0 1.2 0.3 0.6 0.2 1.1 0.7 0.4 0.4 0.7 1 0.2 0.6 0.2 1.2 0 0.7-0.2 1.3-0.3 0.6-0.7 1-0.5 0.5-1.1 0.7-0.6 0.3-1.2 0.3h-1.8v-6.5zm-0.8 5.6h0.8q0.5 0 1-0.2 0.4-0.2 0.7-0.5 0.3-0.3 0.5-0.7 0.2-0.4 0.2-0.9 0-0.6-0.2-1-0.2-0.4-0.5-0.7-0.3-0.3-0.7-0.5-0.5-0.1-1-0.1h-0.8z"/>
				<path id="Layer" class="s0" d="m64.7 253.2h0.9v6.5h-0.9z"/>
				<path id="Layer" class="s0" d="m71 253.2q0.7 0 1.2 0.2 0.5 0.3 0.9 0.6l-0.7 0.7q-0.6-0.6-1.5-0.6-0.2 0-0.4 0-0.2 0.1-0.4 0.2-0.2 0.1-0.3 0.2-0.1 0.1-0.1 0.3 0 0.2 0.2 0.4 0.1 0.1 0.3 0.2 0.2 0.2 0.4 0.2 0.3 0.1 0.6 0.2 0.4 0.1 0.8 0.3 0.4 0.1 0.7 0.4 0.3 0.2 0.5 0.5 0.2 0.4 0.2 0.9 0 0.5-0.2 0.9-0.3 0.3-0.6 0.5-0.4 0.3-0.8 0.3-0.4 0.1-0.8 0.1-0.9 0-1.6-0.2-0.6-0.2-1-0.7l0.7-0.6q0.3 0.3 0.8 0.5 0.4 0.2 1.1 0.2 0.6 0 1.1-0.3 0.4-0.3 0.4-0.7 0-0.3-0.1-0.5-0.2-0.2-0.4-0.3-0.2-0.1-0.4-0.2-0.3-0.1-0.5-0.2-0.4-0.1-0.8-0.2-0.4-0.1-0.7-0.4-0.3-0.2-0.5-0.5-0.3-0.3-0.3-0.8 0-0.4 0.2-0.7 0.1-0.3 0.4-0.5 0.3-0.2 0.7-0.3 0.4-0.1 0.9-0.1z"/>
				<path id="Layer" class="s0" d="m78.9 254q-0.8 0-1.3 0.6-0.5 0.6-0.5 1.9 0 1.2 0.5 1.8 0.5 0.6 1.3 0.6 0.4 0 0.8-0.2 0.4-0.1 0.7-0.5l0.7 0.5q-0.4 0.5-1 0.8-0.5 0.3-1.1 0.3-0.6 0-1.1-0.2-0.6-0.2-0.9-0.7-0.4-0.4-0.6-1-0.2-0.6-0.2-1.4 0-0.9 0.2-1.5 0.2-0.6 0.6-1 0.3-0.5 0.9-0.7 0.5-0.2 1.1-0.2 0.7 0 1.2 0.3 0.6 0.3 0.9 0.9l-0.7 0.5q-0.3-0.4-0.7-0.6-0.3-0.2-0.8-0.2z"/>
				<path id="Layer" fill-rule="evenodd" class="s0" d="m86.7 253.1q0.6 0 1.1 0.2 0.5 0.2 0.9 0.7 0.3 0.4 0.5 1 0.2 0.6 0.2 1.5 0 0.8-0.2 1.4-0.2 0.6-0.5 1-0.4 0.5-0.9 0.7-0.5 0.2-1.1 0.2-0.6 0-1.1-0.2-0.5-0.2-0.8-0.7-0.4-0.4-0.6-1-0.2-0.6-0.2-1.4 0-0.9 0.2-1.5 0.2-0.6 0.6-1 0.3-0.5 0.8-0.7 0.5-0.2 1.1-0.2zm0 0.9q-0.8 0-1.3 0.6-0.5 0.6-0.5 1.9 0 1.2 0.5 1.8 0.5 0.6 1.3 0.6 0.9 0 1.3-0.6 0.5-0.6 0.5-1.8 0-1.3-0.4-1.9-0.5-0.6-1.4-0.6z"/>
				<path id="Layer" class="s0" d="m94.4 259.7l-2.3-6.5h1l1.7 5 1.6-5h1.1l-2.3 6.5z"/>
				<path id="Layer" class="s0" d="m100.3 253.2h3.5v1h-2.6v1.7h1.6v0.9h-1.6v2h2.7v0.9h-3.6z"/>
				<path id="Layer" fill-rule="evenodd" class="s0" d="m109.2 257.1h-1.4v2.6h-0.9v-6.5h2.5q0.5 0 0.8 0.2 0.4 0.1 0.7 0.3 0.3 0.3 0.4 0.6 0.2 0.4 0.2 0.8 0 0.9-0.4 1.3-0.4 0.5-1 0.6l1.5 2.7h-1.1zm-1.4-0.9h1.6q0.6 0 0.9-0.3 0.3-0.2 0.3-0.8 0-0.3-0.1-0.4-0.1-0.2-0.2-0.4-0.2-0.1-0.4-0.2-0.2 0-0.5 0h-1.6z"/>
				<path id="Layer" class="s0" d="m121.6 259.7h-0.9v-5.5h-1.9v-1h4.6v1h-1.8z"/>
				<path id="Layer" class="s0" d="m129.9 256.8h-2.7v2.9h-0.9v-6.5h0.9v2.7h2.7v-2.7h0.9v6.5h-0.9z"/>
				<path id="Layer" class="s0" d="m134.2 253.2h3.5v1h-2.6v1.7h1.6v0.9h-1.6v2h2.7v0.9h-3.6z"/>
				<path id="Layer" class="s0" d="m151.7 253.2v6.5h-0.9v-4.4l-1.9 4.4h-0.4l-1.9-4.4v4.4h-0.9v-6.5h1l2 4.7 2-4.7z"/>
				<path id="Layer" fill-rule="evenodd" class="s0" d="m156.8 253.2h0.8l2.3 6.5h-1l-0.4-1.3h-2.5l-0.4 1.3h-1.1zm-0.6 4.3h2l-1-3z"/>
				<path id="Layer" class="s0" d="m164.1 259.7q-0.3 0-0.6 0-0.3-0.1-0.5-0.3-0.3-0.1-0.5-0.3-0.2-0.2-0.3-0.5l0.7-0.6q0.2 0.4 0.5 0.6 0.3 0.2 0.7 0.2 0.3 0 0.5-0.1 0.3-0.1 0.5-0.3 0.1-0.2 0.3-0.5 0.1-0.3 0.1-0.6v-4.1h0.9v4.1q0 0.6-0.2 1-0.2 0.4-0.5 0.7-0.3 0.4-0.7 0.5-0.4 0.2-0.9 0.2z"/>
				<path id="Layer" class="s0" d="m169.6 253.2h3.6v1h-2.7v1.7h1.7v0.9h-1.7v2h2.7v0.9h-3.6z"/>
				<path id="Layer" class="s0" d="m178.3 253.2q0.7 0 1.2 0.2 0.6 0.3 0.9 0.6l-0.7 0.7q-0.5-0.6-1.4-0.6-0.3 0-0.5 0-0.2 0.1-0.4 0.2-0.1 0.1-0.2 0.2-0.1 0.1-0.1 0.3 0 0.2 0.1 0.4 0.1 0.1 0.3 0.2 0.2 0.2 0.5 0.2 0.2 0.1 0.5 0.2 0.4 0.1 0.8 0.3 0.4 0.1 0.7 0.4 0.3 0.2 0.5 0.5 0.2 0.4 0.2 0.9 0 0.5-0.2 0.9-0.2 0.3-0.6 0.5-0.3 0.3-0.8 0.3-0.4 0.1-0.8 0.1-0.9 0-1.5-0.2-0.7-0.2-1.1-0.7l0.7-0.6q0.3 0.3 0.8 0.5 0.5 0.2 1.1 0.2 0.7 0 1.1-0.3 0.4-0.3 0.4-0.7 0-0.3-0.1-0.5-0.1-0.2-0.3-0.3-0.2-0.1-0.5-0.2-0.2-0.1-0.5-0.2-0.3-0.1-0.7-0.2-0.4-0.1-0.8-0.4-0.3-0.2-0.5-0.5-0.2-0.3-0.2-0.8 0-0.4 0.1-0.7 0.2-0.3 0.4-0.5 0.3-0.2 0.7-0.3 0.4-0.1 0.9-0.1z"/>
				<path id="Layer" class="s0" d="m186 259.7h-0.9v-5.5h-1.9v-1h4.6v1h-1.8z"/>
				<path id="Layer" class="s0" d="m190.7 253.2h0.9v6.5h-0.9z"/>
				<path id="Layer" class="s0" d="m197.5 254q-0.8 0-1.3 0.6-0.5 0.6-0.5 1.9 0 1.2 0.5 1.8 0.5 0.6 1.3 0.6 0.4 0 0.8-0.2 0.4-0.1 0.7-0.5l0.7 0.5q-0.4 0.5-1 0.8-0.5 0.3-1.1 0.3-0.6 0-1.1-0.2-0.5-0.2-0.9-0.7-0.4-0.4-0.6-1-0.2-0.6-0.2-1.4 0-0.9 0.2-1.5 0.2-0.6 0.6-1 0.4-0.5 0.9-0.7 0.5-0.2 1.1-0.2 0.7 0 1.2 0.3 0.6 0.3 0.9 0.9l-0.6 0.5q-0.4-0.4-0.8-0.6-0.3-0.2-0.8-0.2z"/>
				<path id="Layer" fill-rule="evenodd" class="s0" d="m210.2 253.2q0.4 0 0.7 0.2 0.3 0.1 0.5 0.3 0.2 0.2 0.4 0.5 0.1 0.3 0.1 0.7 0 0.3-0.1 0.5 0 0.2-0.1 0.4-0.1 0.1-0.2 0.2-0.2 0.2-0.3 0.3 0.2 0 0.4 0.1 0.2 0.2 0.4 0.4 0.2 0.2 0.3 0.5 0.1 0.2 0.1 0.6 0 0.9-0.6 1.3-0.5 0.5-1.5 0.5h-2.6v-6.5zm0 2.8q0.2 0 0.3-0.1 0.2-0.1 0.3-0.2 0.1-0.2 0.2-0.3 0-0.2 0-0.4 0-0.3-0.2-0.6-0.2-0.2-0.6-0.2h-1.6v1.8zm-1.6 2.8h1.8q0.5 0 0.8-0.3 0.3-0.2 0.3-0.7 0-0.2-0.1-0.4-0.1-0.2-0.3-0.3-0.1-0.2-0.3-0.2-0.3-0.1-0.5-0.1h-1.7z"/>
				<path id="Layer" class="s0" d="m215.4 253.2h3.5v1h-2.6v1.7h1.6v0.9h-1.6v2h2.7v0.9h-3.6z"/>
				<path id="Layer" fill-rule="evenodd" class="s0" d="m223.8 253.2h0.8l2.3 6.5h-1l-0.5-1.3h-2.5l-0.4 1.3h-1zm-0.6 4.3h2l-1-3z"/>
				<path id="Layer" class="s0" d="m231.7 253.2q0.7 0 1.3 0.2 0.5 0.3 0.8 0.6l-0.7 0.7q-0.5-0.6-1.4-0.6-0.2 0-0.5 0-0.2 0.1-0.3 0.2-0.2 0.1-0.3 0.2-0.1 0.1-0.1 0.3 0 0.2 0.1 0.4 0.1 0.1 0.3 0.2 0.2 0.2 0.5 0.2 0.2 0.1 0.5 0.2 0.5 0.1 0.9 0.3 0.4 0.1 0.7 0.4 0.3 0.2 0.5 0.5 0.1 0.4 0.1 0.9 0 0.5-0.2 0.9-0.2 0.3-0.5 0.5-0.4 0.3-0.8 0.3-0.5 0.1-0.9 0.1-0.8 0-1.5-0.2-0.6-0.2-1-0.7l0.6-0.6q0.3 0.3 0.8 0.5 0.5 0.2 1.1 0.2 0.7 0 1.1-0.3 0.4-0.3 0.4-0.7 0-0.3-0.1-0.5-0.1-0.2-0.3-0.3-0.2-0.1-0.5-0.2-0.2-0.1-0.4-0.2-0.4-0.1-0.8-0.2-0.4-0.1-0.7-0.4-0.4-0.2-0.6-0.5-0.2-0.3-0.2-0.8 0-0.4 0.2-0.7 0.1-0.3 0.4-0.5 0.3-0.2 0.6-0.3 0.4-0.1 0.9-0.1z"/>
				<path id="Layer" class="s0" d="m239.4 259.7h-0.9v-5.5h-1.8v-1h4.5v1h-1.8z"/>
				<path id="Layer" class="s0" d="m246.1 253.2q0.7 0 1.3 0.2 0.5 0.3 0.8 0.6l-0.7 0.7q-0.5-0.6-1.4-0.6-0.3 0-0.5 0-0.2 0.1-0.4 0.2-0.1 0.1-0.2 0.2-0.1 0.1-0.1 0.3 0 0.2 0.1 0.4 0.1 0.1 0.3 0.2 0.2 0.2 0.5 0.2 0.2 0.1 0.5 0.2 0.4 0.1 0.8 0.3 0.4 0.1 0.7 0.4 0.4 0.2 0.5 0.5 0.2 0.4 0.2 0.9 0 0.5-0.2 0.9-0.2 0.3-0.6 0.5-0.3 0.3-0.7 0.3-0.5 0.1-0.9 0.1-0.8 0-1.5-0.2-0.7-0.2-1.1-0.7l0.7-0.6q0.3 0.3 0.8 0.5 0.5 0.2 1.1 0.2 0.7 0 1.1-0.3 0.4-0.3 0.4-0.7 0-0.3-0.1-0.5-0.1-0.2-0.3-0.3-0.2-0.1-0.5-0.2-0.2-0.1-0.5-0.2-0.3-0.1-0.7-0.2-0.4-0.1-0.7-0.4-0.4-0.2-0.6-0.5-0.2-0.3-0.2-0.8 0-0.4 0.1-0.7 0.2-0.3 0.5-0.5 0.2-0.2 0.6-0.3 0.4-0.1 0.9-0.1z"/>
				<path id="Layer" fill-rule="evenodd" class="s0" d="m258.9 253.1q0.6 0 1.1 0.2 0.5 0.2 0.9 0.7 0.4 0.4 0.6 1 0.2 0.6 0.2 1.5 0 0.8-0.2 1.4-0.2 0.6-0.6 1-0.4 0.5-0.9 0.7-0.5 0.2-1.1 0.2-0.6 0-1.1-0.2-0.5-0.2-0.8-0.7-0.4-0.4-0.6-1-0.2-0.6-0.2-1.4 0-0.9 0.2-1.5 0.2-0.6 0.6-1 0.3-0.5 0.8-0.7 0.5-0.2 1.1-0.2zm0 0.9q-0.8 0-1.3 0.6-0.5 0.6-0.5 1.9 0 1.2 0.5 1.8 0.5 0.6 1.3 0.6 0.9 0 1.3-0.6 0.5-0.6 0.5-1.8 0-1.3-0.4-1.9-0.5-0.6-1.4-0.6z"/>
				<path id="Layer" class="s0" d="m265.7 256h1.7v0.9h-1.7v2.8h-0.9v-6.5h3.5v1h-2.6z"/>
				<path id="Layer" class="s0" d="m278.1 253.2q0.7 0 1.2 0.2 0.6 0.3 0.9 0.6l-0.7 0.7q-0.6-0.6-1.4-0.6-0.3 0-0.5 0-0.2 0.1-0.4 0.2-0.1 0.1-0.2 0.2-0.1 0.1-0.1 0.3 0 0.2 0.1 0.4 0.1 0.1 0.3 0.2 0.2 0.2 0.4 0.2 0.3 0.1 0.6 0.2 0.4 0.1 0.8 0.3 0.4 0.1 0.7 0.4 0.3 0.2 0.5 0.5 0.2 0.4 0.2 0.9 0 0.5-0.2 0.9-0.2 0.3-0.6 0.5-0.3 0.3-0.8 0.3-0.4 0.1-0.8 0.1-0.9 0-1.5-0.2-0.7-0.2-1.1-0.7l0.7-0.6q0.3 0.3 0.8 0.5 0.5 0.2 1.1 0.2 0.7 0 1.1-0.3 0.4-0.3 0.4-0.7 0-0.3-0.1-0.5-0.2-0.2-0.4-0.3-0.2-0.1-0.4-0.2-0.2-0.1-0.5-0.2-0.3-0.1-0.7-0.2-0.4-0.1-0.8-0.4-0.3-0.2-0.5-0.5-0.2-0.3-0.2-0.8 0-0.4 0.1-0.7 0.2-0.3 0.4-0.5 0.3-0.2 0.7-0.3 0.4-0.1 0.9-0.1z"/>
				<path id="Layer" fill-rule="evenodd" class="s0" d="m285.8 257.1h-1.4v2.6h-0.9v-6.5h2.5q0.4 0 0.8 0.2 0.4 0.1 0.7 0.3 0.3 0.3 0.4 0.6 0.2 0.4 0.2 0.8 0 0.9-0.4 1.3-0.4 0.5-1 0.6l1.5 2.7h-1.1zm-1.4-0.9h1.6q0.5 0 0.9-0.3 0.3-0.2 0.3-0.8 0-0.3-0.1-0.4-0.1-0.2-0.2-0.4-0.2-0.1-0.4-0.2-0.2 0-0.5 0h-1.6z"/>
				<path id="Layer" class="s0" d="m291.1 253.2h0.9v6.5h-0.9z"/>
				<path id="Layer" class="s0" d="m300.2 253.2h0.9v5.6h3.1v0.9h-4z"/>
				<path id="Layer" fill-rule="evenodd" class="s0" d="m308.8 253.2h0.8l2.3 6.5h-1.1l-0.4-1.3h-2.5l-0.4 1.3h-1zm-0.6 4.3h2l-1-3z"/>
				<path id="Layer" class="s0" d="m318.5 258v-4.8h0.9v6.5h-1l-2.8-4.8v4.8h-0.9v-6.5h0.9z"/>
				<path id="Layer" class="s0" d="m324.7 256.6l-1 1.4v1.7h-1v-6.5h1v3.4l2.4-3.4h1.2l-2 2.7 2.1 3.8h-1.1z"/>
				<path id="Layer" fill-rule="evenodd" class="s0" d="m331.9 253.2h0.8l2.3 6.5h-1l-0.4-1.3h-2.5l-0.4 1.3h-1.1zm-0.5 4.3h1.9l-1-3z"/>
			</g>
			<g id="Layer">
				<path id="Layer" class="s0" d="m61.6 250.1v-18l11.5-16.5h-7.1l-7.3 10.6-11.7-16.6h-7.1l15.9 22.5v8.7z"/>
				<path id="Layer" class="s0" d="m103.2 244l-17.7-28.4-17.8 28.4h13.7l3.6-5.8h-6.8l7.3-11.7 10.8 17.5z"/>
				<path id="Layer" class="s0" d="m138.1 250.1v-11.8h-23.2v-22.7h-5.8v28.4h25.2z"/>
				<path id="Layer" class="s0" d="m178.6 244l-17.7-28.4-17.7 28.4h13.6l3.7-5.8h-6.9l7.3-11.7 10.9 17.5z"/>
				<path id="Layer" class="s0" d="m223.2 250.1v-28.7h7.9l3.7-5.8h-29l3.6 5.8h8v19.3z"/>
				<path id="Layer" fill-rule="evenodd" class="s0" d="m247.3 244c-4.8 0-8.7-3.9-8.7-8.6v-11.1c0-4.8 3.9-8.7 8.7-8.7h11.5c4.8 0 8.7 3.9 8.7 8.7v11.1c0 4.7-3.9 8.6-8.7 8.6zm14.5-8.6v-11.1c0-1.6-1.3-2.9-2.9-2.9h-11.6c-1.6 0-2.9 1.3-2.9 2.9v11.1c0 1.5 1.3 2.9 2.9 2.9h11.6c1.6 0 2.9-1.4 2.9-2.9zm-9.6-3.7c-0.6 0-1-0.4-1-0.9v-2c0-0.5 0.4-0.9 1-0.9h1.9c0.5 0 1 0.4 1 0.9v2c0 0.5-0.5 0.9-1 0.9z"/>
				<path id="Layer" class="s0" d="m294.6 244c4.8 0 8.7-3.9 8.7-8.6v-19.8h-5.8v19.8c0 1.5-1.3 2.9-2.9 2.9h-11.5c-1.7 0-2.9-1.4-2.9-2.9v-19.8h-5.8v19.8c0 4.7 3.8 8.6 8.7 8.6z"/>
				<path id="Layer" class="s0" d="m340.1 250.1l-10.9-17.4h1.4c4.7 0 8.6-3.8 8.6-8.5 0-4.7-3.9-8.6-8.6-8.6h-20.5l5.8 9.3v-3.5h14.7c1.5 0 2.8 1.3 2.8 2.8 0 1.5-1.3 2.7-2.8 2.7h-20.5v17.1h5.8v-11.3h6.5l10.8 17.4z"/>
			</g>
			<g id="Layer">
				<path id="Layer" fill-rule="evenodd" class="s0" d="m125.3 129.8c-1.3 0-2.6-0.1-3.7 0.1q-0.2 0.1-0.5 0.3c1.6-1.3 3.3-2 5.1-3 3-1.6 6-3.2 9.2-4 1.5-0.4 2.5-0.5 4-0.2q0.5 0.2 1 0.3c1.8-0.9 3.3-2.4 5.2-2.9 2.4-0.6 5 0.6 7.1 1.7q0.4 0.1 0.7 0.3c3.1 1.5 6.3 2.7 8.3 5.7 2 3.2 2.1 6.4 1.9 10.1l-0.2-0.3c0.1-2.6-0.1-4.8-1-7.2-0.9-2.3-2.7-3.7-4.7-5.2-2.7-2-6.2-3.5-9.6-3.8-1.7-0.1-3.2 0-4.7 0.9-0.8 0.4-1.4 0.8-2.1 1.1q1 0.4 1.9 1.1l0.6 0.2q0.3 0.2 0.4 0.6 0.2 0.1 0.3 0.3h-0.2q0.1 0.2 0.3 0.4-0.3-0.3-0.6-0.5 0-0.1-0.1-0.1-0.5-0.5-1.1-0.8c-2.3-1.1-6.5-0.8-8.4-0.2-1.3 0.4-3.2 1.8-3.8 3.1-0.6 1.2 0.1 1.6 0.9 2 0.5 0.3 1.1 0.6 1.4 1.1-1.6-1.1-3.4-1.2-5.4-1.1-0.7 0-1.5 0-2.2 0zm19.5-7c0.5-0.2 1.1-0.4 1.7-0.4 1.6-0.2 2.8 0.2 4.2 1.1q-0.2 0.1-0.5 0.1c-1.1 0.4-2.8 1-2.4 2.4q0.1 0.2 0.2 0.5c0.3 0.8 0.7 1.6 0.1 2.3-0.3-0.5-0.4-1-0.8-1.4-0.4-0.3-0.9-0.5-1.2-0.9l-0.5-0.3c-0.3-1.4-1.5-2-2.7-2.5 0.3-0.6 1.2-0.7 1.9-0.9zm12.2 4.2c0.5 1.3 0.2 3.2-0.5 4.3-0.8-1.4-1.5-2.9-2.5-4.2-0.8-1-1.3-1.9-1.3-3.2l0.8 0.2c0.7 0 1.6 1.1 2.1 1.5 0.6 0.4 1.1 0.8 1.4 1.4zm0.4-2.8c1.4-0.1 3.2 0 5 0.1 1.4 0.1 2.7 0.2 3.8 0.2 3.7 0 7.3 0.4 10.9 1 8.1 1.4 16 3.2 24 4.7q1.5 0.1 3 0.4l1.9 0.2c1.1 0.2 3.2 1.1 4.3 1.4 1.4 0.5 2.8 1.2 4.1 1.8 2.5 1 4.8 2.3 6.8 4q1.1 0.8 2.1 1.7 0.1 0.1 0.2 0.1c1.9 1.6 3.9 3.4 5.4 5.4 1.9 2.6 3.8 5.6 4.5 8.8 0.7 1.5 1.4 2.9 1.8 4.4 0.9 2.8 1.7 5.4 2.8 8.2 3.1 8.6 10 19.9 20.8 17.9 4.2-0.8 7.6-4.6 7.2-9-0.2-1.9-1.3-3.8-3-4.8-1.6-1-4.3-2.2-6.1-1.7l0.8-0.2c2.7-1 7.3 1.8 8.7 4.1 1.7 2.8 0.5 6.9-1.4 9.4-6.3 8.1-18.7 1.7-23.1-5.2-2.5-3.9-4.5-8.4-5.8-12.7-1-3.3-1.6-7.2-2.8-10.6-0.4-0.7-0.7-1.6-1-2.3-0.5-0.7-1.2-1.4-1.7-1.9-1.1-1.5-2.1-3-3.4-4.3-2.4-2.4-5.2-4.5-8.1-6.2-3.4-2-7.2-3.2-10.9-4.7-4.6-1.8-9-3.3-13.8-4.5-3.5-0.3-6.6-1.2-10-1.8q-0.4-0.1-0.8-0.2-2.6-0.4-5.2-0.9 0.2 0 0.3 0c-2-0.4-3.9-0.6-5.9-0.6q-0.4 0-1 0c-2.8-0.1-9-0.3-8.8 2-0.8-1.6-3.7-4.2-5.6-4.2zm-5.2 2.5c0.7 1 1.3 2.3 1.5 3.5l-1.1-0.5c-0.6-0.4-1.3-0.3-1.9-0.6-0.5-0.3-0.8-0.9-1-1.4-0.3-0.6-0.6-1.6-0.3-2.2 0.3-0.7 1.2-0.6 1.9-0.9 0.3 0.8 0.3 1.4 0.9 2.1zm-12.5 1.1c-0.4-0.7-0.8-1.3-1.6-1.7-0.8-0.3-1.4-0.3-1.8-1.2 1.8-0.5 3.2-0.2 4.8 0.2q0.2 0.1 0.4 0.1l0.7 0.4c0.4 0.1 0.7 0.3 1.1 0.5-1.2-0.4-3.8 0-3.6 1.7zm-5.6 0.4c-0.4-0.5-1.9-0.8-2.5-0.5 0.3-1.1 1.7-1.7 2.7-2 0.8-0.3 2.7 0.3 3.2 1.1l1.3 1c-0.9-0.4-3.9-0.6-4.7 0.4zm28.1 5.4c0.4 1.3 0.8 3.2 0.2 4.5-0.6-1.5-1-2.9-2.2-4.2-0.4-0.5-0.9-0.9-1.5-1.2-0.3-0.1-1.1-0.3-1.2-0.6-0.2-0.2 0-0.6 0.1-0.9q0.1-0.2 0.2-0.4c0.1-0.6 0.2-1.2 0.2-1.8 0-0.9-0.2-2.1-0.8-2.8 0.4 0.1 1 0.5 1.1 0.8l0.6 0.6c1 0.2 1.8 2.1 2.2 2.9 0.4 1 0.8 2 1.1 3.1zm-16.8 3.2c-0.2-1.8-0.7-3.6-1.7-5.1-0.7-1.1-2-2-3.1-2.8q0.2-0.2 0.4-0.4c0.7-0.7 1.7-1.6 2.6-1.4 1.5 0.3 3.3 2.4 3.7 3.8v1.2c0.4 1.3-0.8 3.9-1.9 4.7zm30.2-8.6l0.4 0.7c-3.8-0.2-9.7 1.6-9.4 6.6-0.3-2.4-1.2-4.5-2.2-6.7 3.3-1.7 7.6-1.4 11.2-0.6zm-42.4 0.8l0.2 0.5q-0.4 0.2-0.4 0.6-0.2-0.2-0.5-0.3c-0.6-0.3-1.3-0.6-1.1-1.2 0.3-0.8 1.7-0.3 1.8 0.4zm-16.1 5.2c0.2-0.6 0.6-1.2 0.7-1.9 0.4-1.5-1-2.7-2.4-3.4 1.3 0.5 2.5 1.2 3.3 2.2 0.8-0.3 1.5-0.7 2.4-0.8 0.6-0.1 2 0 3.2 0.1 0.6 0 1.1 0.1 1.4 0.1 1-0.3 3.3 0 4.3 0.1 0.6 0.2 1.1 0.3 1.7 0.4q0.4 0 0.7-0.1h0.4c0.7-0.3 1.3-0.9 1.9-1.3 0.8-0.4 1.6-0.7 2.5-1-0.9 0.5-1.7 0.8-2.5 1.5-0.7 0.6-1.2 1.2-1.8 1.9-0.6 0.7-1.2 1.4-1.8 2.1-0.7 0.9-0.4 1.3 0.4 2.1-0.7-0.4-1.5-1.1-1.2-2 0.1-0.7 1.3-1.2 1.4-1.8 0.1-0.6-1.2-1.1-2.3-1.4-1.7-0.2-3.8-0.3-5.3 1-0.6 0.6-2 2.6-2.6 3.6 0.5-0.8 0.9-2 1.2-2.8 0.3-0.9 0.4-1.3 0.7-1.5-1.5-0.2-3.4-0.5-4.4 0.5-0.6 0.6-0.8 1.3-1 2 0.2-0.3 0.4-0.5 0.6-0.7 0.6-0.7 1.5-1.4 2.4-1.1 1.3 0.4 0.8 1.4 0.2 2.2-0.5 0.8-1.1 1.7-1.3 2.6-0.2 0.6-0.2 1.2-0.2 1.8 0 0.5 0.3 0.9 0.3 1.4h-0.4c-1 0-2.2-0.8-2.6-1.8-0.4-1.1 0.5-2.7 1.8-2.4-0.3 0.3-0.9 0.9-0.2 1.2 0.7 0.4 0.8-0.5 0.9-1 0-0.5 0-1.6-0.5-1.9-0.4-0.2-1.4 0.4-1.5 0.8q0 0 0-0.1 0 0 0 0c-0.3 0.5-0.6 1-0.9 1.3 0.2-0.5 0.2-1.2 0.5-1.9zm62.9-5.4q0.4 0 0.7 0c0.7 0.1 1.5 0.3 2.3 0.4l-0.7 0.8c-0.2 0.6-0.6 1.2-1 1.8-0.6 0.9-1.2 1.7-1.2 2.6-0.9-0.4-1.8-1.1-2.7-1.6-0.6-0.4-1.5-0.7-1.8-1.4 0.9-1.1 2.3-1.6 3.1-2.7 0.4 0.1 0.9 0.1 1.3 0.1zm4.1 1c-0.1-0.2-0.1-0.7 0-0.9q0.4 0 0.9 0c1.5 0.1 3.5 0.1 4.3 0.9l0.7 0.6q0.1 0 0.1 0c0.1 0 0.1 0 0.1 0.1-0.4 0.2-1.2 0-1.9-0.3-0.4-0.1-0.7-0.2-1-0.2-1-0.2-2.2-0.2-3.2-0.2zm-71 2.4q0 0.1 0 0.1c-0.3-1-0.7-3.6 1.1-3.4 0.6 0.1 1.1 0.5 1.5 0.8 0.5 0.4 1.3 0.8 1.5 1.5 0.1 0.4 0.1 1.1 0 1.6q0 0.1 0 0.2c-0.1 0.7-0.2 1.2-0.6 1.7l0.1 0.5c0 0.6-0.8 0.8-1.2 0.3 0.6 0 0.7 0 0.9-0.5 0.4-1.3 0.6-2.9-0.3-4.1-0.5-0.7-1.6-1.3-2.5-0.8-0.6 0.4-0.5 1.5-0.5 2.1zm22.5 6.9c0.4 0.2 0.8 0.7 0.6 1.1-0.3 0.7-1.4 0.7-2 0.7q-0.4 0-1-0.1c-1.1-0.2-2.7-0.5-3.2 0.4l-0.1-0.2c0.6-0.7 2.3-0.6 3.1-0.8 1-0.2 1.8-0.3 2.1-1.3q0.1 0 0.2 0.1c-1-0.9-1.9-1.6-2.8-2.5-0.4-0.4-0.9-0.9-1-1.4 0-0.6 0.4-1.1 0.8-1.6q0.1-0.1 0.2-0.2c0.4-0.6 0.7-1.1 1.2-1.6 0.5-0.6 1.1-0.9 1.6-1.4 0.5-0.5 1-0.9 1.6-1.1 0.5-0.1 1.3-0.4 1.8-0.1 0.4 0.2 0.8 0.9 1 1.4 0.2 0.6 0.2 1.1 0 1.7-0.3 0.7-0.9 1.5-1.5 2-0.2-0.5 0-0.9 0.2-1.4q0.2-0.4 0.3-0.8c0.1-0.6 0.1-1.5-0.5-1.8-1.5-0.7-3.3 1.3-4 2.3-0.8 1.1-1.6 2.6-0.8 3.9 0.6 1 1.5 1.8 2.2 2.7zm28.4 0.9c0.9-1.3 0.7-3.2 0.6-4.8q0-0.2 0-0.5c-0.1-1.9-0.6-3.2-1.3-5q0.4 0.2 0.7 0.6l0.6 1c1.4 0.7 1.9 4.5 1.7 6-0.2 0.8-1 4-2.3 2.7zm-12.5-9.6l1.9 1q0 0.4 0.1 0.8c0.1 0.8 0.3 1.5 0 2.4-0.2 0.8-0.6 2.2-1.4 2.5-0.4 0.1-0.9 0-1.4 0-0.4 0-0.8-0.1-1.2 0q0 0-0.1 0c-0.5 0.1-1.6 0.3-2-0.2 0.4-0.5 1.2-0.9 1.7-1.4 0.7-0.7 1-1.6 1.1-2.6 0.1-0.9-0.2-1.7-0.4-2.4q-0.1-0.4-0.3-0.8c0.7 0.3 1.4 0.6 2 0.7zm23.4-0.3c-1.3 1.8-1.8 3.7-0.6 5.6-0.7 0.6-1.5 1-2.4 1.3-0.1 0-0.4 0.1-0.6 0.3-0.5 0.2-1.1 0.5-1.3 0.5-1.6-0.1-1-2.5-0.7-3.5 0.8-2.7 2.2-3.8 4.8-4.2zm10.4 4.6c-1.4 0.6-2.8 1.2-4.3 1.1 0.4-1.9 1.8-3.3 2.1-5.2q0.1 0 0.2 0c1.7 0 3.8 0 5.4 0.6l0.4 0.7c-0.4 0.5-0.6 1.1-0.8 1.7-1 0.2-2 0.6-3 1.1zm-41.5 2.1c0.1 0.4 0.2 0.8 0.1 1.2-0.2 0.5-0.6 0.9-0.7 1.4-1.1-0.4-2.3-0.5-3.4-0.8 1.1-1.1 1.2-2.7 1.4-4.2 0.3-1.4 0.2-2.6-0.6-3.7 0.4 0.1 0.8 0.5 1 0.9l0.8 0.8c0.9 0.9 1.2 2.8 1.4 4.1q0 0.2 0 0.3zm-30-4.3c-0.9-1 0.6-2.3 1.6-1.2 0.6 0.8 1 2.4 0.6 3.3l-0.1 0.3c0 0.1 0 0.2-0.1 0.3-0.8-0.4-2.5-1.5-1.2-2.3-0.5 0.9 1.3 1.1 0.7-0.2-0.2-0.5-1.7-1.3-1.5-0.2zm82.2 3.7c0.1 0.7 0.1 1.4-0.4 1.8-2-1.2-4.3-2.2-6.1-3.5 0.4-1.3 1.3-2.3 1.7-3.5 2.7 0.2 4.8 0.9 7.2 2l0.2 0.5c-0.7 0.5-2.1 0.4-2.5 1.3-0.2 0.4-0.1 0.9-0.1 1.4zm-59.7 1.2c-0.4 0.4-0.3 0.7-0.1 1.2q0 0.1 0.1 0.3c-0.3-0.2-0.6-0.5-0.8-0.8l-0.3-0.6c-1.5-1.2-1-3.4-0.2-4.8 0.4-0.7 1.2-1.5 2.1-1.5 0.8 0.1 1.1 0.7 1 1.5-0.8-1.5-2.8 0.5-2.7 1.7 0.1 0.6 1 1.2 1.5 0.6 0.5-0.6-0.6-1.3-0.7-0.5-0.1-1 0.7-0.6 1 0 0.3 0.5 0.3 1.1 0.1 1.7-0.3 0.5-0.7 0.8-1 1.2zm-6.4-3.8c-0.3 0.4-0.4 0.8-0.3 1.3 0.1 0.4 0.3 0.7 0.5 1-0.6-0.2-0.6-0.9-0.9-1.4-0.3-0.7-0.7-0.9-1.4-1.1-1.2-0.1-2.9 0.6-3.6 1.5-0.7 0.9-0.5 3.5 1.1 2.7 0.4-0.2 0.8-0.9 0.6-1.3-0.2-0.4-0.9-0.5-1 0 0-1.2 1.5-1.3 2.1-0.5 0.5 0.5 1.1 1.8 0.6 2.5l0.1 0.5c-0.6 0.5-1.4 0.4-2.2 0.3q-0.6-0.1-1-0.1c-1.1 0-2 0.3-2.8 0.9-0.5 0.3-0.7 0.2-0.6-0.5 0.1-0.6 0.3-1.1 0.5-1.6 0.2-0.5 0.5-0.9 0.6-1.4 0.2-0.7 0.4-1.3 0.7-1.9 1-1.7 3.6-3.1 5.5-3.2q0.1 0 0.1 0c0.8 0 2.4 0 2.2 1.1 0 0.5-0.6 0.8-0.8 1.2zm9 2.6c-0.3 0.6-0.8 1.2-1.1 1.8 0.4-0.7 0.3-1.5 0.5-2.3 0.2-0.7 0.6-1.4 1-2l0.1-0.5c0.6 0.9 0 2.3-0.5 3zm15.5 3.3c0.1-0.7 0.5-1.4 0.9-2.2 0.7-1.3 1.4-2.7 0.8-4l1.3 0.9c1.6 0.8 2.6 2.8 3.3 4.4-2.2 0.2-4.3 0.1-6.3 0.9zm25.4 0.3c0.1 0.6 0.2 1.1-0.3 1.5-0.8 0.6-3 0.6-4 0.5 0-0.7 0.3-1.5 0.5-2.3 0.3-1 0.6-2 0.5-3.1-0.2-1-0.8-1.9-1.3-2.8l0.5 0.1c1.7-0.6 3.7 4.2 4 5.6q0 0.2 0.1 0.5zm29.7-3.1c0.3 0.5 0 2.1-0.4 2.6-0.2 0.3-0.3 0.4-0.4 0.5q0 0-0.2-0.1-0.1 0-0.3-0.1c-1.6-0.5-3.2-2.9-4.4-4-0.9-0.7-1.8-1-2.8-1.4 0.6-0.9 2.3-0.3 3.1 0.1l1.5 0.5c1.1-0.1 3.4 1 3.9 1.9zm-29.1 1.6c-0.6-1.2-0.9-2.5-1.8-3.4l0.1-0.2c1 0.7 1.4 2.2 2.5 2.8 0.9 0.6 2.4 0.1 3.2 0.7 0.6 0.5 1.7 2.1 1.4 2.6-0.6 0.9-2.6 1.1-3.5 1.5-0.3-1.5-1.3-2.7-1.9-4zm-63.2 14.2c-0.8-1.1-0.8-2.5-0.3-3.7 0.4-1 0.9-2 1.1-3.1 0.2-1.1 0.1-2.4-0.4-3.4-0.2-0.4-0.7-0.9-1.1-1.1-0.5-0.2-1.6-0.3-1.9 0.1 0-0.5 0.2-1 0.3-1.5 0.3-0.7 0.5-1.5 0.3-2.3l-0.3-0.2c-0.7-0.3-1.1-1.9-0.4-2.4q0 0.2 0 0.4 0 0.1 0 0.2c0 0.6 0.2 1.1 0.7 1.5 0.3 0.3 1.1 0.5 1.2 1 0 0.3-0.1 0.6-0.2 0.9-0.1 0.3-0.3 0.6-0.2 0.9 0.1 0.2 0.4 0.7 1 0.9 0.5 0.2 1.1 0.7 1.4 1.3 0.3 0.6 0.3 1.1 0.5 1.8 0.1 0.7 0.1 1.4-0.1 2.2-0.1 0.7-1.2 1.9-1.4 2.9q0 0.1 0 0.1c-0.2 0.7-0.7 2.7 1.5 3.3 0.5 0.2 2.7-0.3 3.1-2.6 0.1-0.3-0.1-0.9-0.2-1.4-0.1-0.4-0.2-0.7-0.2-1 0-0.3 0-0.8 0-1.2 0-0.2 0.2-0.6 0.4-0.9q0 0 0-0.1 0-0.1 0-0.3l0.1-0.4c0-1.3 0.7-2.4 1.6-3.2 0.5-0.4 1.1-0.4 1.7-0.6 0.4-0.1 0.9-0.1 1.3-0.1q0.3 0 0.6 0c0.2-0.1 0.3-0.1 0.5-0.1 0.4-0.2 0.4-0.7 0.4-1.2 0-0.3-0.1-0.5 0-0.7 1 0.2 0.9 2.3 0 2.6-0.4 0.3-1.1 0.2-1.5 0.1-1.1-0.1-2.4-0.1-3 1.1-0.2 0.5-0.5 1-0.8 1.6-0.2 0.3-0.5 0.7-0.7 1-0.3 0.6-0.5 1.7-0.3 2.4q0.1 0.3 0.2 0.7c0.2 0.4 0.4 0.8 0.4 1.3 0 1.2-0.7 2.4-1.6 3.2-1 0.9-2.9 1-3.7 0zm75.7-13.9q-0.5 0-0.8 0c-1.4 0.1-2.8 0.6-4 1-1-1-2.7-2.4-4.2-2.6 0.9-0.8 2.5-1.3 3.7-1.6 1.8-0.6 2.5 0 3.7 1.6l3.3 1.4c-0.3 0.3-1.1 0.2-1.7 0.2zm4.7 0.1c0.2-0.9 0.4-2.6 1.3-3.3 1.2-0.8 2.5 0.6 3.4 1.6q0.2 0.4 0.5 0.6l1 0.7c-1 1.2-2.6 2.7-3.8 3.6 0.1-1.4-1.1-2.6-2.4-3.2zm-76.4-2.5q0.1-0.1 0.3-0.5-0.2 0.3-0.3 0.5zm7.8-0.4c0.3 0.7 1.2 1 2.1 1.2 1.2 0.4 2.4 0.7 2.3 1.9l0.2 0.4c-0.5 0.5-1.2 0.4-1.9 0.4-0.8-0.1-1.5-0.2-2 0.4 0.3-0.7 0-1.2-0.3-1.8q-0.1-0.1-0.2-0.3c-0.2-0.5-0.2-1-0.2-1.5q0.1-0.3 0-0.7zm44.7 5.5c-0.1 0.6-0.1 1.1 0 1.7q0 0.4 0 0.9c-1-0.7-1.8-1.5-2.8-2.4q0-0.1-0.1-0.1c-0.9-0.8-1.7-1.6-0.9-2.5 1.3-1.2 3.4-1.2 4.8-2.1 0.1 0.2 0.1 0.3 0.1 0.5l-0.1 0.6c-0.2 1.2-0.9 2.2-1 3.4zm-3.8 0.4c0.8 1.7 0.8 3.3 0 5-1-0.8-2-1.4-3-2.2 1-2.1 2-4.9 0.5-7.1l0.8 0.7c0 1.2 1.1 2.4 1.7 3.6zm-20.7-1c0.7-1.7 1.5-3.5 3.7-1.6v0.7c-0.1 0.7-0.6 1.1-0.9 1.6-0.5 0.7-0.5 1.3-0.6 2.2-0.7-1-1.7-1.3-2.7-1.7q0.2-0.5 0.5-1.2zm69.7 6.3c-1.5-2.7-4.5-5-7.4-6 0.6-1.1 1.4-2 2.3-2.7 2.4 1.1 4.6 2.2 6.8 3.8l-0.3 1.3c-0.5 1.2-0.7 2.4-1.4 3.6zm-73.7-4.8q0-0.2 0.1-0.6c0.2-1.3 0.5-4.2 2.1-2.9l0.5 0.1c1 1.3-1.7 3-2.7 3.4zm-16.2 12.1c2.2 0.5 4.4 1.7 6.3 2.9q0 0 0 0c-1.7-1-3.5-2-5.4-2.4q-0.5-0.2-1-0.3-0.1 0.1-0.1 0.2c-0.2 0.5-0.3 0.9-0.5 1.3 2.6 1 4.8 2.7 6.5 5.2 0 0 0 0 0 0-1.4-1.9-3.1-3.6-5.2-4.6q-0.7-0.3-1.4-0.5 0 0.1-0.1 0.2-0.4 0.6-1 1.2c1.2 0.8 2.3 2 3 3.3q0 0 0 0c-0.8-1.3-1.9-2.4-3.1-3.2q-0.7 0.7-1.6 1.2c-1.2 0.7-2.6 0.7-3.9 0.5-0.6-0.1-1.2-0.1-1.7-0.3-0.4-0.2-0.7-0.6-1.1-1q0.2 0 0.3 0c0.1 0 0.2 0 0.4 0.1 0.3 0.2 0.5 0.4 0.7 0.6 0.6 0.2 1.2 0.3 1.8 0.3 1.2 0 3.8-1.3 4.4-1.8q-0.1-0.1-0.2-0.2c-0.6 0.4-1.2 0.6-1.8 0.8-1 0.4-2.6 0.6-3.6 0.1q-0.1 0-0.1-0.1c-0.2-0.1-0.4-0.2-0.7-0.2-0.3 0-0.6 0.2-0.8 0.2-0.8 0.1-1.3 0-1.9-0.4-0.5-0.3-0.9-0.8-1.2-1.3-1.8 0.5-3.4 1.4-4.3 3.2q0 0.1 0 0c0.7-1.7 2.3-3 4.2-3.5q-0.1-0.1-0.1-0.3-0.1-0.2-0.2-0.5c-0.9-0.1-1.8-0.1-2.8 0.2-1.4 0.4-2.8 1.2-3.7 2.5q0 0 0 0c1.2-2 4-3.3 6.4-3q0-0.3 0-0.6c-1-0.3-2-0.6-3-0.7-1.5 0-2.8 0.6-3.9 1.6q-0.1 0-0.1 0c1.1-1 2.3-1.7 3.7-1.7 1.1 0 2.2 0.2 3.2 0.6 0-0.6 0-1.1 0.1-1.4 0.1 0.4 0.2 1 0.4 1.6q0.3 0.1 0.6 0.3c0 0 0 0 0 0q-0.3 0-0.6-0.1 0.1 0.2 0.2 0.5 0.5 0.1 0.9 0.3c0.1 0 0.1 0.1 0 0.1q-0.4-0.1-0.8-0.2 0.1 0.3 0.3 0.6 0.8-0.1 1.6-0.1c0.1 0 0.1 0.1 0 0.2q-0.7 0.1-1.4 0.2 0.1 0.3 0.4 0.5c0.7 0.7 1.6 0.5 2.2-0.5-0.3-0.3-0.7-0.5-1-0.8-0.6-0.5-1-1-1.6-1.4-1.2-0.7-1.1-2-1-3.3 0.1-0.7 0.5-1.4 0.8-2q-0.1-0.1-0.1-0.2c-0.3-0.5-0.9-1.5-0.8-1.9 0.3-0.8 1 0.3 1.3 0.8v0.1c0.1-0.6 0.2-1.1-0.2-1.5-0.3-0.4-0.8-0.5-1.2-0.8-0.7-0.5-0.9-1.2-1-2 0.2 1.2 1.6 2.5 2.8 2.3h0.2c0.2 1.4-0.3 2.6-0.9 3.7-0.6 1-1 2.7-0.3 3.6 0.6 1 2 1.1 3.1 1.1 1.1-0.1 2-0.7 2.9-1.2-0.1 0.5-0.4 1-0.7 1.4q-0.2 0-0.5 0.1c-0.5 0-1 0.1-1.2 0.5-0.1 0.3-0.1 0.6-0.1 0.9q0 0.3-0.1 0.6c0.5 0.3 1.2 0.9 1.6 1 1.3 0.5 2.3 0.4 3.6-0.2q0.1 0 0.2 0-1-0.4-2.3-0.5c-0.1 0 0 0 0 0q1.4 0 2.5 0.4c0.6-0.2 1.1-0.5 1.5-0.9q0 0 0 0c-1.1-0.2-2.2-0.4-3.3-0.5-0.1 0 0-0.2 0.1-0.1q1.7 0 3.3 0.4c0.1-0.2 0.2-0.6 0.3-1.1q-1 0-2.1 0-0.3 0-0.6 0c-0.1 0-0.1-0.1 0-0.2q1.4-0.3 2.8-0.2c0.1-0.7 0.1-1.4 0.1-1.7l0.7 1.5q0 0.2 0 0.3 0.3 0 0.5 0.1c0.3-0.7 0.4-1.4 0-2-0.3-0.6-0.7-1-1-1.5 0.4 0.5 1.3 0.6 1.9 0.6 0.7 0.1 1.4-0.3 2-0.6q0.1 0 0.2-0.1c0.7-0.3 3.5-2.6 3.7-2.9 0.9-1.2 1.1-2.4 1.2-3.8q0-0.4 0.1-0.9c0.1-0.7 0.2-1.5 0.1-2.2q0-0.2 0-0.3c0-0.6-0.1-1.1 0.1-1.6 0.2 0.7 0.2 1.4 0.2 2.1q0 0.6 0.1 1.1 0.1 1.5 0.2 2.9c0 0.8 0 1.7-0.1 2.5-0.2 0.9-0.7 1.5-1.4 2-1.1 0.8-2.3 1.6-3.6 2.1-0.5 0.2-1.1 0.3-1.6 0.5-0.3 0.1-1.2 1.4-1.7 2.2zm10.3-14.7c0.5 0.2 0.9 0.7 1.5 0.9 0.5 0.2 1 0.2 1.5 0.4l1-0.4c0.4 1.2-1 4.5-2.4 4.3-1.7-0.2-1.8-3.9-1.6-5.2zm27.2 1.7c-0.6 1.9-0.2 2.7-2.1 3.5-0.1-1 0.6-2.2 1.2-3.2 0.4-0.7 0.8-1.4 0.9-1.9zm-3.8 3.1c-1.4-2-4.5-2.7-6.4-3.7 1.1-2.2 5.2-0.5 6.4 0.8l0.6 0.8c0.7 0.5-0.1 1.6-0.6 2.1zm-43.3-3.6c0.4 0.6 0.3 1.5 0.1 2.2v0.5q0 0.1 0 0.1v-0.1c0-1.3-0.8-2.1-1.7-2.8q-0.2-0.2-0.4-0.4c0.5-0.4 1.7 0 2 0.5zm91.8 2.2l1.3 1.1c0.2 0.2 0.4 0.6 0.7 0.9-1.5-1-3.6-1.6-5.4-1.5-0.6 0.1-1.3 0.2-1.9 0.4-1.4 0.3-2.9 0.7-4.2 0 0.8-1.2 3-3.6 4.5-3.6 1.2 0 5 1.8 5 2.7zm-14.7-2.5c0.9 0.5 1.6 1.4 2.1 2.3l0.7 0.6q-0.3 0.2-0.7 0.4c-1 0.8-2.5 1.8-3.2 1.3-1.2-0.9 0.2-4 1.1-4.6zm-6.3 4.5c-0.1-1.3-2.3-2.2-3.2-3 1.6-0.6 3.6-1.4 5.3-1.5 0.1 1 0.7 2.2 0.9 3.3l-1.5 0.7c-0.6 0.2-1.1 0.4-1.5 0.5zm-62.4-2.5q-0.1 0-0.1 0c0.4 1.3-1.4 1.8-2.3 1.8-0.6-0.1-1.1-0.3-1.4-0.8-0.4-0.5 0-0.9 0.3-1.3 0.2-0.2 0.3-0.5 0.4-0.7 0.3-0.1 0.7-0.2 0.9-0.2 0.3 0 0.8 0.1 1.1 0.2 0.4 0 0.9-0.1 1.3 0 0.5 0 0.9-0.5 0.8-1 0.8-0.1 0.7 1.2 0.5 1.5-0.2 0.4-0.6 0.4-1 0.4-0.2 0.1-0.3 0.1-0.5 0.1zm-4.6-2l0.8 0.2c-0.3 0.3-1.2 0.6-1.6 1.2-0.4 0.5-0.9 1.3-1.1 1.9-0.6-0.3-0.8-2.1-0.4-2.6 0.4-0.6 1.6-0.7 2.3-0.7zm14.2 8.5c0.4-0.7 0.9-1.1 1.2-1.9 0.2-0.7 0.1-1.3-0.1-2q0-0.2-0.1-0.4c-0.3-1.2-0.5-2.2-0.5-3.6 0.2 1.4 1.2 4.6 2.8 4.6 1.5 0 2.4-0.9 3.2-1.9l0.4-0.6c0.4 1.7-1.1 3.4-2.5 4.1-0.9 0.5-1.9 0.8-2.9 1.1-0.4 0.1-1.2 0.3-1.5 0.6zm-2.3-6.5c-0.6 0.2-1.4 0.3-2 0.8-0.8 0.5-1.3 1.1-2.3 1.3q0-0.2-0.1-0.4c-0.3-0.9-0.6-1.9 0.3-2.4 0.9-0.5 2.6-0.4 3.4 0.2zm-19.7-0.5c0 0.6 0.1 1.1 0.6 1.5 0.3 0.3 1.2 0.6 1.4 0 0.1-0.5-0.2-0.9-0.6-1.2 0.1 0.3 0 0.8-0.3 0.6-0.1-0.2-0.1-0.5-0.2-0.7h0.4q0 0-0.1-0.1c-0.5-0.2-0.8-0.2-1.3-0.1q-0.2 0-0.3 0c-0.2 0-0.9 0-0.9-0.2-0.1-0.2 0.5-0.2 0.7-0.2q0 0 0 0h0.1c0.6 0 1.2 0 1.8 0.2 0.9 0.4 0.9 1.1 0.9 1.9 0 0.4-0.1 0.7 0 1.1h-0.1c-0.1-0.1-0.4-0.1-0.6-0.1-0.2 0-0.4 0-0.5 0-0.4-0.1-0.7-0.4-0.9-0.7-0.5-0.5-0.7-1.3-0.8-1.9q0.2 0 0.4-0.1 0.1 0 0.3 0zm30.6 6.3c0.2-0.4 0.4-0.7 0.5-0.9 0.7-1.7 0.9-4.1 0.6-5.8 0.6 0.7 0.7 1.6 0.6 2.5l0.1 0.7c0 0.7-0.2 1.4-0.3 2.1-0.3 1.8-0.6 3.7 0.5 5.3-0.7-0.2-2.6-1.2-2.8-2-0.2-0.5 0.3-1.3 0.8-1.9zm-18.9-6.4q-0.2-0.1-0.5-0.1c-0.2 0-0.4 0-0.6 0q-0.1 0-0.2 0.1-0.1 0-0.3 0c-0.2 0-0.5 0-0.6 0-0.4 0.3-0.1 1.3 0.3 1.6 0.4 0.3 1.1 0.1 1.5-0.2 0.4-0.2 0.6-1.1 0.4-1.4zm1 2.4c-0.4 0.3-1.1 0.4-1.6 0.6-1.1 0.4-2 1.5-1.8 2.7 0 0.3 0.1 0.6 0.3 0.8-0.9-0.7-1.2-2.3-0.3-3.1 0.8-0.6 2.1-0.7 2.9-1.4 0.4-0.3 0.7-0.6 0.5-1.1l0.3-0.1q0 0 0.1 0 0 0 0 0 0.1 0.1 0.2 0c0.3 0 1.1-0.3 1-0.7l0.1-0.1c0.2 0.6-0.5 1.3-1.1 1.6-0.1 0.3-0.3 0.7-0.6 0.8zm-2.1-2.4c0.1 0.1 0.2 0.7-0.2 0.7-0.3 0-0.3-0.5-0.3-0.6zm-5.8 0.1q0.1 0.3 0.3 0.7c0.2 0.4 0.4 0.8 0.2 1.3-0.2 0.7-0.5 1.3-0.5 2.1-0.2-0.3-0.5-1.3-0.5-1.8 0-0.2 0.1-0.3 0.2-0.4q0-0.1 0.1-0.3c0.1-0.3 0-0.7 0.2-1zm33.1 13.3c-1.2-2.2-1.6-4.7-1.7-7.2q0-0.2 0-0.5c-0.1-1.5-0.2-3.2 1-4.4 1-1 4.4-1.6 5.6-0.6l0.9 0.5c1.4 0 2.8 1.7 3.2 3-0.4-0.8-1.6-1.6-2.5-1.8-1.7-0.4-3.1 0.2-4.4 1.3-1.6 1.4-2.4 3.9-2.2 6 0.3 3 1.9 5.3 3.8 7.6-1.5-0.9-2.9-2.3-3.7-3.9zm-7.9-12.8q0.1 0.1 0.1 0.3zm-5.1 8q-1.2 0.5-2.5 0.5c-0.5 0.1-1.1 0-1.6 0-0.7-0.1-1.4-0.2-2.1 0 1-0.9 2-0.9 3.2-1 1.2-0.2 2.4-0.6 3.6-1 1-0.4 2.4-0.9 3.1-1.8 0.7-0.9 1-2.1 1.2-3.2q0.1-0.1 0.1-0.2c0.1-0.3 0.1-0.7 0.1-1v0.1c1.2 0.1-0.3 3.5-0.7 4.1-0.9 1.2-1.9 2.3-3.3 3q0 0 0 0c0.7 0.1 1.3 0.4 2 1 1.4 1.2 2.5 2.5 3.7 3.8 2.1 2.5 4.1 5.1 6.6 7.4 0.4 0.5 0.9 0.8 1.4 1.1v0.1c-1.4-0.1-3.5-2.5-4.5-3.5-1.3-1.3-2.6-2.7-3.7-4.2-1-1.4-2.1-2.8-3.5-3.7-1-0.8-2-1.2-3.1-1.5zm82.6-7.2c-0.2 0.7-0.1 1.8 0 2.9 0 0.7 0 1.4 0 2-0.8 0.1-1.9-0.3-2.6-0.7q0.2-0.5 0.4-1c0.5-1.1 1.2-2.5 1.1-3.6zm-43.4 4.3c-0.2-1.5-1.3-2.8-1.7-4.3 2.5-0.7 3.6-0.6 5.9 1l1.5 1c0.4 0 0.8 0.1 1.2 0.4-2.2-0.1-5.5 0.1-6.9 1.9zm-57 3.8c0.2-0.3 0.3-0.7 0.4-1 0.1-0.6 0.1-1.3-0.1-1.9-0.2-0.6-0.6-1-0.6-1.6 0-0.8 0.1-1.5 0.4-2.1 0.3-0.5 0.8-1.1 0.9-1.6 0.1 1.2 1.5 1.5 2.4 1.1l0.4-0.1c-0.6 0.9-1.9 0.3-2.5 1.1-0.5 0.8-0.1 1.6 0.3 2.4v0.1c0.3 0.4 0.5 0.8 1 1.1q0.4 0.4 0.8 0.9c0.3 0.3 0.7 0.6 0.8 0.9l0.2 0.5c0.1 0.1 0.2 0.2 0.2 0.3-0.3-0.3-0.4-0.6-0.6-0.9-0.3-0.2-0.6-0.4-0.9-0.7q-0.5-0.3-0.9-0.8c-0.2-0.2-0.4-0.5-0.6-0.6q-0.1 0-0.1 0 0 0 0 0-0.2-0.1-0.3 0.2c-0.2 0.2-0.2 0.7-0.3 1-0.1 0.7-0.3 1.3-0.9 1.7zm51.7-1.3c0.5-1.2 0.5-2.5 0.5-3.8 0-1.1 0-2.2 0.2-3.1l1.5 1.5q0.1 0.1 0.1 0.2c0.5 0.7 1.2 1.9 1.1 2.7-0.2 1.4-2 2.1-3.4 2.5zm-40.3-6.9h0.4c0 0.5 0.1 1.7-0.8 1.5-0.9-0.2 0-1.3 0.4-1.5zm-18.6 3q0.1 0.2 0.2 0.3c0.4 0.8 0.8 1.7 0.4 2.5 0.1-0.8-0.4-1.6-0.8-2.3q-0.2-0.3-0.3-0.5c-0.6-1.1-0.6-1.8-0.6-2.9 0.6 0.9 1 1.5 1.9 2.1l0.3 0.2c0.3 0.1 0.3 0.5 0.4 0.7-0.1-0.4-0.7-0.7-1-0.7-0.7-0.2-0.8 0.1-0.5 0.6zm112.6 0.8c0.6 0.8 1.1 1.4-0.1 2.1-1.4-1.8-1.9-4-3.5-5.7l1.3 1.1c0.8 0.4 1.6 1.7 2.2 2.4q0 0.1 0.1 0.1zm-101.3 0.3c0-0.9 0.3-1.6 1.1-2.1 0.6-0.3 1.5-0.4 1.7-1l0.4-0.6c0 0.2 0.1 0.4 0.1 0.6 0.1 0.2 0.2 0.5 0.2 0.8 0 0.6-0.5 0.6-1.1 0.7-1 0.2-2 0.5-2.4 1.6zm61.1-0.3q0-0.1 0.1-0.3c0.2-0.8 0.4-1.8-0.2-2.4 0.9-0.1 1.5 0.7 2 1.4q0.1 0.2 0.2 0.3l0.2 0.6c-0.8 0-1.6 0.2-2.3 0.4zm-57.2-0.4c0.3-1.1 1.4-1.2 2.1-2.1l0.1 0.6c0.4 1.3 1.1 0.5 1.7-0.1 0.2-0.2 0.4-0.4 0.5-0.5 0.3 1.1 0.4 2.1-0.6 2.9-0.5 0.3-0.9 0.5-1.4 0.9-0.4 0.3-0.6 0.8-1.1 1.1-0.6-0.5-1.6-2-1.3-2.8zm22.2 9.9c0.6 1.2 2 2.2 2.2 3.5-0.3-1.5-2.3-2.7-3.3-3.8-1.5-2-2.3-4.2-3.2-6.5l-0.1-1.9c0.2-1.4 0.9-2.8 1.7-3.2-0.5 2.5 0.1 6 1 8.4 0.4 1.3 1 2.4 1.7 3.5zm17.3-6c-0.8-1.2-0.4-1.5 0.2-2.2q0.2-0.2 0.4-0.4c0.7-0.7 1.3-1.8 1-2.8l0.4-0.3c1 1.6 0.7 3.7 0.4 5.5-0.4 1.8-1.4 1.8-2.4 0.2zm45.6 1.8c0.3-2.6 0.1-4.5-0.4-7.1 1 0.8 3 1.5 3.4 2.8l2.1 0.7c0.3 1.1-3.8 3.6-5.1 3.6zm-55-6.3l1 1.3c0.1 0.2 0.2 0.1 0.2 0.3-0.4 1-1 1.8-1.8 2.7-1.2-0.9-3.1-1.4-4.1-2.5 0.7-1.8 2.9-3.3 4.7-1.8zm9.2 16.9c-0.4 1.7-1.5 3.6-1.9 5.1-0.6 1.8-1.1 3.5-1.8 5.3-1.4 3.7-3.2 6.8-5.3 10q0 0.1-0.1 0.2 0 0.4 0 0.7-0.1-0.2-0.1-0.4-0.1 0.2-0.2 0.3 0-0.3 0.1-0.6c-0.1-1.1 0.3-2.3 0.7-3.4q0.2-0.5 0.3-0.9c0.6-1.7 0.9-3.3 1.3-4.9 0.9-3.4 2.5-6.4 4.3-9.4 0.8-1.5 1.8-3.4 1.6-5.2-0.3-1.6-1.7-2.7-2.3-4.1-0.4-0.9-0.2-1.8 0.1-2.7 0.1-0.7 0.3-1.4 0.3-2.1-0.2-1.8-0.2-3.9-1.3-5.4 0.8 0.4 1.3 1.2 1.5 2.1 1.1 1.1 1.5 3.8 2.6 5.1 1.4 1.6 3.3 3 5 4.2 3.3 2.4 7.9 5 11.9 2.8 1.9-1.1 3.7-4.1 2.7-6.2-1-2.3-5.1-4.6-6.8-1.7-0.8 1.3-0.1 4.1 1.7 4.1-2.3 0.1-4.1-1.7-3.6-4 0.4-2.2 2-3 4-3.3 1.1-0.2 2.2-0.2 3.2-0.3 2.1-0.1 4.1-0.1 6.2-1.4h0.4c-0.2 0.9-1.6 2.6-2.1 3.9-0.5 1.4-0.5 2.5-0.5 3.9 0.2 2.6 1.2 3.9 2.2 6.1-2.1 1.3-5.7 2.3-8.1 2.7-2.4 0.4-5 0.1-7.1-1.2-1.9-1.2-3.1-3.2-5-4.4-2.2-1.3-4.2-1.6-5.4-4.1-0.3-0.6-0.6-1.4-0.9-2.2 0 0.7 0 1.3-0.1 1.8l-0.1 1.7c0.8 1.6 2 3 2.8 4.6 0.7 1.3 0.4 2.2-0.2 3.3zm14.3-7.1q0 0 0 0 0 0 0 0zm13-6c0.5-0.8 3.6-4.5 4.5-4.1l1.2 0.1c0.6-0.4 2.3-0.5 2.8 0.1-1.5 0.8-3.5 2-4.2 3.5-1.1 2.4-1.8 3.8-4 5.3-1.1-1.5-1.2-3.3-0.3-4.9zm15.3 20.6c-1.4-1-2.9-0.7-4.6-1-3.1-0.7-7.4-2-9.5-4.5-3.6-4-7.8-12.4-3.5-16.9 0.8-0.8 2-1.3 2.8-2.2q-0.5 0.9-1 1.7c-0.9 1.6-1.9 3.1-1.8 5.2 0.1 3.1 1.6 6 3.1 8.5 3.3 5.5 8.7 6.1 14.6 5.7 0.7 2.2 2.2 4.2 2.8 6.5v0.4c-1.2-0.8-1.7-2.5-2.9-3.4zm-46.3-19.8c0.2 1-0.2 1.8-0.5 2.8q-0.1 0.1-0.1 0.2c-0.9 0.3-2.6 0.2-3.2-0.4 0.2-1.2 1.9-2 2.1-3.4 0.2-1.3 0.1-2.9-0.6-3.9l0.7 0.4c0.7 1.4 1.3 2.7 1.6 4.3zm48.5-2.6c-2.3-0.6-6-0.3-7.6 1.8-0.1-0.8-0.6-1.5-0.9-2.3 1.7-1 3.5-1.9 5.4-1.3l1.3 0.7c0.7 0.1 1.3 0.6 1.8 1.1zm-87.7 0.7c-0.1-0.8 0.1-1.2 0.8-1.5 0.5-0.3 1.1-0.8 1.6-0.9v0.5c-0.8 1 0.3 2.2 1 2.7-0.2 0.5-1.5 0.6-2 0.6-0.9-0.1-1.4-0.6-1.4-1.4zm144.4 27.4c-0.2 4.9-1.5 8.8-5.5 11.9-3.7 2.9-9.5 3-13.8 2-4.3-1-8.9-4.2-11.9-7.3-1.7-1.8-3.2-4-4.7-6-1.5-2.2-3.2-4.3-4.4-6.8-2.1-3.9-3.5-8.3-4.4-12.7-0.3 1.3-0.9 2.4-1.6 3.5-0.9 1.7-1.9 3.4-1.6 5.4 1-0.2 1.8-0.3 2.4 0.7 0.7 1.1 0.3 3.2 0.7 4.3q1.3 3.4 2.4 6.9 0.1 0.1 0.1 0.2c0.5 1.5 1.6 5 1.2 6.3-0.4 1.2-3.2 4.2-4.5 4.5 0 0-0.1 0.2-0.2 0.2 1.5-2.1 3-3 3.2-5.8 0.1-2.3-0.6-4.4-1.4-6.6-0.8-2-1.7-3.9-2.6-5.9-0.9-2.2-1.8-2.7-3.8-3.9l1-0.5c-0.5-1.1 1.1-3.9 2.2-5.7 0.4-0.7 0.7-1.2 0.9-1.5 0.5-1.2 0.9-2.8 1.2-4.4q-0.2-1-0.4-2 0.1 0.1 0.1 0.2-0.3-1.6-0.2-3.1l-0.3-1.2-1.1-2.5c2.2 2.7 3.6 6.1 5 9.5 1.8 4.2 2.5 8.6 4.7 13 2.7 5.4 5.3 11.3 10.1 14.9 2.4 1.7 3.9 3 7.3 4.3 1.3 0.5 2.7 0.8 4.1 0.9 3.8 0.1 8.1-1.1 10.9-3.6 3.4-2.8 4.2-8.5 3.3-12.6-0.9-3.9-8.3-8.4-12.2-6.8-1.2 0.5-1.6 1.4-1.7 2.6l-0.7-0.2c-2.2-1.6 0.4-4.3 2.2-4.7 2.2-0.6 4.8 0.4 6.7 1.4 4.7 2.3 7.6 5.8 7.3 11.1zm-109.8-25c-0.5-0.8-0.2-1 0.2-1.3 0.2-0.1 0.4-0.3 0.5-0.5 0.4-0.5 0.5-1.5 0.5-2.2q0.2 0.2 0.3 0.4l0.5 1.1c0.4 0.9-0.9 4.2-2 2.5zm-40.1-1.4l-0.1 0.6c-0.7 2.8-5 0.8-3.6-1.1 0.7 1.2 2.8 1.4 3.7 0.5zm37.8 2c0 0.6-0.3 1.2-0.7 1.7-0.4 1-0.9 1.9-0.5 2.9-1.4-1.4-3.1-2.3-3.4-4.5-0.1-0.7 0-2.3 0.8-2.5 0.7-0.2 1.7 0.5 2.5 1.2 0.4 0.2 0.7 0.4 0.9 0.6zm20.2-1.1c-0.4 0.6-0.9 1.7-0.9 2.7-0.6-0.2-1.3-0.4-1.9-0.9 0.5-1 1.3-2.4 2.2-3.2 0.2 0.3 0.6 0.4 0.7 0.6zm25.5 1.8c-0.1 1.4-0.2 2.9 0.2 4.1-1.2-0.7-2.4-1.9-3.6-2.3 0.6-1.3 1.1-2.6 2-3.6l1.4-1.4c0.1 1 0.1 2.1 0 3.2zm24.2-0.2c-0.5-0.8-1.1-1.5-1.4-2.4l0.9 0.5c0.6-0.3 1.6-0.2 2.3 0 0.2 0.8 0.3 1.7 0.5 2.5q-0.3 0-0.6 0.2c-0.3 0.1-0.7 0.2-1 0.1-0.3-0.1-0.4-0.5-0.7-0.9zm-17.1-2.3l0.7 0.4c-0.5 0.5-1.5 1.8-2 2.7-0.6 1.2-0.6 2.6-1.2 3.8-0.3-0.5-0.6-0.9-1-1.3-0.7-0.8-1.3-1.6-1.2-2.8 0.2-2.6 2.6-2.8 4.7-2.8zm10.1 8c-0.5-0.5-1.1-0.8-1.8-1 1.5-2.1 2.1-4.3 2.1-6.9l1 1.4c0.5 2 0.7 4.9-1.3 6.5zm-49.5-3.9q-0.2-0.1-0.4-0.2c0.2-1.2 0.9-2 1-3.2 0.3 0.2 0.6 0.6 0.8 1l0.1 0.9c0.7 0.5 1.3 1.2 1.8 1.8-1.4 0.5-2 0.3-3.3-0.3zm-22.6 8.9c-0.8-0.1-1.4-0.4-2.2-0.7-1.6-0.6-3-1.5-4-3-1.6-2.4-2.1-5.8-4.5-7.6q-0.4-0.3-0.8-0.6 0.2 0.1 0.4 0.2-0.1-0.1-0.1-0.1c0.5 0 1.1 0.2 1.6 0.4 1.1 0.4 2.1 1.4 3.1 2.1 1.2 0.9 2.1 1.9 2.8 3.3 0.7 1.2 1.4 2.7 2.4 3.7 0.6 0.5 1.3 1 2 1.4 0.7 0.4 1.7 0.7 2.3 1.2l-0.4-0.1q0.2 0.1 0.4 0.1l-0.3 0.1c-0.8-0.3-1.9-0.2-2.7-0.4zm34.6-10.4c0-0.2 0.1-0.5 0.2-0.7l0.4-0.4c0.6 0.2 2 0.7 2.3 1.3 0.2 0.5 0 0.8-0.2 1.1q-0.2 0.3-0.3 0.7c-1-0.4-1.5-1.6-2.4-2zm-35.2 4c-1.1-1.1-1.9-2.5-2.4-3.9 0.5-0.1 0.9 0.2 1.3 0.5l0.6 0.1c0.9 1.3 2.1 2.5 3 3.8 0.7 1 1.1 2.1 1.7 3.2-1.6-0.6-3.1-2.5-4.2-3.7zm83.5 0.8c-0.4-1.2-1-2.3-1.4-3.5 0.3-0.4 0.8-0.6 1.2-0.8l0.1 1.2c0.5 1.2 2.8 6 0.7 6.7-0.1-0.3-0.1-0.6-0.1-1q0-0.2 0-0.4c-0.1-0.7-0.3-1.5-0.5-2.2zm-3.3-2.3c-0.2-0.4-0.5-0.8-0.6-1.3 0.1 0 0.1 0 0.2 0.1q0 0 0 0l0.7 0.8c0.3 0.3 1 1 1 1.5 0 0.7-0.3 0.8-0.7 0.3-0.3-0.3-0.4-1-0.6-1.4zm-109.4 0.4q-0.1 0.1-0.1 0.1 0-0.2 0-0.4c-0.1-0.3-0.1-0.6 0.1-0.9 0.3-0.3 0.8-0.3 1.2-0.3l-0.2 0.3c0.1 0.2-0.7 0.9-1 1.2zm95 4.9c-0.8-0.2-1.7-0.3-2.5-0.3-0.1-2.5 0-7.7 3.9-5.1l1.9-0.8c0.3 0.7-0.2 1.1-0.7 1.5-0.3 0.3-0.7 0.7-0.8 1.1-0.4 1.2 0.6 2.9 1.4 3.7-1 0.2-2.1 0-3.2-0.1zm-55.2-4.5c0.3-0.4 0.7-1 0.8-1.6 0.9 0.4 1.9 0.6 2.8 1l0.7 0.3c0.6 0.5 0.8 2.5 0.6 3.4-1.3-1.5-2.8-2.8-4.9-3.1zm-31.5-1.5q-0.2 0-0.4-0.1c-0.1 0.5-0.4 0.9-0.6 1.3q0.1 0 0.3 0.1c0.2-0.4 0.5-0.9 0.7-1.3zm47.9 2.4q-0.5-0.4-1-0.7c0.8-0.5 1.7-0.7 2.2-1.5l0.6 1.4c0.4 0.2 0.9 0.6 1.2 1.2-0.9 1.1-2 0.3-3-0.4zm25 5.7q0.2 0.6 0.3 1.1c-1.5-0.8-2.6-2.8-3.2-4.3q0-0.2-0.1-0.3c-0.4-1-0.8-1.9-0.3-2.7 0.5-0.7 1.8-1.3 2.5-1.4l1.4 1.1c0.1 0 0.3 0.2 0.5 0.3-2.9 0.9-1.9 3.9-1.1 6.2zm-73.7-6.7q-0.2 0-0.3-0.1 0 0.1-0.1 0.1c-0.2 0.4-0.6 0.8-1.1 1q0.1 0.1 0.2 0.1c0.4-0.4 0.9-0.6 1.3-1.1zm56.7 1.7q0.5 0.2 1 0.4l0.2 0.8c-1.5 0.8-4 1.7-4.4-0.5-0.3-2.2 1.6-1.4 3.2-0.7zm-33.3 3.7c-2.2-0.3-3.1-2.6-3.7-4.4l0.5 0.7c0.6 0.6 1.2 1.4 1.8 2 0.6 0.5 1 1 1.4 1.7zm14.3 0.3c0.9-0.9 1-3.4 0.4-4.4l0.8 1c1.1 1.4 2.5 4.2-0.1 5.2 0-0.8-0.3-1.5-1.1-1.8zm30.1 0.7c-3.2 0.7-6.3 1.6-9.5 2.5q-3.1 1-6.4 1c-1.7 0-3.3-0.1-5-0.2-1.7-0.1-3.4-0.1-5.1-0.5-0.1 0-0.1-0.1 0-0.2q0.3 0 0.5-0.1c0.6-1 1.5-1.8 1.6-3 0.2-1.4-0.3-3.2-1.6-3.9l-0.9-0.6c2.9 0.1 4.2 3.3 5.9 5.1 1.3 1.5 2.6 1.9 4.6 2q0.7 0 1.4 0.1c0.9 0.1 1.9 0.1 2.8 0.1q1.2-0.2 2.5-0.5c1.8-0.5 3.6-1 5.4-1.4 0.8-0.2 1.7-0.4 2.5-0.5q0.1 0 0.2 0c0.3-0.1 0.7-0.1 1.1 0 0 0 0 0.1 0 0.1zm-34.8-2.6c-1.1-0.2-1.8 1.2-2.2 2.1q-0.1 0.2-0.2 0.3c0-1.3 0.1-3.2 1.1-4.2 1.2-1.2 2.2 0.1 2.9 1.2q0.3 0.4 0.6 0.7l0.3 2.2c-0.6-0.5-1.4-2.2-2.5-2.3zm71.2 1.8q-0.1-0.1-0.1-0.2c-0.6-1.1-1.3-2.4-1.2-3.6q0.2-0.1 0.3 0l0.7 0.2c0.2 0.3 1 0.8 1.1 1.3 0.2 0.6-0.4 1.9-0.8 2.3zm-25.3 2.8c-1.2-1.3-1.9-3.7-3-5.2 1.6-1.3 3.1-1.8 4.8-0.4l-0.3 1.7c-0.4 1.3-0.1 2.9-1.5 3.9zm14.5 0.1c-0.2-2.3-0.8-3.4-1.7-5.4 0.6-0.3 1.7-0.3 2.2 0.3l1.1 0.4c-0.8 1-0.9 3.4-1.6 4.7zm-64.1-5q0 0 0 0 0 0 0 0 0 0 0-0.1 0 0 0 0.1 0 0 0 0zm4.4 2.8c0.1 1.8 0.2 3.3-2.3 2.4q0.2-0.3 0.5-0.7c0.6-1 1.3-2.2 1-3.3 0.2 0.2 0.3 0.5 0.4 0.8l0.4 0.6q0 0.1 0 0.2zm-6-1l0.3 0.7c0.2 1.1 0.3 2 0.3 3.2-0.2 3.3-1.5 6.3-2.6 9.3-0.6 1.4-0.8 3-0.9 4.6-0.1 0.7-0.2 1.4-0.4 2.1-0.2 1-0.4 2.1-0.4 3.1-0.1-0.6 0-1.3 0.1-1.9q0-0.7 0.1-1.3 0-0.4 0-0.8c-0.1-3.1-0.1-6.1 1.2-9 1.4-3.2 2.3-6.5 2.3-10zm7.1 4c0.3-0.8 0.6-1.5 1.1-2.2l0.7-0.8c-0.2 1-0.3 2-0.6 3-0.3 0.1-0.9 0.1-1.2 0zm44.7 0.5c1.2 0.2 1.8-0.6 2.5-1.5 0.3-0.4 0.6-0.9 1-1.2 1.6-1.3 2.7 0.1 3.8 1.4q0.3 0.4 0.6 0.7l0.2 1.1c-0.5-1-2.4-0.6-3.5-0.3q-0.2 0-0.3 0c-1.7 0.4-2.7 0.2-4.3-0.2zm27.7 2.7c-0.2-0.8-0.6-1.4-1-2.1-0.6-1.1-1.3-2.1-1.1-3.6 0.8-0.2 1.6 0.3 2.2 0.8q0.2 0.2 0.3 0.3l0.6 1.6c0.1 0.8-0.2 2.4-1 3zm-15.4 2.2c-0.6-2.5-1.9-5.7-3.6-7.7 0.9 0.2 2.3 0.1 3 0.8 0.5 0.6 0.6 1.5 0.6 2.3q0.1 0.5 0.1 1l0.9 2c0.1 0.7-0.3 1.4-1 1.6zm-61-6.4c-0.2 0.3-0.5 0.7-0.5 1 0.1 1.1 1.2 2.1 1.3 3.2q-0.1-0.1-0.1-0.1c-0.8-0.2-1.7-0.5-2.5-0.5q0.1-0.7 0.2-1.4c0.2-1.1 0.4-2.1 0.2-3.4h1.2c0.9 0.1 0.6 0.6 0.2 1.2zm-5.5 3.5q0 0.6 0 1.3c0 1.1-0.4 2.2-0.7 3.3-0.1 0.7-0.3 0.3-0.8-0.8q-0.4-0.7-0.9-1.7c-0.4-0.7-1-1.5-1.5-2.2-1.2-1.4-2.4-2.8-1.8-4.6 0.5 0 1 0.2 1.6 0.3q0.5 0.2 1 0.3 0.5 0.1 1.1 0.3c0.7 0.1 1.4 0.3 2 0.3l1.3 0.4c-1.4 0.8-1.3 1.8-1.3 3.1zm0.3 2.2c-0.1-0.7-0.1-5.2 1-4.5l0.2-0.3c-0.1 1-0.7 3.9-1.2 4.8zm53.9-4.2q-0.1 0-0.3-0.1 0.2 0.1 0.3 0.1zm23.1 4.8c0.2 0.4 0.4 0.8 0.5 1.1 1.1 2.1 2.5 4 3.7 6.1 0.9 1.5 1.9 4.2 1.6 5.9-0.5 2.3-3.7 2.3-5.5 2.8 1.5-0.9 2.5-1.4 2.6-3.3 0.1-2-0.6-4.7-1.4-6.5-1.3-2.9-2.8-6.6-5-9v-0.9c1.5-1 2.7 1.9 3.5 3.8zm-69.5-3.3q0-0.4 0-0.7c0.5 0.2 1 0.8 1.7 0.8l-0.4 1.4c-0.4 0.3-1 0.4-1.6 0.4 0.3-0.6 0.3-1.3 0.3-1.9zm77.5 4.8c-0.8-0.6-1.5-1.5-2.5-1.9 0.2-0.7 0.6-1.4 0.8-2.1v-0.7c0.8 1.3 1.3 3.2 1.7 4.7zm-21.6-3.4c0.4 0.1 1.3 2.2 1.7 3-1.8 2-2.1-0.5-2.4-2.3q0-0.6-0.1-1zm-58.8 1.5l-0.2 1c0.1 0.2 0.2 0.4 0.1 0.7-0.3-0.3-0.7-0.4-1.1-0.5-0.9-0.3-1.5-0.4-0.6-1.9 0.6 0.1 1.2 0.4 1.8 0.7zm71.3 2.6c-1.1 0.9-1.5-0.6-1.6-1.5q-0.1 0-0.1-0.1v-0.3c0.6 0.2 1.4 1.2 1.7 1.9zm-58.1 4.1c1.2 2.3 1.7 4.9 2.7 7.2l-0.3 1.2c-0.5 1.3-1.7 3.2-2.9 3.9 0.5-1.4 1.2-2.8 1.4-4.4 0.2-1.8-0.5-3.1-1.5-4.6-0.8-1.5-1.7-3-2.6-4.4q-0.3-0.5-0.5-0.7c-0.4-0.6-0.6-0.8-0.5-1.7 0.1-0.7 0.5-1.5 0.8-2.1 1.5 1 2.6 4 3.4 5.6zm50.9-4.6c0.5 0.8 0.8 1.7 0.6 2.6q-0.8 0-1.7 0c0.3-0.8 0.3-1.9 0.5-2.8zm15 1.6q0-0.1-0.1-0.2c-0.2-0.5-0.5-1.2 0.1-1.2 0.6 0 1.3 1 1.4 1.4l0.5-0.2c0.1-0.2 0.2-0.2 0.3-0.4q0.1 0.3 0.2 0.6c0.3 1.1 0.5 2.1-0.5 2.8-0.9-0.7-1.4-1.9-1.9-2.8zm-19.3 0.5c0.7-0.2 1.4-0.7 2.1-0.9 0 1.2-0.2 3.1-1.7 3.4-0.1-0.8-0.8-1.6-1.4-2.1zm11 0q0-0.1 0-0.2l0.7 0.4c0.5 0.3 0.9 0.8 0.9 1.5-1.6 0.7-1.6-0.5-1.6-1.7zm-61.1 3.1c-0.5 0.6-1.4 0.9-2 1.4-0.1-0.4 0-0.8 0.1-1.1q0.1-0.4 0.1-0.9l0.5-1.1c0.3 0.1 1.1 1.1 1.3 1.7zm53.6-0.7c0.3 0.7 0.5 1.3 0.4 2.1q-0.4-0.1-0.7 0c-0.3 0-0.6 0-0.9-0.1 0.3-0.4 0.5-1.1 0.7-1.6zm19.9 3.2c-0.8-0.7-1.7-1.5-1.6-2.5 0.5-0.1 1.9 0.6 2.1 0.9 0.3 0.4 0.1 1.2-0.2 1.5l0.5 0.9c-0.2-0.2-0.5-0.5-0.8-0.8zm28.1-2.5q0.1 0 0.2 0v0.6c0.1 0.8-0.2 1.6-0.5 2.3q-0.1 0.4-0.2 0.8 0-0.1 0-0.3c0.1-0.6 0.2-1 0-1.7q-0.1-0.1-0.1-0.3c-0.2-0.4-0.4-0.9-0.3-1.2 0.1-0.2 0.5-0.2 0.9-0.2zm-51 1.4c0.2 1.5-1.3 2.5-2.5 3.4-0.5 0.3-1 0.6-1.3 1-1.1 1-4 6.2-0.4 6.1q-0.4 0-0.7 0.1c-1.4 0.1-2.2 0.2-2.4-1.9-0.1-1.5 0.1-3 0.7-4.3 0.6-1.4 1.8-2.4 3.1-3 1.2-0.6 2.7-1.1 3.3-2.2zm-50.9 0.5c0.3 0.9-0.5 1.3-1.5 1.1 0-0.4 0.3-0.8 0.7-1.1zm77 1.6l0.9 1.4c0 0.7-0.3 1.4-0.9 1-0.5-0.3-0.8-1-1-1.5q0-0.1-0.1-0.3c-0.3-0.6-0.8-1.5-0.4-1.7 0.5-0.4 1.4 0.9 1.5 1.1zm20.6 4.9c0.1-0.2 0.3-0.4 0.5-0.6 0.5-0.6 1.1-1.3 1-1.6l0.6-0.7q0.4-0.1 0.8 0c0.2 1-2 3-2.9 2.9zm-18.7-2.8c0.5 0 1.1 0.4 1.6 0.7q0.4 0.2 0.7 0.4c0.1 0.5 0.1 1 0.1 1.6q0 0.3 0 0.6l-0.7-0.2c-0.3-0.4-0.9-0.5-1.2-0.9-0.4-0.6-0.3-1.5-0.5-2.2zm-95.3 1.1l0.2-0.3q-0.1 0.2-0.2 0.3zm0 0l-1.1 1.4c-1.4 0.3-2.9 1.5-3.8 2.6-0.7 1-2 4-0.3 4.7q0.1 0 0.1 0 0 0-0.1 0c-1.1-0.4-1.6-0.5-1.7-1.9-0.1-1.1 0.1-2.2 0.8-3 0.7-0.9 1.9-1.3 2.9-1.7 1.5-0.6 2.3-1 3.2-2.1zm113.6 0.6c0.1 0.2 0 0.3-0.1 0.4q-0.1 0.1-0.1 0.2c-0.3 0.3-0.7 0.8-1 1.2-0.6 0.6-0.9 1-1.7 0.8-0.6-0.2-1.1-0.7-1.7-0.8 0.5-0.3 1.1-0.2 1.6-0.5 0.5-0.4 1.1-0.7 1.7-0.8l0.7-0.7c0.2-0.1 0.4-0.1 0.6 0.2zm-13.4 1.2c-0.5-0.3-1.1-0.1-1.7-0.5 0.2-0.6 1-0.3 1.7 0 0.2 0.1 0.4 0.2 0.6 0.2zm-1.3 0.8c0.2 0 0.5 0 0.9 0 0.6 0 1.3 0 1.6 0.2 0.4 0.3 0.4 0.9 0.5 1.3l-1.1-0.2c-0.6-0.4-1.6-0.3-1.9-1.3zm8.2 1.3l1.6-0.1c-1.5 0.7-3.1 1.1-4.8 0.8-1.3-0.1-0.9-1.2 0-1.6 0.9-0.6 2.4 0.2 3.2 0.9z"/>
			</g>
			<path id="Layer" class="s0" d="m105.1 105.1q16.7-16.6 38.2-25.7 22.3-9.4 46.7-9.4 24.4 0 46.7 9.4 21.5 9.1 38.2 25.7 16.6 16.7 25.7 38.2 9.4 22.3 9.4 46.7 0 10.6-1.8 20.7h-2.2q1.8-10.1 1.8-20.7 0-24-9.3-45.8-8.9-21.2-25.2-37.5-16.3-16.3-37.5-25.2-21.8-9.3-45.8-9.3-24 0-45.8 9.3-21.2 8.9-37.5 25.2-16.3 16.3-25.2 37.5-9.3 21.8-9.3 45.8 0 10.5 1.8 20.6h-2.3q-1.7-10.1-1.7-20.6 0-24.4 9.4-46.7 9.1-21.5 25.7-38.2zm169.8 169.8q-16.7 16.6-38.2 25.7-22.3 9.4-46.7 9.4-24.4 0-46.7-9.4-21.5-9.1-38.2-25.7-4.9-5-9.1-10.3h2.8q3.7 4.5 7.9 8.7 16.3 16.3 37.5 25.2 21.8 9.3 45.8 9.3 24 0 45.8-9.3 21.2-8.9 37.5-25.2 4.2-4.2 7.9-8.7h2.8q-4.2 5.3-9.1 10.3z"/>
		</g>
	</g>
</svg>